{
.appVersion = "895";
copyright = "Copyright 2016 Google Inc. All Rights Reserved.";
customParameters = (
{
name = description;
value = "Designed by Monotype design team.";
},
{
name = license;
value = "This Font Software is licensed under the SIL Open Font License, Version 1.1. This Font Software is distributed on an \"AS IS\" BASIS, WITHOUT WARRANTIES OR CONDITIONS OF ANY KIND, either express or implied. See the SIL Open Font License for the specific language, permissions and limitations governing your use of this Font Software.";
},
{
name = licenseURL;
value = "http://scripts.sil.org/OFL";
},
{
name = vendorID;
value = GOOG;
},
{
name = trademark;
value = "Noto is a trademark of Google Inc.";
},
{
name = fsType;
value = ();
},
{
name = panose;
value = (
2,
11,
5,
2,
4,
5,
4,
2,
2,
4
);
},
{
name = unicodeRanges;
value = (
12
);
},
{
name = codePageRanges;
value = (
1252
);
}
);
date = "2016-11-10 14:41:43 +0000";
designer = "Monotype Design Team";
designerURL = "http://www.monotype.com/studio";
familyName = "Noto Sans Vai";
fontMaster = (
{
ascender = 2189;
capHeight = 1434;
customParameters = (
{
name = typoAscender;
value = 2189;
},
{
name = typoDescender;
value = -600;
},
{
name = typoLineGap;
value = 0;
},
{
name = winAscent;
value = 2189;
},
{
name = winDescent;
value = 600;
},
{
name = hheaAscender;
value = 2189;
},
{
name = hheaDescender;
value = -600;
},
{
name = underlinePosition;
value = -205;
},
{
name = underlineThickness;
value = 102;
}
);
descender = -600;
id = "ADED0D52-FD26-4FEF-A6A9-DB4FC8BB207A";
weightValue = 400;
widthValue = 5;
xHeight = 1024;
}
);
glyphs = (
{
glyphname = .notdef;
lastChange = "2016-11-10 14:41:37 +0000";
layers = (
{
layerId = "ADED0D52-FD26-4FEF-A6A9-DB4FC8BB207A";
paths = (
{
closed = 1;
nodes = (
"1034 0 LINE",
"1034 1462 LINE",
"193 1462 LINE",
"193 0 LINE"
);
},
{
closed = 1;
nodes = (
"297 1358 LINE",
"930 1358 LINE",
"930 104 LINE",
"297 104 LINE"
);
}
);
width = 1229;
}
);
note = .notdef;
},
{
glyphname = uniA500;
lastChange = "2016-11-10 14:41:34 +0000";
layers = (
{
layerId = "ADED0D52-FD26-4FEF-A6A9-DB4FC8BB207A";
paths = (
{
closed = 1;
nodes = (
"1159 0 LINE",
"1159 141 LINE",
"745 141 LINE",
"745 1321 LINE",
"1159 1321 LINE",
"1159 1462 LINE",
"172 1462 LINE",
"172 1321 LINE",
"586 1321 LINE",
"586 141 LINE",
"172 141 LINE",
"172 0 LINE"
);
},
{
closed = 1;
nodes = (
"333 530 OFFCURVE",
"391 550 OFFCURVE",
"432 588 CURVE SMOOTH",
"472 626 OFFCURVE",
"496 679 OFFCURVE",
"496 750 CURVE SMOOTH",
"496 817 OFFCURVE",
"471 870 OFFCURVE",
"431 907 CURVE SMOOTH",
"390 943 OFFCURVE",
"332 963 OFFCURVE",
"268 963 CURVE SMOOTH",
"201 963 OFFCURVE",
"146 943 OFFCURVE",
"107 906 CURVE SMOOTH",
"67 869 OFFCURVE",
"45 816 OFFCURVE",
"45 748 CURVE SMOOTH",
"45 679 OFFCURVE",
"67 624 OFFCURVE",
"107 587 CURVE SMOOTH",
"146 550 OFFCURVE",
"201 530 OFFCURVE",
"268 530 CURVE SMOOTH"
);
},
{
closed = 1;
nodes = (
"203 645 OFFCURVE",
"166 681 OFFCURVE",
"166 748 CURVE SMOOTH",
"166 812 OFFCURVE",
"208 850 OFFCURVE",
"268 850 CURVE SMOOTH",
"328 850 OFFCURVE",
"371 812 OFFCURVE",
"371 748 CURVE SMOOTH",
"371 681 OFFCURVE",
"331 645 OFFCURVE",
"268 645 CURVE SMOOTH"
);
},
{
closed = 1;
nodes = (
"1124 530 OFFCURVE",
"1181 550 OFFCURVE",
"1222 588 CURVE SMOOTH",
"1262 626 OFFCURVE",
"1286 679 OFFCURVE",
"1286 750 CURVE SMOOTH",
"1286 817 OFFCURVE",
"1261 870 OFFCURVE",
"1221 907 CURVE SMOOTH",
"1180 943 OFFCURVE",
"1123 963 OFFCURVE",
"1059 963 CURVE SMOOTH",
"992 963 OFFCURVE",
"937 943 OFFCURVE",
"898 906 CURVE SMOOTH",
"858 869 OFFCURVE",
"836 816 OFFCURVE",
"836 748 CURVE SMOOTH",
"836 679 OFFCURVE",
"858 624 OFFCURVE",
"898 587 CURVE SMOOTH",
"937 550 OFFCURVE",
"992 530 OFFCURVE",
"1059 530 CURVE SMOOTH"
);
},
{
closed = 1;
nodes = (
"992 645 OFFCURVE",
"956 681 OFFCURVE",
"956 748 CURVE SMOOTH",
"956 812 OFFCURVE",
"999 850 OFFCURVE",
"1059 850 CURVE SMOOTH",
"1119 850 OFFCURVE",
"1161 812 OFFCURVE",
"1161 748 CURVE SMOOTH",
"1161 681 OFFCURVE",
"1120 645 OFFCURVE",
"1059 645 CURVE SMOOTH"
);
}
);
width = 1331;
}
);
note = uniA500;
unicode = A500;
},
{
glyphname = uniA501;
lastChange = "2016-11-10 14:41:34 +0000";
layers = (
{
layerId = "ADED0D52-FD26-4FEF-A6A9-DB4FC8BB207A";
paths = (
{
closed = 1;
nodes = (
"1204 0 LINE",
"1204 141 LINE",
"791 141 LINE",
"791 246 LINE",
"1204 246 LINE",
"1204 387 LINE",
"791 387 LINE",
"791 1075 LINE",
"1204 1075 LINE",
"1204 1217 LINE",
"791 1217 LINE",
"791 1321 LINE",
"1204 1321 LINE",
"1204 1462 LINE",
"217 1462 LINE",
"217 1321 LINE",
"631 1321 LINE",
"631 1217 LINE",
"217 1217 LINE",
"217 1075 LINE",
"631 1075 LINE",
"631 387 LINE",
"217 387 LINE",
"217 246 LINE",
"631 246 LINE",
"631 141 LINE",
"217 141 LINE",
"217 0 LINE"
);
},
{
closed = 1;
nodes = (
"378 530 OFFCURVE",
"436 550 OFFCURVE",
"477 588 CURVE SMOOTH",
"517 626 OFFCURVE",
"541 679 OFFCURVE",
"541 750 CURVE SMOOTH",
"541 817 OFFCURVE",
"516 870 OFFCURVE",
"476 907 CURVE SMOOTH",
"435 943 OFFCURVE",
"377 963 OFFCURVE",
"313 963 CURVE SMOOTH",
"246 963 OFFCURVE",
"191 943 OFFCURVE",
"152 906 CURVE SMOOTH",
"112 869 OFFCURVE",
"90 816 OFFCURVE",
"90 748 CURVE SMOOTH",
"90 679 OFFCURVE",
"112 624 OFFCURVE",
"152 587 CURVE SMOOTH",
"191 550 OFFCURVE",
"246 530 OFFCURVE",
"313 530 CURVE SMOOTH"
);
},
{
closed = 1;
nodes = (
"248 645 OFFCURVE",
"211 681 OFFCURVE",
"211 748 CURVE SMOOTH",
"211 812 OFFCURVE",
"253 850 OFFCURVE",
"313 850 CURVE SMOOTH",
"373 850 OFFCURVE",
"416 812 OFFCURVE",
"416 748 CURVE SMOOTH",
"416 681 OFFCURVE",
"376 645 OFFCURVE",
"313 645 CURVE SMOOTH"
);
},
{
closed = 1;
nodes = (
"1169 530 OFFCURVE",
"1226 550 OFFCURVE",
"1267 588 CURVE SMOOTH",
"1307 626 OFFCURVE",
"1331 679 OFFCURVE",
"1331 750 CURVE SMOOTH",
"1331 817 OFFCURVE",
"1306 870 OFFCURVE",
"1266 907 CURVE SMOOTH",
"1225 943 OFFCURVE",
"1168 963 OFFCURVE",
"1104 963 CURVE SMOOTH",
"1037 963 OFFCURVE",
"982 943 OFFCURVE",
"943 906 CURVE SMOOTH",
"903 869 OFFCURVE",
"881 816 OFFCURVE",
"881 748 CURVE SMOOTH",
"881 679 OFFCURVE",
"903 624 OFFCURVE",
"943 587 CURVE SMOOTH",
"982 550 OFFCURVE",
"1037 530 OFFCURVE",
"1104 530 CURVE SMOOTH"
);
},
{
closed = 1;
nodes = (
"1037 645 OFFCURVE",
"1001 681 OFFCURVE",
"1001 748 CURVE SMOOTH",
"1001 812 OFFCURVE",
"1044 850 OFFCURVE",
"1104 850 CURVE SMOOTH",
"1164 850 OFFCURVE",
"1206 812 OFFCURVE",
"1206 748 CURVE SMOOTH",
"1206 681 OFFCURVE",
"1165 645 OFFCURVE",
"1104 645 CURVE SMOOTH"
);
}
);
width = 1421;
}
);
note = uniA501;
unicode = A501;
},
{
glyphname = uniA502;
lastChange = "2016-11-10 14:40:37 +0000";
layers = (
{
layerId = "ADED0D52-FD26-4FEF-A6A9-DB4FC8BB207A";
paths = (
{
closed = 1;
nodes = (
"973 -8 LINE",
"1010 -16 OFFCURVE",
"1049 -23 OFFCURVE",
"1092 -23 CURVE SMOOTH",
"1192 -23 OFFCURVE",
"1284 13 OFFCURVE",
"1360 78 CURVE SMOOTH",
"1435 143 OFFCURVE",
"1493 236 OFFCURVE",
"1528 352 CURVE",
"1391 387 LINE",
"1340 216 OFFCURVE",
"1240 117 OFFCURVE",
"1092 117 CURVE SMOOTH",
"1083 117 OFFCURVE",
"1076 117 OFFCURVE",
"1069 117 CURVE SMOOTH",
"1062 117 OFFCURVE",
"1054 118 OFFCURVE",
"1047 119 CURVE",
"1260 485 LINE",
"1130 559 LINE",
"915 190 LINE",
"876 237 OFFCURVE",
"854 301 OFFCURVE",
"854 381 CURVE SMOOTH",
"854 528 OFFCURVE",
"913 698 OFFCURVE",
"1006 875 CURVE SMOOTH",
"1098 1052 OFFCURVE",
"1225 1236 OFFCURVE",
"1360 1411 CURVE",
"1229 1485 LINE",
"1108 1328 OFFCURVE",
"996 1167 OFFCURVE",
"905 1010 CURVE",
"862 1019 OFFCURVE",
"826 1044 OFFCURVE",
"800 1086 CURVE SMOOTH",
"774 1128 OFFCURVE",
"758 1189 OFFCURVE",
"758 1272 CURVE SMOOTH",
"758 1462 LINE",
"598 1462 LINE",
"598 1276 LINE SMOOTH",
"598 1177 OFFCURVE",
"576 1110 OFFCURVE",
"544 1067 CURVE SMOOTH",
"511 1024 OFFCURVE",
"465 1006 OFFCURVE",
"420 1006 CURVE SMOOTH",
"301 1006 OFFCURVE",
"227 1106 OFFCURVE",
"227 1317 CURVE SMOOTH",
"227 1462 LINE",
"68 1462 LINE",
"68 1317 LINE SMOOTH",
"68 1146 OFFCURVE",
"100 1035 OFFCURVE",
"157 966 CURVE SMOOTH",
"213 897 OFFCURVE",
"293 870 OFFCURVE",
"389 870 CURVE SMOOTH",
"442 870 OFFCURVE",
"498 881 OFFCURVE",
"547 910 CURVE SMOOTH",
"595 939 OFFCURVE",
"639 984 OFFCURVE",
"670 1055 CURVE",
"678 1055 LINE",
"707 956 OFFCURVE",
"771 905 OFFCURVE",
"838 885 CURVE",
"747 706 OFFCURVE",
"694 533 OFFCURVE",
"694 381 CURVE SMOOTH",
"694 236 OFFCURVE",
"745 126 OFFCURVE",
"838 55 CURVE",
"745 -104 LINE",
"874 -178 LINE"
);
}
);
width = 1595;
}
);
note = uniA502;
unicode = A502;
},
{
glyphname = uniA503;
lastChange = "2016-11-10 14:41:34 +0000";
layers = (
{
layerId = "ADED0D52-FD26-4FEF-A6A9-DB4FC8BB207A";
paths = (
{
closed = 1;
nodes = (
"1688 0 LINE",
"1688 141 LINE",
"1376 141 LINE",
"1376 1053 LINE",
"1217 1053 LINE",
"1189 1008 OFFCURVE",
"1122 970 OFFCURVE",
"1045 943 CURVE SMOOTH",
"968 915 OFFCURVE",
"882 899 OFFCURVE",
"815 899 CURVE SMOOTH",
"740 899 OFFCURVE",
"672 899 OFFCURVE",
"621 920 CURVE SMOOTH",
"570 941 OFFCURVE",
"539 984 OFFCURVE",
"539 1069 CURVE SMOOTH",
"539 1321 LINE",
"850 1321 LINE",
"850 1462 LINE",
"68 1462 LINE",
"68 1321 LINE",
"379 1321 LINE",
"379 1067 LINE SMOOTH",
"379 944 OFFCURVE",
"416 872 OFFCURVE",
"475 828 CURVE SMOOTH",
"534 783 OFFCURVE",
"616 767 OFFCURVE",
"705 760 CURVE",
"705 471 LINE",
"1217 471 LINE",
"1217 141 LINE",
"905 141 LINE",
"905 0 LINE"
);
},
{
closed = 1;
nodes = (
"864 762 LINE",
"1011 777 OFFCURVE",
"1125 808 OFFCURVE",
"1208 872 CURVE",
"1217 872 LINE",
"1217 612 LINE",
"864 612 LINE"
);
}
);
width = 1755;
}
);
note = uniA503;
unicode = A503;
},
{
glyphname = uniA504;
lastChange = "2016-11-10 14:41:34 +0000";
layers = (
{
layerId = "ADED0D52-FD26-4FEF-A6A9-DB4FC8BB207A";
paths = (
{
closed = 1;
nodes = (
"1688 0 LINE",
"1688 141 LINE",
"1376 141 LINE",
"1376 246 LINE",
"1688 246 LINE",
"1688 387 LINE",
"1376 387 LINE",
"1376 1053 LINE",
"1217 1053 LINE",
"1189 1008 OFFCURVE",
"1122 970 OFFCURVE",
"1045 943 CURVE SMOOTH",
"968 915 OFFCURVE",
"882 899 OFFCURVE",
"815 899 CURVE SMOOTH",
"740 899 OFFCURVE",
"672 899 OFFCURVE",
"621 921 CURVE SMOOTH",
"570 943 OFFCURVE",
"539 987 OFFCURVE",
"539 1075 CURVE",
"850 1075 LINE",
"850 1217 LINE",
"539 1217 LINE",
"539 1321 LINE",
"850 1321 LINE",
"850 1462 LINE",
"68 1462 LINE",
"68 1321 LINE",
"379 1321 LINE",
"379 1217 LINE",
"68 1217 LINE",
"68 1075 LINE",
"379 1075 LINE",
"379 950 OFFCURVE",
"416 874 OFFCURVE",
"475 829 CURVE SMOOTH",
"534 784 OFFCURVE",
"616 767 OFFCURVE",
"705 760 CURVE",
"705 471 LINE",
"1217 471 LINE",
"1217 387 LINE",
"905 387 LINE",
"905 246 LINE",
"1217 246 LINE",
"1217 141 LINE",
"905 141 LINE",
"905 0 LINE"
);
},
{
closed = 1;
nodes = (
"864 762 LINE",
"1011 777 OFFCURVE",
"1125 808 OFFCURVE",
"1208 872 CURVE",
"1217 872 LINE",
"1217 612 LINE",
"864 612 LINE"
);
}
);
width = 1755;
}
);
note = uniA504;
unicode = A504;
},
{
glyphname = uniA505;
lastChange = "2016-11-10 14:41:34 +0000";
layers = (
{
layerId = "ADED0D52-FD26-4FEF-A6A9-DB4FC8BB207A";
paths = (
{
closed = 1;
nodes = (
"1002 -20 OFFCURVE",
"1092 16 OFFCURVE",
"1159 80 CURVE SMOOTH",
"1226 143 OFFCURVE",
"1268 232 OFFCURVE",
"1268 340 CURVE SMOOTH",
"1268 433 OFFCURVE",
"1235 516 OFFCURVE",
"1182 577 CURVE SMOOTH",
"1129 638 OFFCURVE",
"1054 679 OFFCURVE",
"971 694 CURVE",
"971 1042 LINE",
"1016 1042 LINE",
"1033 955 OFFCURVE",
"1079 884 OFFCURVE",
"1143 834 CURVE SMOOTH",
"1206 784 OFFCURVE",
"1287 756 OFFCURVE",
"1374 756 CURVE SMOOTH",
"1473 756 OFFCURVE",
"1563 792 OFFCURVE",
"1630 856 CURVE SMOOTH",
"1697 919 OFFCURVE",
"1739 1008 OFFCURVE",
"1739 1116 CURVE SMOOTH",
"1739 1224 OFFCURVE",
"1697 1314 OFFCURVE",
"1630 1378 CURVE SMOOTH",
"1563 1441 OFFCURVE",
"1473 1477 OFFCURVE",
"1374 1477 CURVE SMOOTH",
"1286 1477 OFFCURVE",
"1204 1448 OFFCURVE",
"1141 1397 CURVE SMOOTH",
"1077 1345 OFFCURVE",
"1032 1272 OFFCURVE",
"1016 1184 CURVE",
"791 1184 LINE",
"775 1272 OFFCURVE",
"729 1345 OFFCURVE",
"665 1397 CURVE SMOOTH",
"601 1448 OFFCURVE",
"519 1477 OFFCURVE",
"432 1477 CURVE SMOOTH",
"333 1477 OFFCURVE",
"243 1441 OFFCURVE",
"177 1378 CURVE SMOOTH",
"111 1314 OFFCURVE",
"68 1224 OFFCURVE",
"68 1116 CURVE SMOOTH",
"68 1008 OFFCURVE",
"111 919 OFFCURVE",
"177 856 CURVE SMOOTH",
"243 792 OFFCURVE",
"333 756 OFFCURVE",
"432 756 CURVE SMOOTH",
"517 756 OFFCURVE",
"599 784 OFFCURVE",
"663 834 CURVE SMOOTH",
"726 884 OFFCURVE",
"772 955 OFFCURVE",
"788 1042 CURVE",
"829 1042 LINE",
"829 692 LINE",
"748 677 OFFCURVE",
"675 635 OFFCURVE",
"623 575 CURVE SMOOTH",
"571 514 OFFCURVE",
"539 433 OFFCURVE",
"539 340 CURVE SMOOTH",
"539 232 OFFCURVE",
"582 143 OFFCURVE",
"648 80 CURVE SMOOTH",
"714 16 OFFCURVE",
"804 -20 OFFCURVE",
"903 -20 CURVE SMOOTH"
);
},
{
closed = 1;
nodes = (
"848 115 OFFCURVE",
"798 137 OFFCURVE",
"759 177 CURVE SMOOTH",
"720 216 OFFCURVE",
"696 272 OFFCURVE",
"696 340 CURVE SMOOTH",
"696 408 OFFCURVE",
"720 464 OFFCURVE",
"759 504 CURVE SMOOTH",
"798 543 OFFCURVE",
"848 565 OFFCURVE",
"903 565 CURVE SMOOTH",
"956 565 OFFCURVE",
"1009 543 OFFCURVE",
"1047 504 CURVE SMOOTH",
"1085 464 OFFCURVE",
"1110 408 OFFCURVE",
"1110 340 CURVE SMOOTH",
"1110 272 OFFCURVE",
"1085 216 OFFCURVE",
"1047 177 CURVE SMOOTH",
"1009 137 OFFCURVE",
"956 115 OFFCURVE",
"903 115 CURVE SMOOTH"
);
},
{
closed = 1;
nodes = (
"377 891 OFFCURVE",
"327 913 OFFCURVE",
"288 953 CURVE SMOOTH",
"249 992 OFFCURVE",
"225 1048 OFFCURVE",
"225 1116 CURVE SMOOTH",
"225 1184 OFFCURVE",
"249 1240 OFFCURVE",
"288 1280 CURVE SMOOTH",
"327 1319 OFFCURVE",
"377 1341 OFFCURVE",
"432 1341 CURVE SMOOTH",
"485 1341 OFFCURVE",
"538 1319 OFFCURVE",
"576 1280 CURVE SMOOTH",
"614 1240 OFFCURVE",
"639 1184 OFFCURVE",
"639 1116 CURVE SMOOTH",
"639 1048 OFFCURVE",
"614 992 OFFCURVE",
"576 953 CURVE SMOOTH",
"538 913 OFFCURVE",
"485 891 OFFCURVE",
"432 891 CURVE SMOOTH"
);
},
{
closed = 1;
nodes = (
"1319 891 OFFCURVE",
"1269 913 OFFCURVE",
"1230 953 CURVE SMOOTH",
"1191 992 OFFCURVE",
"1167 1048 OFFCURVE",
"1167 1116 CURVE SMOOTH",
"1167 1184 OFFCURVE",
"1191 1240 OFFCURVE",
"1230 1280 CURVE SMOOTH",
"1269 1319 OFFCURVE",
"1319 1341 OFFCURVE",
"1374 1341 CURVE SMOOTH",
"1427 1341 OFFCURVE",
"1480 1319 OFFCURVE",
"1518 1280 CURVE SMOOTH",
"1556 1240 OFFCURVE",
"1581 1184 OFFCURVE",
"1581 1116 CURVE SMOOTH",
"1581 1048 OFFCURVE",
"1556 992 OFFCURVE",
"1518 953 CURVE SMOOTH",
"1480 913 OFFCURVE",
"1427 891 OFFCURVE",
"1374 891 CURVE SMOOTH"
);
}
);
width = 1806;
}
);
note = uniA505;
unicode = A505;
},
{
glyphname = uniA506;
lastChange = "2016-11-10 14:41:34 +0000";
layers = (
{
layerId = "ADED0D52-FD26-4FEF-A6A9-DB4FC8BB207A";
paths = (
{
closed = 1;
nodes = (
"519 -20 OFFCURVE",
"601 8 OFFCURVE",
"665 59 CURVE SMOOTH",
"729 110 OFFCURVE",
"775 183 OFFCURVE",
"791 272 CURVE",
"1425 272 LINE",
"1441 183 OFFCURVE",
"1486 110 OFFCURVE",
"1550 59 CURVE SMOOTH",
"1614 8 OFFCURVE",
"1696 -20 OFFCURVE",
"1784 -20 CURVE SMOOTH",
"1881 -20 OFFCURVE",
"1974 16 OFFCURVE",
"2040 80 CURVE SMOOTH",
"2106 143 OFFCURVE",
"2148 232 OFFCURVE",
"2148 340 CURVE SMOOTH",
"2148 448 OFFCURVE",
"2106 537 OFFCURVE",
"2040 601 CURVE SMOOTH",
"1974 664 OFFCURVE",
"1881 700 OFFCURVE",
"1784 700 CURVE SMOOTH",
"1697 700 OFFCURVE",
"1616 673 OFFCURVE",
"1553 623 CURVE SMOOTH",
"1489 573 OFFCURVE",
"1442 501 OFFCURVE",
"1425 414 CURVE",
"1176 414 LINE",
"1176 762 LINE",
"1259 777 OFFCURVE",
"1333 818 OFFCURVE",
"1387 879 CURVE SMOOTH",
"1441 939 OFFCURVE",
"1473 1021 OFFCURVE",
"1473 1116 CURVE SMOOTH",
"1473 1224 OFFCURVE",
"1431 1314 OFFCURVE",
"1364 1378 CURVE SMOOTH",
"1297 1441 OFFCURVE",
"1207 1477 OFFCURVE",
"1108 1477 CURVE SMOOTH",
"1009 1477 OFFCURVE",
"919 1441 OFFCURVE",
"852 1378 CURVE SMOOTH",
"785 1314 OFFCURVE",
"743 1224 OFFCURVE",
"743 1116 CURVE SMOOTH",
"743 1021 OFFCURVE",
"775 942 OFFCURVE",
"827 881 CURVE SMOOTH",
"879 820 OFFCURVE",
"951 778 OFFCURVE",
"1034 762 CURVE",
"1034 414 LINE",
"788 414 LINE",
"772 501 OFFCURVE",
"726 573 OFFCURVE",
"663 623 CURVE SMOOTH",
"599 673 OFFCURVE",
"517 700 OFFCURVE",
"432 700 CURVE SMOOTH",
"333 700 OFFCURVE",
"243 664 OFFCURVE",
"177 601 CURVE SMOOTH",
"111 537 OFFCURVE",
"68 448 OFFCURVE",
"68 340 CURVE SMOOTH",
"68 232 OFFCURVE",
"111 143 OFFCURVE",
"177 80 CURVE SMOOTH",
"243 16 OFFCURVE",
"333 -20 OFFCURVE",
"432 -20 CURVE SMOOTH"
);
},
{
closed = 1;
nodes = (
"377 115 OFFCURVE",
"327 137 OFFCURVE",
"288 177 CURVE SMOOTH",
"249 216 OFFCURVE",
"225 272 OFFCURVE",
"225 340 CURVE SMOOTH",
"225 408 OFFCURVE",
"249 464 OFFCURVE",
"288 504 CURVE SMOOTH",
"327 543 OFFCURVE",
"377 565 OFFCURVE",
"432 565 CURVE SMOOTH",
"485 565 OFFCURVE",
"538 543 OFFCURVE",
"576 504 CURVE SMOOTH",
"614 464 OFFCURVE",
"639 408 OFFCURVE",
"639 340 CURVE SMOOTH",
"639 272 OFFCURVE",
"614 216 OFFCURVE",
"576 177 CURVE SMOOTH",
"538 137 OFFCURVE",
"485 115 OFFCURVE",
"432 115 CURVE SMOOTH"
);
},
{
closed = 1;
nodes = (
"931 539 OFFCURVE",
"971 574 OFFCURVE",
"971 641 CURVE SMOOTH",
"971 705 OFFCURVE",
"928 743 OFFCURVE",
"868 743 CURVE SMOOTH",
"808 743 OFFCURVE",
"766 705 OFFCURVE",
"766 641 CURVE SMOOTH",
"766 574 OFFCURVE",
"803 539 OFFCURVE",
"868 539 CURVE SMOOTH"
);
},
{
closed = 1;
nodes = (
"1407 539 OFFCURVE",
"1448 574 OFFCURVE",
"1448 641 CURVE SMOOTH",
"1448 705 OFFCURVE",
"1406 743 OFFCURVE",
"1346 743 CURVE SMOOTH",
"1286 743 OFFCURVE",
"1243 705 OFFCURVE",
"1243 641 CURVE SMOOTH",
"1243 574 OFFCURVE",
"1279 539 OFFCURVE",
"1346 539 CURVE SMOOTH"
);
},
{
closed = 1;
nodes = (
"1729 115 OFFCURVE",
"1678 137 OFFCURVE",
"1640 177 CURVE SMOOTH",
"1602 216 OFFCURVE",
"1577 272 OFFCURVE",
"1577 340 CURVE SMOOTH",
"1577 408 OFFCURVE",
"1602 464 OFFCURVE",
"1640 504 CURVE SMOOTH",
"1678 543 OFFCURVE",
"1729 565 OFFCURVE",
"1784 565 CURVE SMOOTH",
"1837 565 OFFCURVE",
"1888 543 OFFCURVE",
"1927 504 CURVE SMOOTH",
"1966 464 OFFCURVE",
"1991 408 OFFCURVE",
"1991 340 CURVE SMOOTH",
"1991 272 OFFCURVE",
"1966 216 OFFCURVE",
"1927 177 CURVE SMOOTH",
"1888 137 OFFCURVE",
"1837 115 OFFCURVE",
"1784 115 CURVE SMOOTH"
);
},
{
closed = 1;
nodes = (
"1053 891 OFFCURVE",
"1002 913 OFFCURVE",
"964 953 CURVE SMOOTH",
"926 992 OFFCURVE",
"901 1048 OFFCURVE",
"901 1116 CURVE SMOOTH",
"901 1184 OFFCURVE",
"926 1240 OFFCURVE",
"964 1280 CURVE SMOOTH",
"1002 1319 OFFCURVE",
"1053 1341 OFFCURVE",
"1108 1341 CURVE SMOOTH",
"1161 1341 OFFCURVE",
"1212 1319 OFFCURVE",
"1251 1280 CURVE SMOOTH",
"1290 1240 OFFCURVE",
"1315 1184 OFFCURVE",
"1315 1116 CURVE SMOOTH",
"1315 1048 OFFCURVE",
"1290 992 OFFCURVE",
"1251 953 CURVE SMOOTH",
"1212 913 OFFCURVE",
"1161 891 OFFCURVE",
"1108 891 CURVE SMOOTH"
);
}
);
width = 2216;
}
);
note = uniA506;
unicode = A506;
},
{
glyphname = uniA507;
lastChange = "2016-11-10 14:41:34 +0000";
layers = (
{
layerId = "ADED0D52-FD26-4FEF-A6A9-DB4FC8BB207A";
paths = (
{
closed = 1;
nodes = (
"1460 0 LINE",
"1460 141 LINE",
"1149 141 LINE",
"1149 1462 LINE",
"989 1462 LINE",
"980 1406 OFFCURVE",
"945 1327 OFFCURVE",
"893 1247 CURVE SMOOTH",
"841 1167 OFFCURVE",
"774 1084 OFFCURVE",
"699 1023 CURVE SMOOTH",
"624 962 OFFCURVE",
"544 920 OFFCURVE",
"465 920 CURVE SMOOTH",
"390 920 OFFCURVE",
"336 948 OFFCURVE",
"301 991 CURVE SMOOTH",
"265 1034 OFFCURVE",
"248 1091 OFFCURVE",
"248 1151 CURVE SMOOTH",
"248 1198 OFFCURVE",
"257 1238 OFFCURVE",
"277 1277 CURVE SMOOTH",
"296 1316 OFFCURVE",
"326 1353 OFFCURVE",
"369 1393 CURVE",
"274 1483 LINE",
"163 1400 OFFCURVE",
"90 1285 OFFCURVE",
"90 1149 CURVE SMOOTH",
"90 1020 OFFCURVE",
"140 928 OFFCURVE",
"209 868 CURVE SMOOTH",
"278 808 OFFCURVE",
"367 780 OFFCURVE",
"446 780 CURVE SMOOTH",
"563 780 OFFCURVE",
"665 820 OFFCURVE",
"753 890 CURVE SMOOTH",
"841 960 OFFCURVE",
"916 1060 OFFCURVE",
"981 1180 CURVE",
"989 1180 LINE",
"989 141 LINE",
"678 141 LINE",
"678 0 LINE"
);
}
);
width = 1505;
}
);
note = uniA507;
unicode = A507;
},
{
glyphname = uniA508;
lastChange = "2016-11-10 14:41:34 +0000";
layers = (
{
layerId = "ADED0D52-FD26-4FEF-A6A9-DB4FC8BB207A";
paths = (
{
closed = 1;
nodes = (
"1460 0 LINE",
"1460 141 LINE",
"1149 141 LINE",
"1149 1462 LINE",
"989 1462 LINE",
"980 1406 OFFCURVE",
"945 1327 OFFCURVE",
"893 1247 CURVE SMOOTH",
"841 1167 OFFCURVE",
"774 1084 OFFCURVE",
"699 1023 CURVE SMOOTH",
"624 962 OFFCURVE",
"544 920 OFFCURVE",
"465 920 CURVE SMOOTH",
"390 920 OFFCURVE",
"336 948 OFFCURVE",
"301 991 CURVE SMOOTH",
"265 1034 OFFCURVE",
"248 1091 OFFCURVE",
"248 1151 CURVE SMOOTH",
"248 1198 OFFCURVE",
"257 1238 OFFCURVE",
"277 1277 CURVE SMOOTH",
"296 1316 OFFCURVE",
"326 1353 OFFCURVE",
"369 1393 CURVE",
"274 1483 LINE",
"163 1400 OFFCURVE",
"90 1285 OFFCURVE",
"90 1149 CURVE SMOOTH",
"90 1020 OFFCURVE",
"140 928 OFFCURVE",
"209 868 CURVE SMOOTH",
"278 808 OFFCURVE",
"367 780 OFFCURVE",
"446 780 CURVE SMOOTH",
"563 780 OFFCURVE",
"665 820 OFFCURVE",
"753 890 CURVE SMOOTH",
"841 960 OFFCURVE",
"916 1060 OFFCURVE",
"981 1180 CURVE",
"989 1180 LINE",
"989 141 LINE",
"678 141 LINE",
"678 0 LINE"
);
},
{
closed = 1;
nodes = (
"862 461 OFFCURVE",
"903 498 OFFCURVE",
"903 563 CURVE SMOOTH",
"903 627 OFFCURVE",
"861 666 OFFCURVE",
"801 666 CURVE SMOOTH",
"741 666 OFFCURVE",
"698 627 OFFCURVE",
"698 563 CURVE SMOOTH",
"698 498 OFFCURVE",
"734 461 OFFCURVE",
"801 461 CURVE SMOOTH"
);
},
{
closed = 1;
nodes = (
"1400 461 OFFCURVE",
"1440 498 OFFCURVE",
"1440 563 CURVE SMOOTH",
"1440 627 OFFCURVE",
"1397 666 OFFCURVE",
"1337 666 CURVE SMOOTH",
"1277 666 OFFCURVE",
"1235 627 OFFCURVE",
"1235 563 CURVE SMOOTH",
"1235 498 OFFCURVE",
"1272 461 OFFCURVE",
"1337 461 CURVE SMOOTH"
);
}
);
width = 1505;
}
);
note = uniA508;
unicode = A508;
},
{
glyphname = uniA509;
lastChange = "2016-11-10 14:41:34 +0000";
layers = (
{
layerId = "ADED0D52-FD26-4FEF-A6A9-DB4FC8BB207A";
paths = (
{
closed = 1;
nodes = (
"764 0 LINE",
"764 1321 LINE",
"1300 1321 LINE",
"1300 1462 LINE",
"68 1462 LINE",
"68 1321 LINE",
"604 1321 LINE",
"604 0 LINE"
);
},
{
closed = 1;
nodes = (
"411 666 OFFCURVE",
"451 701 OFFCURVE",
"451 768 CURVE SMOOTH",
"451 832 OFFCURVE",
"408 870 OFFCURVE",
"348 870 CURVE SMOOTH",
"288 870 OFFCURVE",
"246 832 OFFCURVE",
"246 768 CURVE SMOOTH",
"246 701 OFFCURVE",
"283 666 OFFCURVE",
"348 666 CURVE SMOOTH"
);
},
{
closed = 1;
nodes = (
"1077 666 OFFCURVE",
"1118 701 OFFCURVE",
"1118 768 CURVE SMOOTH",
"1118 832 OFFCURVE",
"1076 870 OFFCURVE",
"1016 870 CURVE SMOOTH",
"956 870 OFFCURVE",
"913 832 OFFCURVE",
"913 768 CURVE SMOOTH",
"913 701 OFFCURVE",
"949 666 OFFCURVE",
"1016 666 CURVE SMOOTH"
);
}
);
width = 1368;
}
);
note = uniA509;
unicode = A509;
},
{
glyphname = uniA50A;
lastChange = "2016-11-10 14:41:34 +0000";
layers = (
{
layerId = "ADED0D52-FD26-4FEF-A6A9-DB4FC8BB207A";
paths = (
{
closed = 1;
nodes = (
"764 0 LINE",
"764 362 LINE",
"1157 362 LINE",
"1157 504 LINE",
"764 504 LINE",
"764 1321 LINE",
"1300 1321 LINE",
"1300 1462 LINE",
"68 1462 LINE",
"68 1321 LINE",
"604 1321 LINE",
"604 504 LINE",
"211 504 LINE",
"211 362 LINE",
"604 362 LINE",
"604 0 LINE"
);
},
{
closed = 1;
nodes = (
"411 666 OFFCURVE",
"451 701 OFFCURVE",
"451 768 CURVE SMOOTH",
"451 832 OFFCURVE",
"408 870 OFFCURVE",
"348 870 CURVE SMOOTH",
"288 870 OFFCURVE",
"246 832 OFFCURVE",
"246 768 CURVE SMOOTH",
"246 701 OFFCURVE",
"283 666 OFFCURVE",
"348 666 CURVE SMOOTH"
);
},
{
closed = 1;
nodes = (
"1077 666 OFFCURVE",
"1118 701 OFFCURVE",
"1118 768 CURVE SMOOTH",
"1118 832 OFFCURVE",
"1076 870 OFFCURVE",
"1016 870 CURVE SMOOTH",
"956 870 OFFCURVE",
"913 832 OFFCURVE",
"913 768 CURVE SMOOTH",
"913 701 OFFCURVE",
"949 666 OFFCURVE",
"1016 666 CURVE SMOOTH"
);
}
);
width = 1368;
}
);
note = uniA50A;
unicode = A50A;
},
{
glyphname = uniA50B;
lastChange = "2016-11-10 14:41:34 +0000";
layers = (
{
layerId = "ADED0D52-FD26-4FEF-A6A9-DB4FC8BB207A";
paths = (
{
closed = 1;
nodes = (
"764 0 LINE",
"764 1321 LINE",
"1300 1321 LINE",
"1300 1462 LINE",
"68 1462 LINE",
"68 1321 LINE",
"604 1321 LINE",
"604 0 LINE"
);
}
);
width = 1368;
}
);
note = uniA50B;
unicode = A50B;
},
{
glyphname = uniA50C;
lastChange = "2016-11-10 14:41:34 +0000";
layers = (
{
layerId = "ADED0D52-FD26-4FEF-A6A9-DB4FC8BB207A";
paths = (
{
closed = 1;
nodes = (
"946 0 LINE",
"946 141 LINE",
"635 141 LINE",
"635 592 LINE",
"738 608 OFFCURVE",
"829 656 OFFCURVE",
"895 731 CURVE SMOOTH",
"961 806 OFFCURVE",
"1001 905 OFFCURVE",
"1001 1028 CURVE SMOOTH",
"1001 1161 OFFCURVE",
"948 1275 OFFCURVE",
"866 1354 CURVE SMOOTH",
"784 1433 OFFCURVE",
"673 1479 OFFCURVE",
"557 1479 CURVE SMOOTH",
"441 1479 OFFCURVE",
"330 1433 OFFCURVE",
"248 1354 CURVE SMOOTH",
"166 1275 OFFCURVE",
"113 1161 OFFCURVE",
"113 1028 CURVE SMOOTH",
"113 907 OFFCURVE",
"151 807 OFFCURVE",
"215 732 CURVE SMOOTH",
"279 657 OFFCURVE",
"370 608 OFFCURVE",
"475 592 CURVE",
"475 141 LINE",
"164 141 LINE",
"164 0 LINE"
);
},
{
closed = 1;
nodes = (
"478 725 OFFCURVE",
"407 754 OFFCURVE",
"356 807 CURVE SMOOTH",
"304 859 OFFCURVE",
"272 935 OFFCURVE",
"272 1028 CURVE SMOOTH",
"272 1121 OFFCURVE",
"307 1198 OFFCURVE",
"360 1253 CURVE SMOOTH",
"413 1308 OFFCURVE",
"485 1339 OFFCURVE",
"557 1339 CURVE SMOOTH",
"629 1339 OFFCURVE",
"700 1308 OFFCURVE",
"753 1253 CURVE SMOOTH",
"806 1198 OFFCURVE",
"842 1121 OFFCURVE",
"842 1028 CURVE SMOOTH",
"842 935 OFFCURVE",
"808 859 OFFCURVE",
"756 807 CURVE SMOOTH",
"703 754 OFFCURVE",
"632 725 OFFCURVE",
"557 725 CURVE SMOOTH"
);
}
);
width = 1114;
}
);
note = uniA50C;
unicode = A50C;
},
{
glyphname = uniA50D;
lastChange = "2016-11-10 14:41:34 +0000";
layers = (
{
layerId = "ADED0D52-FD26-4FEF-A6A9-DB4FC8BB207A";
paths = (
{
closed = 1;
nodes = (
"946 0 LINE",
"946 141 LINE",
"635 141 LINE",
"635 246 LINE",
"946 246 LINE",
"946 387 LINE",
"635 387 LINE",
"635 592 LINE",
"738 608 OFFCURVE",
"829 656 OFFCURVE",
"895 731 CURVE SMOOTH",
"961 806 OFFCURVE",
"1001 905 OFFCURVE",
"1001 1028 CURVE SMOOTH",
"1001 1161 OFFCURVE",
"948 1275 OFFCURVE",
"866 1354 CURVE SMOOTH",
"784 1433 OFFCURVE",
"673 1479 OFFCURVE",
"557 1479 CURVE SMOOTH",
"441 1479 OFFCURVE",
"330 1433 OFFCURVE",
"248 1354 CURVE SMOOTH",
"166 1275 OFFCURVE",
"113 1161 OFFCURVE",
"113 1028 CURVE SMOOTH",
"113 907 OFFCURVE",
"151 807 OFFCURVE",
"215 732 CURVE SMOOTH",
"279 657 OFFCURVE",
"370 608 OFFCURVE",
"475 592 CURVE",
"475 387 LINE",
"164 387 LINE",
"164 246 LINE",
"475 246 LINE",
"475 141 LINE",
"164 141 LINE",
"164 0 LINE"
);
},
{
closed = 1;
nodes = (
"478 725 OFFCURVE",
"407 754 OFFCURVE",
"356 807 CURVE SMOOTH",
"304 859 OFFCURVE",
"272 935 OFFCURVE",
"272 1028 CURVE SMOOTH",
"272 1121 OFFCURVE",
"307 1198 OFFCURVE",
"360 1253 CURVE SMOOTH",
"413 1308 OFFCURVE",
"485 1339 OFFCURVE",
"557 1339 CURVE SMOOTH",
"629 1339 OFFCURVE",
"700 1308 OFFCURVE",
"753 1253 CURVE SMOOTH",
"806 1198 OFFCURVE",
"842 1121 OFFCURVE",
"842 1028 CURVE SMOOTH",
"842 935 OFFCURVE",
"808 859 OFFCURVE",
"756 807 CURVE SMOOTH",
"703 754 OFFCURVE",
"632 725 OFFCURVE",
"557 725 CURVE SMOOTH"
);
}
);
width = 1114;
}
);
note = uniA50D;
unicode = A50D;
},
{
glyphname = uniA50E;
lastChange = "2016-11-10 14:40:37 +0000";
layers = (
{
layerId = "ADED0D52-FD26-4FEF-A6A9-DB4FC8BB207A";
paths = (
{
closed = 1;
nodes = (
"1735 0 LINE",
"1735 141 LINE",
"1335 141 LINE",
"1335 604 LINE",
"1735 604 LINE",
"1735 743 LINE",
"1335 743 LINE",
"1335 1462 LINE",
"1176 1462 LINE",
"1176 1321 LINE SMOOTH",
"1176 1213 OFFCURVE",
"1157 1135 OFFCURVE",
"1125 1083 CURVE SMOOTH",
"1093 1031 OFFCURVE",
"1047 1006 OFFCURVE",
"995 1006 CURVE SMOOTH",
"940 1006 OFFCURVE",
"893 1025 OFFCURVE",
"859 1067 CURVE SMOOTH",
"825 1109 OFFCURVE",
"803 1176 OFFCURVE",
"803 1272 CURVE SMOOTH",
"803 1462 LINE",
"643 1462 LINE",
"643 1276 LINE SMOOTH",
"643 1177 OFFCURVE",
"621 1110 OFFCURVE",
"589 1067 CURVE SMOOTH",
"556 1024 OFFCURVE",
"510 1006 OFFCURVE",
"465 1006 CURVE SMOOTH",
"346 1006 OFFCURVE",
"272 1106 OFFCURVE",
"272 1317 CURVE SMOOTH",
"272 1462 LINE",
"113 1462 LINE",
"113 1317 LINE SMOOTH",
"113 1146 OFFCURVE",
"145 1035 OFFCURVE",
"202 966 CURVE SMOOTH",
"258 897 OFFCURVE",
"338 870 OFFCURVE",
"434 870 CURVE SMOOTH",
"487 870 OFFCURVE",
"543 881 OFFCURVE",
"592 910 CURVE SMOOTH",
"640 939 OFFCURVE",
"684 984 OFFCURVE",
"715 1055 CURVE",
"723 1055 LINE",
"744 983 OFFCURVE",
"786 937 OFFCURVE",
"832 909 CURVE SMOOTH",
"878 880 OFFCURVE",
"928 870 OFFCURVE",
"969 870 CURVE SMOOTH",
"1001 870 OFFCURVE",
"1040 880 OFFCURVE",
"1076 901 CURVE SMOOTH",
"1112 922 OFFCURVE",
"1146 956 OFFCURVE",
"1167 1004 CURVE",
"1176 1004 LINE",
"1176 0 LINE"
);
}
);
width = 1870;
}
);
note = uniA50E;
unicode = A50E;
},
{
glyphname = uniA50F;
lastChange = "2016-11-10 14:40:37 +0000";
layers = (
{
layerId = "ADED0D52-FD26-4FEF-A6A9-DB4FC8BB207A";
paths = (
{
closed = 1;
nodes = (
"1735 0 LINE",
"1735 141 LINE",
"1335 141 LINE",
"1335 604 LINE",
"1735 604 LINE",
"1735 743 LINE",
"1335 743 LINE",
"1335 1194 LINE",
"1735 1194 LINE",
"1735 1333 LINE",
"1335 1333 LINE",
"1335 1462 LINE",
"1176 1462 LINE",
"1176 1321 LINE SMOOTH",
"1176 1213 OFFCURVE",
"1157 1135 OFFCURVE",
"1125 1083 CURVE SMOOTH",
"1093 1031 OFFCURVE",
"1047 1006 OFFCURVE",
"995 1006 CURVE SMOOTH",
"940 1006 OFFCURVE",
"893 1025 OFFCURVE",
"859 1067 CURVE SMOOTH",
"825 1109 OFFCURVE",
"803 1176 OFFCURVE",
"803 1272 CURVE SMOOTH",
"803 1462 LINE",
"643 1462 LINE",
"643 1276 LINE SMOOTH",
"643 1177 OFFCURVE",
"621 1110 OFFCURVE",
"589 1067 CURVE SMOOTH",
"556 1024 OFFCURVE",
"510 1006 OFFCURVE",
"465 1006 CURVE SMOOTH",
"346 1006 OFFCURVE",
"272 1106 OFFCURVE",
"272 1317 CURVE SMOOTH",
"272 1462 LINE",
"113 1462 LINE",
"113 1317 LINE SMOOTH",
"113 1146 OFFCURVE",
"145 1035 OFFCURVE",
"202 966 CURVE SMOOTH",
"258 897 OFFCURVE",
"338 870 OFFCURVE",
"434 870 CURVE SMOOTH",
"487 870 OFFCURVE",
"543 881 OFFCURVE",
"592 910 CURVE SMOOTH",
"640 939 OFFCURVE",
"684 984 OFFCURVE",
"715 1055 CURVE",
"723 1055 LINE",
"744 983 OFFCURVE",
"786 937 OFFCURVE",
"832 909 CURVE SMOOTH",
"878 880 OFFCURVE",
"928 870 OFFCURVE",
"969 870 CURVE SMOOTH",
"1001 870 OFFCURVE",
"1040 880 OFFCURVE",
"1076 901 CURVE SMOOTH",
"1112 922 OFFCURVE",
"1146 956 OFFCURVE",
"1167 1004 CURVE",
"1176 1004 LINE",
"1176 0 LINE"
);
}
);
width = 1892;
}
);
note = uniA50F;
unicode = A50F;
},
{
glyphname = uniA510;
lastChange = "2016-11-10 14:41:34 +0000";
layers = (
{
layerId = "ADED0D52-FD26-4FEF-A6A9-DB4FC8BB207A";
paths = (
{
closed = 1;
nodes = (
"1226 -20 OFFCURVE",
"1335 163 OFFCURVE",
"1335 518 CURVE SMOOTH",
"1335 627 LINE",
"1375 632 OFFCURVE",
"1423 648 OFFCURVE",
"1465 673 CURVE SMOOTH",
"1507 698 OFFCURVE",
"1543 735 OFFCURVE",
"1559 786 CURVE",
"1567 786 LINE",
"1580 727 OFFCURVE",
"1612 687 OFFCURVE",
"1651 661 CURVE SMOOTH",
"1690 635 OFFCURVE",
"1735 623 OFFCURVE",
"1774 623 CURVE SMOOTH",
"1813 623 OFFCURVE",
"1861 634 OFFCURVE",
"1903 659 CURVE SMOOTH",
"1945 684 OFFCURVE",
"1979 725 OFFCURVE",
"1991 786 CURVE",
"1999 786 LINE",
"2014 726 OFFCURVE",
"2043 686 OFFCURVE",
"2079 660 CURVE SMOOTH",
"2114 634 OFFCURVE",
"2156 623 OFFCURVE",
"2193 623 CURVE SMOOTH",
"2245 623 OFFCURVE",
"2290 643 OFFCURVE",
"2326 671 CURVE SMOOTH",
"2362 699 OFFCURVE",
"2388 734 OFFCURVE",
"2404 762 CURVE",
"2302 825 LINE",
"2269 774 OFFCURVE",
"2245 758 OFFCURVE",
"2208 758 CURVE SMOOTH",
"2177 758 OFFCURVE",
"2146 773 OFFCURVE",
"2122 806 CURVE SMOOTH",
"2098 839 OFFCURVE",
"2081 892 OFFCURVE",
"2081 969 CURVE",
"1921 969 LINE",
"1921 894 OFFCURVE",
"1901 842 OFFCURVE",
"1873 808 CURVE SMOOTH",
"1844 774 OFFCURVE",
"1807 758 OFFCURVE",
"1774 758 CURVE SMOOTH",
"1739 758 OFFCURVE",
"1708 774 OFFCURVE",
"1685 809 CURVE SMOOTH",
"1662 844 OFFCURVE",
"1647 896 OFFCURVE",
"1647 969 CURVE",
"1487 969 LINE",
"1487 906 OFFCURVE",
"1468 860 OFFCURVE",
"1440 827 CURVE SMOOTH",
"1412 794 OFFCURVE",
"1374 775 OFFCURVE",
"1335 768 CURVE",
"1335 1462 LINE",
"1176 1462 LINE",
"1176 1321 LINE SMOOTH",
"1176 1213 OFFCURVE",
"1157 1135 OFFCURVE",
"1125 1083 CURVE SMOOTH",
"1093 1031 OFFCURVE",
"1047 1006 OFFCURVE",
"995 1006 CURVE SMOOTH",
"940 1006 OFFCURVE",
"893 1025 OFFCURVE",
"859 1067 CURVE SMOOTH",
"825 1109 OFFCURVE",
"803 1176 OFFCURVE",
"803 1272 CURVE SMOOTH",
"803 1462 LINE",
"643 1462 LINE",
"643 1276 LINE SMOOTH",
"643 1177 OFFCURVE",
"621 1110 OFFCURVE",
"589 1067 CURVE SMOOTH",
"556 1024 OFFCURVE",
"510 1006 OFFCURVE",
"465 1006 CURVE SMOOTH",
"346 1006 OFFCURVE",
"272 1106 OFFCURVE",
"272 1317 CURVE SMOOTH",
"272 1462 LINE",
"113 1462 LINE",
"113 1317 LINE SMOOTH",
"113 1146 OFFCURVE",
"145 1035 OFFCURVE",
"202 966 CURVE SMOOTH",
"258 897 OFFCURVE",
"338 870 OFFCURVE",
"434 870 CURVE SMOOTH",
"487 870 OFFCURVE",
"543 881 OFFCURVE",
"592 910 CURVE SMOOTH",
"640 939 OFFCURVE",
"684 984 OFFCURVE",
"715 1055 CURVE",
"723 1055 LINE",
"744 983 OFFCURVE",
"786 937 OFFCURVE",
"832 909 CURVE SMOOTH",
"878 880 OFFCURVE",
"928 870 OFFCURVE",
"969 870 CURVE SMOOTH",
"1001 870 OFFCURVE",
"1040 880 OFFCURVE",
"1076 901 CURVE SMOOTH",
"1112 922 OFFCURVE",
"1146 956 OFFCURVE",
"1167 1004 CURVE",
"1176 1004 LINE",
"1176 733 LINE",
"1025 705 OFFCURVE",
"928 640 OFFCURVE",
"869 556 CURVE SMOOTH",
"809 472 OFFCURVE",
"788 369 OFFCURVE",
"788 268 CURVE SMOOTH",
"788 165 OFFCURVE",
"822 94 OFFCURVE",
"870 47 CURVE SMOOTH",
"918 0 OFFCURVE",
"978 -20 OFFCURVE",
"1030 -20 CURVE SMOOTH"
);
},
{
closed = 1;
nodes = (
"1002 119 OFFCURVE",
"977 132 OFFCURVE",
"958 157 CURVE SMOOTH",
"939 181 OFFCURVE",
"928 220 OFFCURVE",
"928 272 CURVE SMOOTH",
"928 329 OFFCURVE",
"931 396 OFFCURVE",
"964 455 CURVE SMOOTH",
"996 514 OFFCURVE",
"1057 565 OFFCURVE",
"1176 592 CURVE",
"1176 518 LINE SMOOTH",
"1176 367 OFFCURVE",
"1162 268 OFFCURVE",
"1138 206 CURVE SMOOTH",
"1113 144 OFFCURVE",
"1075 119 OFFCURVE",
"1030 119 CURVE SMOOTH"
);
}
);
width = 2449;
}
);
note = uniA510;
unicode = A510;
},
{
glyphname = uniA511;
lastChange = "2016-11-10 14:41:34 +0000";
layers = (
{
layerId = "ADED0D52-FD26-4FEF-A6A9-DB4FC8BB207A";
paths = (
{
closed = 1;
nodes = (
"1226 -20 OFFCURVE",
"1335 163 OFFCURVE",
"1335 518 CURVE SMOOTH",
"1335 627 LINE",
"1375 632 OFFCURVE",
"1423 648 OFFCURVE",
"1465 673 CURVE SMOOTH",
"1507 698 OFFCURVE",
"1543 735 OFFCURVE",
"1559 786 CURVE",
"1567 786 LINE",
"1580 727 OFFCURVE",
"1612 687 OFFCURVE",
"1651 661 CURVE SMOOTH",
"1690 635 OFFCURVE",
"1735 623 OFFCURVE",
"1774 623 CURVE SMOOTH",
"1813 623 OFFCURVE",
"1861 634 OFFCURVE",
"1903 659 CURVE SMOOTH",
"1945 684 OFFCURVE",
"1979 725 OFFCURVE",
"1991 786 CURVE",
"1999 786 LINE",
"2014 726 OFFCURVE",
"2043 686 OFFCURVE",
"2079 660 CURVE SMOOTH",
"2114 634 OFFCURVE",
"2156 623 OFFCURVE",
"2193 623 CURVE SMOOTH",
"2245 623 OFFCURVE",
"2290 643 OFFCURVE",
"2326 671 CURVE SMOOTH",
"2362 699 OFFCURVE",
"2388 734 OFFCURVE",
"2404 762 CURVE",
"2302 825 LINE",
"2269 774 OFFCURVE",
"2245 758 OFFCURVE",
"2208 758 CURVE SMOOTH",
"2177 758 OFFCURVE",
"2146 773 OFFCURVE",
"2122 806 CURVE SMOOTH",
"2098 839 OFFCURVE",
"2081 892 OFFCURVE",
"2081 969 CURVE",
"1921 969 LINE",
"1921 894 OFFCURVE",
"1901 842 OFFCURVE",
"1873 808 CURVE SMOOTH",
"1844 774 OFFCURVE",
"1807 758 OFFCURVE",
"1774 758 CURVE SMOOTH",
"1739 758 OFFCURVE",
"1708 774 OFFCURVE",
"1685 809 CURVE SMOOTH",
"1662 844 OFFCURVE",
"1647 896 OFFCURVE",
"1647 969 CURVE",
"1487 969 LINE",
"1487 906 OFFCURVE",
"1468 860 OFFCURVE",
"1440 827 CURVE SMOOTH",
"1412 794 OFFCURVE",
"1374 775 OFFCURVE",
"1335 768 CURVE",
"1335 1462 LINE",
"1176 1462 LINE",
"1176 1321 LINE SMOOTH",
"1176 1213 OFFCURVE",
"1157 1135 OFFCURVE",
"1125 1083 CURVE SMOOTH",
"1093 1031 OFFCURVE",
"1047 1006 OFFCURVE",
"995 1006 CURVE SMOOTH",
"940 1006 OFFCURVE",
"893 1025 OFFCURVE",
"859 1067 CURVE SMOOTH",
"825 1109 OFFCURVE",
"803 1176 OFFCURVE",
"803 1272 CURVE SMOOTH",
"803 1462 LINE",
"643 1462 LINE",
"643 1276 LINE SMOOTH",
"643 1177 OFFCURVE",
"621 1110 OFFCURVE",
"589 1067 CURVE SMOOTH",
"556 1024 OFFCURVE",
"510 1006 OFFCURVE",
"465 1006 CURVE SMOOTH",
"346 1006 OFFCURVE",
"272 1106 OFFCURVE",
"272 1317 CURVE SMOOTH",
"272 1462 LINE",
"113 1462 LINE",
"113 1317 LINE SMOOTH",
"113 1146 OFFCURVE",
"145 1035 OFFCURVE",
"202 966 CURVE SMOOTH",
"258 897 OFFCURVE",
"338 870 OFFCURVE",
"434 870 CURVE SMOOTH",
"487 870 OFFCURVE",
"543 881 OFFCURVE",
"592 910 CURVE SMOOTH",
"640 939 OFFCURVE",
"684 984 OFFCURVE",
"715 1055 CURVE",
"723 1055 LINE",
"744 983 OFFCURVE",
"786 937 OFFCURVE",
"832 909 CURVE SMOOTH",
"878 880 OFFCURVE",
"928 870 OFFCURVE",
"969 870 CURVE SMOOTH",
"1001 870 OFFCURVE",
"1040 880 OFFCURVE",
"1076 901 CURVE SMOOTH",
"1112 922 OFFCURVE",
"1146 956 OFFCURVE",
"1167 1004 CURVE",
"1176 1004 LINE",
"1176 733 LINE",
"1025 705 OFFCURVE",
"928 640 OFFCURVE",
"869 556 CURVE SMOOTH",
"809 472 OFFCURVE",
"788 369 OFFCURVE",
"788 268 CURVE SMOOTH",
"788 165 OFFCURVE",
"822 94 OFFCURVE",
"870 47 CURVE SMOOTH",
"918 0 OFFCURVE",
"978 -20 OFFCURVE",
"1030 -20 CURVE SMOOTH"
);
},
{
closed = 1;
nodes = (
"1002 119 OFFCURVE",
"977 132 OFFCURVE",
"958 157 CURVE SMOOTH",
"939 181 OFFCURVE",
"928 220 OFFCURVE",
"928 272 CURVE SMOOTH",
"928 329 OFFCURVE",
"931 396 OFFCURVE",
"964 455 CURVE SMOOTH",
"996 514 OFFCURVE",
"1057 565 OFFCURVE",
"1176 592 CURVE",
"1176 518 LINE SMOOTH",
"1176 367 OFFCURVE",
"1162 268 OFFCURVE",
"1138 206 CURVE SMOOTH",
"1113 144 OFFCURVE",
"1075 119 OFFCURVE",
"1030 119 CURVE SMOOTH"
);
},
{
closed = 1;
nodes = (
"1835 307 OFFCURVE",
"1876 343 OFFCURVE",
"1876 410 CURVE SMOOTH",
"1876 474 OFFCURVE",
"1834 512 OFFCURVE",
"1774 512 CURVE SMOOTH",
"1714 512 OFFCURVE",
"1671 474 OFFCURVE",
"1671 410 CURVE SMOOTH",
"1671 343 OFFCURVE",
"1707 307 OFFCURVE",
"1774 307 CURVE SMOOTH"
);
},
{
closed = 1;
nodes = (
"1835 1044 OFFCURVE",
"1876 1080 OFFCURVE",
"1876 1147 CURVE SMOOTH",
"1876 1211 OFFCURVE",
"1834 1249 OFFCURVE",
"1774 1249 CURVE SMOOTH",
"1714 1249 OFFCURVE",
"1671 1211 OFFCURVE",
"1671 1147 CURVE SMOOTH",
"1671 1080 OFFCURVE",
"1707 1044 OFFCURVE",
"1774 1044 CURVE SMOOTH"
);
}
);
width = 2449;
}
);
note = uniA511;
unicode = A511;
},
{
glyphname = uniA512;
lastChange = "2016-11-10 14:40:37 +0000";
layers = (
{
layerId = "ADED0D52-FD26-4FEF-A6A9-DB4FC8BB207A";
paths = (
{
closed = 1;
nodes = (
"1335 0 LINE",
"1335 604 LINE",
"1493 604 LINE",
"1493 432 LINE",
"1653 432 LINE",
"1653 928 LINE",
"1493 928 LINE",
"1493 743 LINE",
"1335 743 LINE",
"1335 1462 LINE",
"1176 1462 LINE",
"1176 1321 LINE SMOOTH",
"1176 1213 OFFCURVE",
"1157 1135 OFFCURVE",
"1125 1083 CURVE SMOOTH",
"1093 1031 OFFCURVE",
"1047 1006 OFFCURVE",
"995 1006 CURVE SMOOTH",
"940 1006 OFFCURVE",
"893 1025 OFFCURVE",
"859 1067 CURVE SMOOTH",
"825 1109 OFFCURVE",
"803 1176 OFFCURVE",
"803 1272 CURVE SMOOTH",
"803 1462 LINE",
"643 1462 LINE",
"643 1276 LINE SMOOTH",
"643 1177 OFFCURVE",
"621 1110 OFFCURVE",
"589 1067 CURVE SMOOTH",
"556 1024 OFFCURVE",
"510 1006 OFFCURVE",
"465 1006 CURVE SMOOTH",
"346 1006 OFFCURVE",
"272 1106 OFFCURVE",
"272 1317 CURVE SMOOTH",
"272 1462 LINE",
"113 1462 LINE",
"113 1317 LINE SMOOTH",
"113 1146 OFFCURVE",
"145 1035 OFFCURVE",
"202 966 CURVE SMOOTH",
"258 897 OFFCURVE",
"338 870 OFFCURVE",
"434 870 CURVE SMOOTH",
"487 870 OFFCURVE",
"543 881 OFFCURVE",
"592 910 CURVE SMOOTH",
"640 939 OFFCURVE",
"684 984 OFFCURVE",
"715 1055 CURVE",
"723 1055 LINE",
"744 983 OFFCURVE",
"786 937 OFFCURVE",
"832 909 CURVE SMOOTH",
"878 880 OFFCURVE",
"928 870 OFFCURVE",
"969 870 CURVE SMOOTH",
"1001 870 OFFCURVE",
"1040 880 OFFCURVE",
"1076 901 CURVE SMOOTH",
"1112 922 OFFCURVE",
"1146 956 OFFCURVE",
"1167 1004 CURVE",
"1176 1004 LINE",
"1176 0 LINE"
);
}
);
width = 1743;
}
);
note = uniA512;
unicode = A512;
},
{
glyphname = uniA513;
lastChange = "2016-11-10 14:41:34 +0000";
layers = (
{
layerId = "ADED0D52-FD26-4FEF-A6A9-DB4FC8BB207A";
paths = (
{
closed = 1;
nodes = (
"1335 0 LINE",
"1335 604 LINE",
"1493 604 LINE",
"1493 432 LINE",
"1653 432 LINE",
"1653 928 LINE",
"1493 928 LINE",
"1493 743 LINE",
"1335 743 LINE",
"1335 1462 LINE",
"1176 1462 LINE",
"1176 1321 LINE SMOOTH",
"1176 1213 OFFCURVE",
"1157 1135 OFFCURVE",
"1125 1083 CURVE SMOOTH",
"1093 1031 OFFCURVE",
"1047 1006 OFFCURVE",
"995 1006 CURVE SMOOTH",
"940 1006 OFFCURVE",
"893 1025 OFFCURVE",
"859 1067 CURVE SMOOTH",
"825 1109 OFFCURVE",
"803 1176 OFFCURVE",
"803 1272 CURVE SMOOTH",
"803 1462 LINE",
"643 1462 LINE",
"643 1276 LINE SMOOTH",
"643 1177 OFFCURVE",
"621 1110 OFFCURVE",
"589 1067 CURVE SMOOTH",
"556 1024 OFFCURVE",
"510 1006 OFFCURVE",
"465 1006 CURVE SMOOTH",
"346 1006 OFFCURVE",
"272 1106 OFFCURVE",
"272 1317 CURVE SMOOTH",
"272 1462 LINE",
"113 1462 LINE",
"113 1317 LINE SMOOTH",
"113 1146 OFFCURVE",
"145 1035 OFFCURVE",
"202 966 CURVE SMOOTH",
"258 897 OFFCURVE",
"338 870 OFFCURVE",
"434 870 CURVE SMOOTH",
"487 870 OFFCURVE",
"543 881 OFFCURVE",
"592 910 CURVE SMOOTH",
"640 939 OFFCURVE",
"684 984 OFFCURVE",
"715 1055 CURVE",
"723 1055 LINE",
"744 983 OFFCURVE",
"786 937 OFFCURVE",
"832 909 CURVE SMOOTH",
"878 880 OFFCURVE",
"928 870 OFFCURVE",
"969 870 CURVE SMOOTH",
"1001 870 OFFCURVE",
"1040 880 OFFCURVE",
"1076 901 CURVE SMOOTH",
"1112 922 OFFCURVE",
"1146 956 OFFCURVE",
"1167 1004 CURVE",
"1176 1004 LINE",
"1176 0 LINE"
);
},
{
closed = 1;
nodes = (
"604 -252 OFFCURVE",
"653 -233 OFFCURVE",
"717 -233 CURVE SMOOTH",
"762 -233 OFFCURVE",
"822 -252 OFFCURVE",
"884 -271 CURVE SMOOTH",
"946 -290 OFFCURVE",
"1012 -309 OFFCURVE",
"1069 -309 CURVE SMOOTH",
"1198 -309 OFFCURVE",
"1274 -252 OFFCURVE",
"1325 -123 CURVE",
"1231 -68 LINE",
"1190 -147 OFFCURVE",
"1141 -166 OFFCURVE",
"1077 -166 CURVE SMOOTH",
"1034 -166 OFFCURVE",
"977 -147 OFFCURVE",
"915 -128 CURVE SMOOTH",
"853 -109 OFFCURVE",
"785 -90 OFFCURVE",
"725 -90 CURVE SMOOTH",
"596 -90 OFFCURVE",
"520 -147 OFFCURVE",
"469 -276 CURVE",
"563 -332 LINE"
);
}
);
width = 1743;
}
);
note = uniA513;
unicode = A513;
},
{
glyphname = uniA514;
lastChange = "2016-11-10 14:41:34 +0000";
layers = (
{
layerId = "ADED0D52-FD26-4FEF-A6A9-DB4FC8BB207A";
paths = (
{
closed = 1;
nodes = (
"1225 0 LINE",
"1225 1462 LINE",
"1065 1462 LINE",
"682 1079 LINE",
"784 979 LINE",
"856 1051 LINE SMOOTH",
"924 1119 OFFCURVE",
"971 1167 OFFCURVE",
"1004 1207 CURVE SMOOTH",
"1037 1246 OFFCURVE",
"1058 1276 OFFCURVE",
"1075 1311 CURVE",
"1085 1307 LINE",
"1081 1286 OFFCURVE",
"1078 1268 OFFCURVE",
"1075 1237 CURVE SMOOTH",
"1071 1205 OFFCURVE",
"1070 1163 OFFCURVE",
"1068 1096 CURVE SMOOTH",
"1066 1028 OFFCURVE",
"1065 935 OFFCURVE",
"1065 803 CURVE SMOOTH",
"1065 0 LINE"
);
},
{
closed = 1;
nodes = (
"610 0 LINE",
"610 1462 LINE",
"451 1462 LINE",
"68 1079 LINE",
"170 979 LINE",
"242 1051 LINE SMOOTH",
"310 1119 OFFCURVE",
"357 1167 OFFCURVE",
"390 1207 CURVE SMOOTH",
"423 1246 OFFCURVE",
"444 1276 OFFCURVE",
"461 1311 CURVE",
"471 1307 LINE",
"467 1286 OFFCURVE",
"464 1268 OFFCURVE",
"461 1237 CURVE SMOOTH",
"457 1205 OFFCURVE",
"456 1163 OFFCURVE",
"454 1096 CURVE SMOOTH",
"452 1028 OFFCURVE",
"451 935 OFFCURVE",
"451 803 CURVE SMOOTH",
"451 0 LINE"
);
}
);
width = 1452;
}
);
note = uniA514;
unicode = A514;
},
{
glyphname = uniA515;
lastChange = "2016-11-10 14:41:34 +0000";
layers = (
{
layerId = "ADED0D52-FD26-4FEF-A6A9-DB4FC8BB207A";
paths = (
{
closed = 1;
nodes = (
"569 -20 OFFCURVE",
"659 19 OFFCURVE",
"720 90 CURVE SMOOTH",
"780 161 OFFCURVE",
"811 264 OFFCURVE",
"811 395 CURVE SMOOTH",
"811 678 LINE",
"1083 678 LINE",
"1083 0 LINE",
"1243 0 LINE",
"1243 819 LINE",
"811 819 LINE",
"811 1462 LINE",
"115 1462 LINE",
"115 1321 LINE",
"651 1321 LINE",
"651 819 LINE",
"472 819 OFFCURVE",
"326 787 OFFCURVE",
"225 715 CURVE SMOOTH",
"124 643 OFFCURVE",
"68 532 OFFCURVE",
"68 375 CURVE SMOOTH",
"68 104 OFFCURVE",
"206 -20 OFFCURVE",
"449 -20 CURVE SMOOTH"
);
},
{
closed = 1;
nodes = (
"381 119 OFFCURVE",
"326 147 OFFCURVE",
"287 193 CURVE SMOOTH",
"248 239 OFFCURVE",
"227 302 OFFCURVE",
"227 375 CURVE SMOOTH",
"227 499 OFFCURVE",
"257 575 OFFCURVE",
"325 620 CURVE SMOOTH",
"393 664 OFFCURVE",
"499 678 OFFCURVE",
"651 678 CURVE",
"651 393 LINE SMOOTH",
"651 206 OFFCURVE",
"585 119 OFFCURVE",
"449 119 CURVE SMOOTH"
);
}
);
width = 1423;
}
);
note = uniA515;
unicode = A515;
},
{
glyphname = uniA516;
lastChange = "2016-11-10 14:41:34 +0000";
layers = (
{
layerId = "ADED0D52-FD26-4FEF-A6A9-DB4FC8BB207A";
paths = (
{
closed = 1;
nodes = (
"797 0 LINE",
"797 1462 LINE",
"637 1462 LINE",
"637 0 LINE"
);
},
{
closed = 1;
nodes = (
"387 0 LINE",
"387 1462 LINE",
"227 1462 LINE",
"227 0 LINE"
);
},
{
closed = 1;
nodes = (
"1206 0 LINE",
"1206 1462 LINE",
"1047 1462 LINE",
"1047 0 LINE"
);
}
);
width = 1434;
}
);
note = uniA516;
unicode = A516;
},
{
glyphname = uniA517;
lastChange = "2016-11-10 14:41:34 +0000";
layers = (
{
layerId = "ADED0D52-FD26-4FEF-A6A9-DB4FC8BB207A";
paths = (
{
closed = 1;
nodes = (
"797 266 LINE",
"797 1462 LINE",
"637 1462 LINE",
"637 266 LINE"
);
},
{
closed = 1;
nodes = (
"1208 0 LINE",
"1208 141 LINE",
"227 141 LINE",
"227 0 LINE"
);
},
{
closed = 1;
nodes = (
"389 266 LINE",
"389 1462 LINE",
"229 1462 LINE",
"229 266 LINE"
);
},
{
closed = 1;
nodes = (
"1208 266 LINE",
"1208 1462 LINE",
"1049 1462 LINE",
"1049 266 LINE"
);
}
);
width = 1436;
}
);
note = uniA517;
unicode = A517;
},
{
glyphname = uniA518;
lastChange = "2016-11-10 14:41:34 +0000";
layers = (
{
layerId = "ADED0D52-FD26-4FEF-A6A9-DB4FC8BB207A";
paths = (
{
closed = 1;
nodes = (
"387 942 LINE",
"387 1462 LINE",
"227 1462 LINE",
"227 942 LINE"
);
},
{
closed = 1;
nodes = (
"387 0 LINE",
"387 520 LINE",
"227 520 LINE",
"227 0 LINE"
);
},
{
closed = 1;
nodes = (
"1206 0 LINE",
"1206 520 LINE",
"1047 520 LINE",
"1047 0 LINE"
);
},
{
closed = 1;
nodes = (
"797 471 LINE",
"797 991 LINE",
"637 991 LINE",
"637 471 LINE"
);
},
{
closed = 1;
nodes = (
"1206 942 LINE",
"1206 1462 LINE",
"1047 1462 LINE",
"1047 942 LINE"
);
}
);
width = 1434;
}
);
note = uniA518;
unicode = A518;
},
{
glyphname = uniA519;
lastChange = "2016-11-10 14:41:34 +0000";
layers = (
{
layerId = "ADED0D52-FD26-4FEF-A6A9-DB4FC8BB207A";
paths = (
{
closed = 1;
nodes = (
"387 942 LINE",
"387 1180 LINE",
"1047 1180 LINE",
"1047 942 LINE",
"1206 942 LINE",
"1206 1462 LINE",
"1047 1462 LINE",
"1047 1321 LINE",
"387 1321 LINE",
"387 1462 LINE",
"227 1462 LINE",
"227 942 LINE"
);
},
{
closed = 1;
nodes = (
"387 0 LINE",
"387 143 LINE",
"1047 143 LINE",
"1047 0 LINE",
"1206 0 LINE",
"1206 520 LINE",
"1047 520 LINE",
"1047 285 LINE",
"387 285 LINE",
"387 520 LINE",
"227 520 LINE",
"227 0 LINE"
);
},
{
closed = 1;
nodes = (
"797 471 LINE",
"797 991 LINE",
"637 991 LINE",
"637 471 LINE"
);
}
);
width = 1434;
}
);
note = uniA519;
unicode = A519;
},
{
glyphname = uniA51A;
lastChange = "2016-11-10 14:41:34 +0000";
layers = (
{
layerId = "ADED0D52-FD26-4FEF-A6A9-DB4FC8BB207A";
paths = (
{
closed = 1;
nodes = (
"638 276 OFFCURVE",
"707 303 OFFCURVE",
"768 346 CURVE",
"863 301 OFFCURVE",
"971 276 OFFCURVE",
"1092 276 CURVE SMOOTH",
"1211 276 OFFCURVE",
"1319 303 OFFCURVE",
"1411 352 CURVE",
"1482 303 OFFCURVE",
"1559 276 OFFCURVE",
"1640 276 CURVE SMOOTH",
"1759 276 OFFCURVE",
"1853 297 OFFCURVE",
"1933 357 CURVE SMOOTH",
"2012 416 OFFCURVE",
"2076 513 OFFCURVE",
"2136 668 CURVE",
"2021 727 LINE",
"1973 603 OFFCURVE",
"1920 526 OFFCURVE",
"1857 479 CURVE SMOOTH",
"1794 431 OFFCURVE",
"1723 416 OFFCURVE",
"1640 416 CURVE SMOOTH",
"1604 416 OFFCURVE",
"1559 423 OFFCURVE",
"1528 438 CURVE",
"1592 495 OFFCURVE",
"1646 571 OFFCURVE",
"1684 652 CURVE SMOOTH",
"1722 733 OFFCURVE",
"1743 820 OFFCURVE",
"1743 903 CURVE SMOOTH",
"1743 1175 OFFCURVE",
"1635 1309 OFFCURVE",
"1448 1309 CURVE SMOOTH",
"1357 1309 OFFCURVE",
"1282 1263 OFFCURVE",
"1230 1189 CURVE SMOOTH",
"1178 1115 OFFCURVE",
"1149 1012 OFFCURVE",
"1149 903 CURVE SMOOTH",
"1149 812 OFFCURVE",
"1167 729 OFFCURVE",
"1197 654 CURVE SMOOTH",
"1227 578 OFFCURVE",
"1268 510 OFFCURVE",
"1315 453 CURVE",
"1252 428 OFFCURVE",
"1172 416 OFFCURVE",
"1092 416 CURVE SMOOTH",
"1012 416 OFFCURVE",
"933 430 OFFCURVE",
"870 455 CURVE",
"918 516 OFFCURVE",
"959 586 OFFCURVE",
"988 662 CURVE SMOOTH",
"1016 738 OFFCURVE",
"1034 819 OFFCURVE",
"1034 903 CURVE SMOOTH",
"1034 1039 OFFCURVE",
"1002 1140 OFFCURVE",
"950 1208 CURVE SMOOTH",
"897 1275 OFFCURVE",
"822 1309 OFFCURVE",
"735 1309 CURVE SMOOTH",
"644 1309 OFFCURVE",
"570 1263 OFFCURVE",
"519 1189 CURVE SMOOTH",
"468 1115 OFFCURVE",
"440 1012 OFFCURVE",
"440 903 CURVE SMOOTH",
"440 804 OFFCURVE",
"462 714 OFFCURVE",
"499 634 CURVE SMOOTH",
"536 553 OFFCURVE",
"591 484 OFFCURVE",
"655 428 CURVE",
"631 420 OFFCURVE",
"592 416 OFFCURVE",
"563 416 CURVE SMOOTH",
"480 416 OFFCURVE",
"404 431 OFFCURVE",
"339 479 CURVE SMOOTH",
"274 526 OFFCURVE",
"217 603 OFFCURVE",
"172 727 CURVE",
"47 664 LINE",
"103 509 OFFCURVE",
"174 413 OFFCURVE",
"259 355 CURVE SMOOTH",
"343 297 OFFCURVE",
"444 276 OFFCURVE",
"563 276 CURVE SMOOTH"
);
}
);
width = 2183;
}
);
note = uniA51A;
unicode = A51A;
},
{
glyphname = uniA51B;
lastChange = "2016-11-10 14:41:34 +0000";
layers = (
{
layerId = "ADED0D52-FD26-4FEF-A6A9-DB4FC8BB207A";
paths = (
{
closed = 1;
nodes = (
"638 276 OFFCURVE",
"707 303 OFFCURVE",
"768 346 CURVE",
"863 301 OFFCURVE",
"971 276 OFFCURVE",
"1092 276 CURVE SMOOTH",
"1211 276 OFFCURVE",
"1319 303 OFFCURVE",
"1411 352 CURVE",
"1482 303 OFFCURVE",
"1559 276 OFFCURVE",
"1640 276 CURVE SMOOTH",
"1759 276 OFFCURVE",
"1853 297 OFFCURVE",
"1933 357 CURVE SMOOTH",
"2012 416 OFFCURVE",
"2076 513 OFFCURVE",
"2136 668 CURVE",
"2021 727 LINE",
"1973 603 OFFCURVE",
"1920 526 OFFCURVE",
"1857 479 CURVE SMOOTH",
"1794 431 OFFCURVE",
"1723 416 OFFCURVE",
"1640 416 CURVE SMOOTH",
"1604 416 OFFCURVE",
"1559 423 OFFCURVE",
"1528 438 CURVE",
"1592 495 OFFCURVE",
"1646 571 OFFCURVE",
"1684 652 CURVE SMOOTH",
"1722 733 OFFCURVE",
"1743 820 OFFCURVE",
"1743 903 CURVE SMOOTH",
"1743 1175 OFFCURVE",
"1635 1309 OFFCURVE",
"1448 1309 CURVE SMOOTH",
"1357 1309 OFFCURVE",
"1282 1263 OFFCURVE",
"1230 1189 CURVE SMOOTH",
"1178 1115 OFFCURVE",
"1149 1012 OFFCURVE",
"1149 903 CURVE SMOOTH",
"1149 812 OFFCURVE",
"1167 729 OFFCURVE",
"1197 654 CURVE SMOOTH",
"1227 578 OFFCURVE",
"1268 510 OFFCURVE",
"1315 453 CURVE",
"1252 428 OFFCURVE",
"1172 416 OFFCURVE",
"1092 416 CURVE SMOOTH",
"1012 416 OFFCURVE",
"933 430 OFFCURVE",
"870 455 CURVE",
"918 516 OFFCURVE",
"959 586 OFFCURVE",
"988 662 CURVE SMOOTH",
"1016 738 OFFCURVE",
"1034 819 OFFCURVE",
"1034 903 CURVE SMOOTH",
"1034 1039 OFFCURVE",
"1002 1140 OFFCURVE",
"950 1208 CURVE SMOOTH",
"897 1275 OFFCURVE",
"822 1309 OFFCURVE",
"735 1309 CURVE SMOOTH",
"644 1309 OFFCURVE",
"570 1263 OFFCURVE",
"519 1189 CURVE SMOOTH",
"468 1115 OFFCURVE",
"440 1012 OFFCURVE",
"440 903 CURVE SMOOTH",
"440 804 OFFCURVE",
"462 714 OFFCURVE",
"499 634 CURVE SMOOTH",
"536 553 OFFCURVE",
"591 484 OFFCURVE",
"655 428 CURVE",
"631 420 OFFCURVE",
"592 416 OFFCURVE",
"563 416 CURVE SMOOTH",
"480 416 OFFCURVE",
"404 431 OFFCURVE",
"339 479 CURVE SMOOTH",
"274 526 OFFCURVE",
"217 603 OFFCURVE",
"172 727 CURVE",
"47 664 LINE",
"103 509 OFFCURVE",
"174 413 OFFCURVE",
"259 355 CURVE SMOOTH",
"343 297 OFFCURVE",
"444 276 OFFCURVE",
"563 276 CURVE SMOOTH"
);
},
{
closed = 1;
nodes = (
"658 591 OFFCURVE",
"600 740 OFFCURVE",
"600 903 CURVE SMOOTH",
"600 983 OFFCURVE",
"609 1049 OFFCURVE",
"630 1096 CURVE SMOOTH",
"651 1143 OFFCURVE",
"684 1169 OFFCURVE",
"735 1169 CURVE SMOOTH",
"784 1169 OFFCURVE",
"820 1139 OFFCURVE",
"842 1091 CURVE SMOOTH",
"864 1043 OFFCURVE",
"874 976 OFFCURVE",
"874 903 CURVE SMOOTH",
"874 828 OFFCURVE",
"866 752 OFFCURVE",
"850 681 CURVE SMOOTH",
"833 610 OFFCURVE",
"807 547 OFFCURVE",
"770 500 CURVE"
);
},
{
closed = 1;
nodes = (
"1390 556 OFFCURVE",
"1360 619 OFFCURVE",
"1340 688 CURVE SMOOTH",
"1320 756 OFFCURVE",
"1309 831 OFFCURVE",
"1309 903 CURVE SMOOTH",
"1309 976 OFFCURVE",
"1319 1043 OFFCURVE",
"1341 1091 CURVE SMOOTH",
"1363 1139 OFFCURVE",
"1397 1169 OFFCURVE",
"1448 1169 CURVE SMOOTH",
"1495 1169 OFFCURVE",
"1529 1143 OFFCURVE",
"1551 1096 CURVE SMOOTH",
"1573 1049 OFFCURVE",
"1583 983 OFFCURVE",
"1583 903 CURVE SMOOTH",
"1583 738 OFFCURVE",
"1528 596 OFFCURVE",
"1427 508 CURVE"
);
}
);
width = 2183;
}
);
note = uniA51B;
unicode = A51B;
},
{
glyphname = uniA51C;
lastChange = "2016-11-10 14:41:34 +0000";
layers = (
{
layerId = "ADED0D52-FD26-4FEF-A6A9-DB4FC8BB207A";
paths = (
{
closed = 1;
nodes = (
"317 250 LINE",
"317 547 LINE",
"1255 547 LINE",
"1255 686 LINE",
"317 686 LINE",
"317 823 LINE",
"1255 823 LINE",
"1255 963 LINE",
"317 963 LINE",
"317 1255 LINE",
"158 1255 LINE",
"158 250 LINE"
);
},
{
closed = 1;
nodes = (
"1134 229 OFFCURVE",
"1174 265 OFFCURVE",
"1174 332 CURVE SMOOTH",
"1174 396 OFFCURVE",
"1131 434 OFFCURVE",
"1071 434 CURVE SMOOTH",
"1011 434 OFFCURVE",
"969 396 OFFCURVE",
"969 332 CURVE SMOOTH",
"969 265 OFFCURVE",
"1006 229 OFFCURVE",
"1071 229 CURVE SMOOTH"
);
},
{
closed = 1;
nodes = (
"1509 653 OFFCURVE",
"1550 689 OFFCURVE",
"1550 756 CURVE SMOOTH",
"1550 820 OFFCURVE",
"1508 858 OFFCURVE",
"1448 858 CURVE SMOOTH",
"1388 858 OFFCURVE",
"1346 820 OFFCURVE",
"1346 756 CURVE SMOOTH",
"1346 689 OFFCURVE",
"1381 653 OFFCURVE",
"1448 653 CURVE SMOOTH"
);
},
{
closed = 1;
nodes = (
"1134 1075 OFFCURVE",
"1174 1111 OFFCURVE",
"1174 1178 CURVE SMOOTH",
"1174 1242 OFFCURVE",
"1131 1280 OFFCURVE",
"1071 1280 CURVE SMOOTH",
"1011 1280 OFFCURVE",
"969 1242 OFFCURVE",
"969 1178 CURVE SMOOTH",
"969 1111 OFFCURVE",
"1006 1075 OFFCURVE",
"1071 1075 CURVE SMOOTH"
);
}
);
width = 1595;
}
);
note = uniA51C;
unicode = A51C;
},
{
glyphname = uniA51D;
lastChange = "2016-11-10 14:41:34 +0000";
layers = (
{
layerId = "ADED0D52-FD26-4FEF-A6A9-DB4FC8BB207A";
paths = (
{
closed = 1;
nodes = (
"317 250 LINE",
"317 686 LINE",
"1255 686 LINE",
"1255 825 LINE",
"317 825 LINE",
"317 1255 LINE",
"158 1255 LINE",
"158 250 LINE"
);
},
{
closed = 1;
nodes = (
"1134 369 OFFCURVE",
"1174 406 OFFCURVE",
"1174 471 CURVE SMOOTH",
"1174 535 OFFCURVE",
"1131 573 OFFCURVE",
"1071 573 CURVE SMOOTH",
"1011 573 OFFCURVE",
"969 535 OFFCURVE",
"969 471 CURVE SMOOTH",
"969 406 OFFCURVE",
"1006 369 OFFCURVE",
"1071 369 CURVE SMOOTH"
);
},
{
closed = 1;
nodes = (
"1134 942 OFFCURVE",
"1174 979 OFFCURVE",
"1174 1044 CURVE SMOOTH",
"1174 1108 OFFCURVE",
"1131 1147 OFFCURVE",
"1071 1147 CURVE SMOOTH",
"1011 1147 OFFCURVE",
"969 1108 OFFCURVE",
"969 1044 CURVE SMOOTH",
"969 979 OFFCURVE",
"1006 942 OFFCURVE",
"1071 942 CURVE SMOOTH"
);
},
{
closed = 1;
nodes = (
"1509 653 OFFCURVE",
"1550 689 OFFCURVE",
"1550 756 CURVE SMOOTH",
"1550 820 OFFCURVE",
"1508 858 OFFCURVE",
"1448 858 CURVE SMOOTH",
"1388 858 OFFCURVE",
"1346 820 OFFCURVE",
"1346 756 CURVE SMOOTH",
"1346 689 OFFCURVE",
"1381 653 OFFCURVE",
"1448 653 CURVE SMOOTH"
);
}
);
width = 1595;
}
);
note = uniA51D;
unicode = A51D;
},
{
glyphname = uniA51E;
lastChange = "2016-11-10 14:41:34 +0000";
layers = (
{
layerId = "ADED0D52-FD26-4FEF-A6A9-DB4FC8BB207A";
paths = (
{
closed = 1;
nodes = (
"387 0 LINE",
"387 289 LINE",
"535 289 LINE",
"535 0 LINE",
"694 0 LINE",
"694 289 LINE",
"870 289 LINE SMOOTH",
"954 289 OFFCURVE",
"1035 309 OFFCURVE",
"1106 348 CURVE",
"1193 309 OFFCURVE",
"1297 289 OFFCURVE",
"1419 289 CURVE SMOOTH",
"1544 289 OFFCURVE",
"1650 309 OFFCURVE",
"1739 348 CURVE",
"1808 309 OFFCURVE",
"1889 289 OFFCURVE",
"1976 289 CURVE SMOOTH",
"2152 289 LINE",
"2152 0 LINE",
"2312 0 LINE",
"2312 289 LINE",
"2460 289 LINE",
"2460 0 LINE",
"2619 0 LINE",
"2619 1462 LINE",
"2460 1462 LINE",
"2460 428 LINE",
"2312 428 LINE",
"2312 1462 LINE",
"2152 1462 LINE",
"2152 428 LINE",
"1976 428 LINE SMOOTH",
"1944 428 OFFCURVE",
"1903 431 OFFCURVE",
"1874 442 CURVE",
"1994 551 OFFCURVE",
"2062 703 OFFCURVE",
"2062 874 CURVE SMOOTH",
"2062 1010 OFFCURVE",
"2026 1109 OFFCURVE",
"1971 1174 CURVE SMOOTH",
"1915 1238 OFFCURVE",
"1841 1270 OFFCURVE",
"1765 1270 CURVE SMOOTH",
"1689 1270 OFFCURVE",
"1614 1226 OFFCURVE",
"1558 1155 CURVE SMOOTH",
"1502 1083 OFFCURVE",
"1464 983 OFFCURVE",
"1464 874 CURVE SMOOTH",
"1464 695 OFFCURVE",
"1532 550 OFFCURVE",
"1624 446 CURVE",
"1571 434 OFFCURVE",
"1495 428 OFFCURVE",
"1419 428 CURVE SMOOTH",
"1346 428 OFFCURVE",
"1274 434 OFFCURVE",
"1221 446 CURVE",
"1316 550 OFFCURVE",
"1382 695 OFFCURVE",
"1382 874 CURVE SMOOTH",
"1382 983 OFFCURVE",
"1357 1083 OFFCURVE",
"1308 1155 CURVE SMOOTH",
"1259 1226 OFFCURVE",
"1183 1270 OFFCURVE",
"1083 1270 CURVE SMOOTH",
"995 1270 OFFCURVE",
"920 1238 OFFCURVE",
"868 1174 CURVE SMOOTH",
"815 1109 OFFCURVE",
"784 1010 OFFCURVE",
"784 874 CURVE SMOOTH",
"784 703 OFFCURVE",
"851 549 OFFCURVE",
"971 440 CURVE",
"942 432 OFFCURVE",
"901 428 OFFCURVE",
"870 428 CURVE SMOOTH",
"694 428 LINE",
"694 1462 LINE",
"535 1462 LINE",
"535 428 LINE",
"387 428 LINE",
"387 1462 LINE",
"227 1462 LINE",
"227 0 LINE"
);
},
{
closed = 1;
nodes = (
"1026 532 OFFCURVE",
"992 589 OFFCURVE",
"972 656 CURVE SMOOTH",
"951 723 OFFCURVE",
"944 798 OFFCURVE",
"944 874 CURVE SMOOTH",
"944 947 OFFCURVE",
"953 1011 OFFCURVE",
"976 1057 CURVE SMOOTH",
"999 1103 OFFCURVE",
"1032 1130 OFFCURVE",
"1083 1130 CURVE SMOOTH",
"1130 1130 OFFCURVE",
"1164 1103 OFFCURVE",
"1188 1057 CURVE SMOOTH",
"1211 1011 OFFCURVE",
"1223 947 OFFCURVE",
"1223 874 CURVE SMOOTH",
"1223 798 OFFCURVE",
"1209 723 OFFCURVE",
"1185 656 CURVE SMOOTH",
"1160 589 OFFCURVE",
"1124 532 OFFCURVE",
"1081 492 CURVE"
);
},
{
closed = 1;
nodes = (
"1720 532 OFFCURVE",
"1685 590 OFFCURVE",
"1661 658 CURVE SMOOTH",
"1637 725 OFFCURVE",
"1624 799 OFFCURVE",
"1624 874 CURVE SMOOTH",
"1624 947 OFFCURVE",
"1638 1011 OFFCURVE",
"1663 1057 CURVE SMOOTH",
"1687 1103 OFFCURVE",
"1722 1130 OFFCURVE",
"1765 1130 CURVE SMOOTH",
"1806 1130 OFFCURVE",
"1841 1103 OFFCURVE",
"1865 1057 CURVE SMOOTH",
"1889 1011 OFFCURVE",
"1903 947 OFFCURVE",
"1903 874 CURVE SMOOTH",
"1903 798 OFFCURVE",
"1895 724 OFFCURVE",
"1875 657 CURVE SMOOTH",
"1854 590 OFFCURVE",
"1819 532 OFFCURVE",
"1763 492 CURVE"
);
}
);
width = 2847;
}
);
note = uniA51E;
unicode = A51E;
},
{
glyphname = uniA51F;
lastChange = "2016-11-10 14:41:34 +0000";
layers = (
{
layerId = "ADED0D52-FD26-4FEF-A6A9-DB4FC8BB207A";
paths = (
{
closed = 1;
nodes = (
"387 0 LINE",
"387 973 LINE",
"418 997 OFFCURVE",
"461 1022 OFFCURVE",
"518 1042 CURVE SMOOTH",
"574 1061 OFFCURVE",
"645 1075 OFFCURVE",
"733 1075 CURVE SMOOTH",
"800 1075 OFFCURVE",
"869 1066 OFFCURVE",
"924 1051 CURVE",
"812 947 OFFCURVE",
"743 804 OFFCURVE",
"743 629 CURVE SMOOTH",
"743 493 OFFCURVE",
"774 394 OFFCURVE",
"830 330 CURVE SMOOTH",
"885 265 OFFCURVE",
"964 233 OFFCURVE",
"1063 233 CURVE SMOOTH",
"1162 233 OFFCURVE",
"1241 277 OFFCURVE",
"1297 349 CURVE SMOOTH",
"1352 421 OFFCURVE",
"1382 520 OFFCURVE",
"1382 629 CURVE SMOOTH",
"1382 804 OFFCURVE",
"1311 947 OFFCURVE",
"1202 1051 CURVE",
"1255 1066 OFFCURVE",
"1325 1075 OFFCURVE",
"1393 1075 CURVE SMOOTH",
"1484 1075 OFFCURVE",
"1556 1061 OFFCURVE",
"1613 1041 CURVE SMOOTH",
"1670 1021 OFFCURVE",
"1712 995 OFFCURVE",
"1743 971 CURVE",
"1743 0 LINE",
"1903 0 LINE",
"1903 1462 LINE",
"1743 1462 LINE",
"1743 1120 LINE",
"1706 1143 OFFCURVE",
"1659 1166 OFFCURVE",
"1601 1184 CURVE SMOOTH",
"1543 1202 OFFCURVE",
"1473 1214 OFFCURVE",
"1393 1214 CURVE SMOOTH",
"1266 1214 OFFCURVE",
"1156 1192 OFFCURVE",
"1063 1149 CURVE",
"968 1192 OFFCURVE",
"858 1214 OFFCURVE",
"733 1214 CURVE SMOOTH",
"650 1214 OFFCURVE",
"582 1202 OFFCURVE",
"526 1185 CURVE SMOOTH",
"469 1168 OFFCURVE",
"423 1145 OFFCURVE",
"387 1122 CURVE",
"387 1462 LINE",
"227 1462 LINE",
"227 0 LINE"
);
},
{
closed = 1;
nodes = (
"1007 373 OFFCURVE",
"968 401 OFFCURVE",
"942 447 CURVE SMOOTH",
"916 493 OFFCURVE",
"903 556 OFFCURVE",
"903 629 CURVE SMOOTH",
"903 700 OFFCURVE",
"916 771 OFFCURVE",
"943 835 CURVE SMOOTH",
"970 899 OFFCURVE",
"1010 956 OFFCURVE",
"1063 997 CURVE",
"1115 956 OFFCURVE",
"1155 899 OFFCURVE",
"1182 835 CURVE SMOOTH",
"1209 771 OFFCURVE",
"1223 700 OFFCURVE",
"1223 629 CURVE SMOOTH",
"1223 556 OFFCURVE",
"1211 493 OFFCURVE",
"1185 447 CURVE SMOOTH",
"1159 401 OFFCURVE",
"1119 373 OFFCURVE",
"1063 373 CURVE SMOOTH"
);
}
);
width = 2130;
}
);
note = uniA51F;
unicode = A51F;
},
{
glyphname = uniA520;
lastChange = "2016-11-10 14:41:34 +0000";
layers = (
{
layerId = "ADED0D52-FD26-4FEF-A6A9-DB4FC8BB207A";
paths = (
{
closed = 1;
nodes = (
"582 0 LINE",
"582 694 LINE",
"1036 694 LINE",
"1036 0 LINE",
"1196 0 LINE",
"1196 694 LINE",
"1528 694 LINE",
"1528 836 LINE",
"1196 836 LINE",
"1196 1462 LINE",
"1036 1462 LINE",
"1036 836 LINE",
"582 836 LINE",
"582 1462 LINE",
"422 1462 LINE",
"422 836 LINE",
"90 836 LINE",
"90 694 LINE",
"422 694 LINE",
"422 0 LINE"
);
}
);
width = 1618;
}
);
note = uniA520;
unicode = A520;
},
{
glyphname = uniA521;
lastChange = "2016-11-10 14:41:34 +0000";
layers = (
{
layerId = "ADED0D52-FD26-4FEF-A6A9-DB4FC8BB207A";
paths = (
{
closed = 1;
nodes = (
"1438 0 LINE",
"1438 141 LINE",
"1126 141 LINE",
"1126 1462 LINE",
"967 1462 LINE",
"947 1405 OFFCURVE",
"908 1324 OFFCURVE",
"856 1241 CURVE SMOOTH",
"803 1157 OFFCURVE",
"738 1072 OFFCURVE",
"666 1008 CURVE SMOOTH",
"594 943 OFFCURVE",
"516 899 OFFCURVE",
"440 899 CURVE SMOOTH",
"381 899 OFFCURVE",
"342 905 OFFCURVE",
"312 919 CURVE SMOOTH",
"282 933 OFFCURVE",
"261 957 OFFCURVE",
"242 993 CURVE",
"248 997 LINE",
"267 985 OFFCURVE",
"285 979 OFFCURVE",
"322 979 CURVE SMOOTH",
"374 979 OFFCURVE",
"421 997 OFFCURVE",
"454 1029 CURVE SMOOTH",
"487 1061 OFFCURVE",
"508 1109 OFFCURVE",
"508 1169 CURVE SMOOTH",
"508 1317 OFFCURVE",
"422 1389 OFFCURVE",
"289 1389 CURVE SMOOTH",
"229 1389 OFFCURVE",
"174 1366 OFFCURVE",
"133 1320 CURVE SMOOTH",
"92 1274 OFFCURVE",
"66 1204 OFFCURVE",
"66 1112 CURVE SMOOTH",
"66 977 OFFCURVE",
"111 889 OFFCURVE",
"178 835 CURVE SMOOTH",
"245 781 OFFCURVE",
"334 760 OFFCURVE",
"422 760 CURVE SMOOTH",
"538 760 OFFCURVE",
"642 813 OFFCURVE",
"731 890 CURVE SMOOTH",
"820 966 OFFCURVE",
"895 1066 OFFCURVE",
"958 1159 CURVE",
"967 1159 LINE",
"967 141 LINE",
"655 141 LINE",
"655 0 LINE"
);
},
{
closed = 1;
nodes = (
"302 1059 OFFCURVE",
"287 1060 OFFCURVE",
"271 1064 CURVE SMOOTH",
"255 1068 OFFCURVE",
"239 1074 OFFCURVE",
"227 1083 CURVE",
"223 1102 OFFCURVE",
"219 1126 OFFCURVE",
"219 1161 CURVE SMOOTH",
"219 1236 OFFCURVE",
"255 1274 OFFCURVE",
"311 1274 CURVE SMOOTH",
"331 1274 OFFCURVE",
"352 1269 OFFCURVE",
"368 1254 CURVE",
"383 1238 OFFCURVE",
"393 1212 OFFCURVE",
"393 1171 CURVE SMOOTH",
"393 1143 OFFCURVE",
"387 1115 OFFCURVE",
"373 1095 CURVE SMOOTH",
"359 1074 OFFCURVE",
"338 1059 OFFCURVE",
"311 1059 CURVE SMOOTH"
);
}
);
width = 1483;
}
);
note = uniA521;
unicode = A521;
},
{
glyphname = uniA522;
lastChange = "2016-11-10 14:41:34 +0000";
layers = (
{
layerId = "ADED0D52-FD26-4FEF-A6A9-DB4FC8BB207A";
paths = (
{
closed = 1;
nodes = (
"885 -18 OFFCURVE",
"979 27 OFFCURVE",
"1050 109 CURVE SMOOTH",
"1121 191 OFFCURVE",
"1167 310 OFFCURVE",
"1167 459 CURVE SMOOTH",
"1167 588 OFFCURVE",
"1136 710 OFFCURVE",
"1085 822 CURVE SMOOTH",
"1033 933 OFFCURVE",
"963 1034 OFFCURVE",
"887 1122 CURVE",
"994 1223 OFFCURVE",
"1096 1286 OFFCURVE",
"1153 1294 CURVE",
"1411 1024 LINE",
"1536 1128 LINE",
"1204 1475 LINE",
"1165 1470 OFFCURVE",
"1103 1444 OFFCURVE",
"1031 1401 CURVE SMOOTH",
"958 1357 OFFCURVE",
"874 1297 OFFCURVE",
"793 1221 CURVE",
"712 1297 OFFCURVE",
"629 1357 OFFCURVE",
"557 1401 CURVE SMOOTH",
"484 1444 OFFCURVE",
"421 1470 OFFCURVE",
"381 1475 CURVE",
"45 1122 LINE",
"154 1024 LINE",
"410 1294 LINE",
"434 1290 OFFCURVE",
"474 1271 OFFCURVE",
"522 1239 CURVE SMOOTH",
"570 1207 OFFCURVE",
"626 1163 OFFCURVE",
"682 1108 CURVE",
"606 1021 OFFCURVE",
"537 921 OFFCURVE",
"487 813 CURVE SMOOTH",
"437 704 OFFCURVE",
"406 584 OFFCURVE",
"406 459 CURVE SMOOTH",
"406 274 OFFCURVE",
"453 154 OFFCURVE",
"523 82 CURVE SMOOTH",
"593 9 OFFCURVE",
"687 -18 OFFCURVE",
"786 -18 CURVE SMOOTH"
);
},
{
closed = 1;
nodes = (
"731 121 OFFCURVE",
"675 145 OFFCURVE",
"634 200 CURVE SMOOTH",
"593 255 OFFCURVE",
"565 339 OFFCURVE",
"565 459 CURVE SMOOTH",
"565 563 OFFCURVE",
"589 664 OFFCURVE",
"628 760 CURVE SMOOTH",
"667 855 OFFCURVE",
"721 941 OFFCURVE",
"780 1016 CURVE",
"841 941 OFFCURVE",
"899 855 OFFCURVE",
"940 760 CURVE SMOOTH",
"981 664 OFFCURVE",
"1008 563 OFFCURVE",
"1008 459 CURVE SMOOTH",
"1008 351 OFFCURVE",
"981 268 OFFCURVE",
"939 210 CURVE SMOOTH",
"897 152 OFFCURVE",
"842 121 OFFCURVE",
"786 121 CURVE SMOOTH"
);
},
{
closed = 1;
nodes = (
"475 969 OFFCURVE",
"516 1006 OFFCURVE",
"516 1071 CURVE SMOOTH",
"516 1135 OFFCURVE",
"474 1174 OFFCURVE",
"414 1174 CURVE SMOOTH",
"354 1174 OFFCURVE",
"311 1135 OFFCURVE",
"311 1071 CURVE SMOOTH",
"311 1006 OFFCURVE",
"347 969 OFFCURVE",
"414 969 CURVE SMOOTH"
);
},
{
closed = 1;
nodes = (
"1208 969 OFFCURVE",
"1249 1006 OFFCURVE",
"1249 1071 CURVE SMOOTH",
"1249 1135 OFFCURVE",
"1207 1174 OFFCURVE",
"1147 1174 CURVE SMOOTH",
"1087 1174 OFFCURVE",
"1044 1135 OFFCURVE",
"1044 1071 CURVE SMOOTH",
"1044 1006 OFFCURVE",
"1080 969 OFFCURVE",
"1147 969 CURVE SMOOTH"
);
}
);
width = 1581;
}
);
note = uniA522;
unicode = A522;
},
{
glyphname = uniA523;
lastChange = "2016-11-10 14:41:34 +0000";
layers = (
{
layerId = "ADED0D52-FD26-4FEF-A6A9-DB4FC8BB207A";
paths = (
{
closed = 1;
nodes = (
"638 276 OFFCURVE",
"707 303 OFFCURVE",
"768 346 CURVE",
"863 301 OFFCURVE",
"971 276 OFFCURVE",
"1092 276 CURVE SMOOTH",
"1211 276 OFFCURVE",
"1319 303 OFFCURVE",
"1411 352 CURVE",
"1482 303 OFFCURVE",
"1559 276 OFFCURVE",
"1640 276 CURVE SMOOTH",
"1759 276 OFFCURVE",
"1853 297 OFFCURVE",
"1933 357 CURVE SMOOTH",
"2012 416 OFFCURVE",
"2076 513 OFFCURVE",
"2136 668 CURVE",
"2021 727 LINE",
"1973 603 OFFCURVE",
"1920 526 OFFCURVE",
"1857 479 CURVE SMOOTH",
"1794 431 OFFCURVE",
"1723 416 OFFCURVE",
"1640 416 CURVE SMOOTH",
"1604 416 OFFCURVE",
"1559 423 OFFCURVE",
"1528 438 CURVE",
"1592 495 OFFCURVE",
"1646 571 OFFCURVE",
"1684 652 CURVE SMOOTH",
"1722 733 OFFCURVE",
"1743 820 OFFCURVE",
"1743 903 CURVE SMOOTH",
"1743 1175 OFFCURVE",
"1635 1309 OFFCURVE",
"1448 1309 CURVE SMOOTH",
"1357 1309 OFFCURVE",
"1282 1263 OFFCURVE",
"1230 1189 CURVE SMOOTH",
"1178 1115 OFFCURVE",
"1149 1012 OFFCURVE",
"1149 903 CURVE SMOOTH",
"1149 812 OFFCURVE",
"1167 729 OFFCURVE",
"1197 654 CURVE SMOOTH",
"1227 578 OFFCURVE",
"1268 510 OFFCURVE",
"1315 453 CURVE",
"1252 428 OFFCURVE",
"1172 416 OFFCURVE",
"1092 416 CURVE SMOOTH",
"1012 416 OFFCURVE",
"933 430 OFFCURVE",
"870 455 CURVE",
"918 516 OFFCURVE",
"959 586 OFFCURVE",
"988 662 CURVE SMOOTH",
"1016 738 OFFCURVE",
"1034 819 OFFCURVE",
"1034 903 CURVE SMOOTH",
"1034 1039 OFFCURVE",
"1002 1140 OFFCURVE",
"950 1208 CURVE SMOOTH",
"897 1275 OFFCURVE",
"822 1309 OFFCURVE",
"735 1309 CURVE SMOOTH",
"644 1309 OFFCURVE",
"570 1263 OFFCURVE",
"519 1189 CURVE SMOOTH",
"468 1115 OFFCURVE",
"440 1012 OFFCURVE",
"440 903 CURVE SMOOTH",
"440 804 OFFCURVE",
"462 714 OFFCURVE",
"499 634 CURVE SMOOTH",
"536 553 OFFCURVE",
"591 484 OFFCURVE",
"655 428 CURVE",
"631 420 OFFCURVE",
"592 416 OFFCURVE",
"563 416 CURVE SMOOTH",
"480 416 OFFCURVE",
"404 431 OFFCURVE",
"339 479 CURVE SMOOTH",
"274 526 OFFCURVE",
"217 603 OFFCURVE",
"172 727 CURVE",
"47 664 LINE",
"103 509 OFFCURVE",
"174 413 OFFCURVE",
"259 355 CURVE SMOOTH",
"343 297 OFFCURVE",
"444 276 OFFCURVE",
"563 276 CURVE SMOOTH"
);
},
{
closed = 1;
nodes = (
"658 591 OFFCURVE",
"600 740 OFFCURVE",
"600 903 CURVE SMOOTH",
"600 983 OFFCURVE",
"609 1049 OFFCURVE",
"630 1096 CURVE SMOOTH",
"651 1143 OFFCURVE",
"684 1169 OFFCURVE",
"735 1169 CURVE SMOOTH",
"784 1169 OFFCURVE",
"820 1139 OFFCURVE",
"842 1091 CURVE SMOOTH",
"864 1043 OFFCURVE",
"874 976 OFFCURVE",
"874 903 CURVE SMOOTH",
"874 828 OFFCURVE",
"866 752 OFFCURVE",
"850 681 CURVE SMOOTH",
"833 610 OFFCURVE",
"807 547 OFFCURVE",
"770 500 CURVE"
);
},
{
closed = 1;
nodes = (
"800 1362 OFFCURVE",
"840 1399 OFFCURVE",
"840 1464 CURVE SMOOTH",
"840 1528 OFFCURVE",
"797 1567 OFFCURVE",
"737 1567 CURVE SMOOTH",
"677 1567 OFFCURVE",
"635 1528 OFFCURVE",
"635 1464 CURVE SMOOTH",
"635 1399 OFFCURVE",
"672 1362 OFFCURVE",
"737 1362 CURVE SMOOTH"
);
},
{
closed = 1;
nodes = (
"1390 556 OFFCURVE",
"1360 619 OFFCURVE",
"1340 688 CURVE SMOOTH",
"1320 756 OFFCURVE",
"1309 831 OFFCURVE",
"1309 903 CURVE SMOOTH",
"1309 976 OFFCURVE",
"1319 1043 OFFCURVE",
"1341 1091 CURVE SMOOTH",
"1363 1139 OFFCURVE",
"1397 1169 OFFCURVE",
"1448 1169 CURVE SMOOTH",
"1495 1169 OFFCURVE",
"1529 1143 OFFCURVE",
"1551 1096 CURVE SMOOTH",
"1573 1049 OFFCURVE",
"1583 983 OFFCURVE",
"1583 903 CURVE SMOOTH",
"1583 738 OFFCURVE",
"1528 596 OFFCURVE",
"1427 508 CURVE"
);
},
{
closed = 1;
nodes = (
"1513 1362 OFFCURVE",
"1554 1399 OFFCURVE",
"1554 1464 CURVE SMOOTH",
"1554 1528 OFFCURVE",
"1512 1567 OFFCURVE",
"1452 1567 CURVE SMOOTH",
"1392 1567 OFFCURVE",
"1350 1528 OFFCURVE",
"1350 1464 CURVE SMOOTH",
"1350 1399 OFFCURVE",
"1385 1362 OFFCURVE",
"1452 1362 CURVE SMOOTH"
);
}
);
width = 2183;
}
);
note = uniA523;
unicode = A523;
},
{
glyphname = uniA524;
lastChange = "2016-11-10 14:41:34 +0000";
layers = (
{
layerId = "ADED0D52-FD26-4FEF-A6A9-DB4FC8BB207A";
paths = (
{
closed = 1;
nodes = (
"1647 0 LINE",
"1647 141 LINE",
"1335 141 LINE",
"1335 604 LINE",
"1493 604 LINE",
"1493 432 LINE",
"1653 432 LINE",
"1653 928 LINE",
"1493 928 LINE",
"1493 743 LINE",
"1335 743 LINE",
"1335 1462 LINE",
"1176 1462 LINE",
"1176 1321 LINE SMOOTH",
"1176 1213 OFFCURVE",
"1157 1135 OFFCURVE",
"1125 1083 CURVE SMOOTH",
"1093 1031 OFFCURVE",
"1047 1006 OFFCURVE",
"995 1006 CURVE SMOOTH",
"940 1006 OFFCURVE",
"893 1025 OFFCURVE",
"859 1067 CURVE SMOOTH",
"825 1109 OFFCURVE",
"803 1176 OFFCURVE",
"803 1272 CURVE SMOOTH",
"803 1462 LINE",
"643 1462 LINE",
"643 1276 LINE SMOOTH",
"643 1177 OFFCURVE",
"621 1110 OFFCURVE",
"589 1067 CURVE SMOOTH",
"556 1024 OFFCURVE",
"510 1006 OFFCURVE",
"465 1006 CURVE SMOOTH",
"346 1006 OFFCURVE",
"272 1106 OFFCURVE",
"272 1317 CURVE SMOOTH",
"272 1462 LINE",
"113 1462 LINE",
"113 1317 LINE SMOOTH",
"113 1146 OFFCURVE",
"145 1035 OFFCURVE",
"202 966 CURVE SMOOTH",
"258 897 OFFCURVE",
"338 870 OFFCURVE",
"434 870 CURVE SMOOTH",
"487 870 OFFCURVE",
"543 881 OFFCURVE",
"592 910 CURVE SMOOTH",
"640 939 OFFCURVE",
"684 984 OFFCURVE",
"715 1055 CURVE",
"723 1055 LINE",
"744 983 OFFCURVE",
"786 937 OFFCURVE",
"832 909 CURVE SMOOTH",
"878 880 OFFCURVE",
"928 870 OFFCURVE",
"969 870 CURVE SMOOTH",
"1001 870 OFFCURVE",
"1040 880 OFFCURVE",
"1076 901 CURVE SMOOTH",
"1112 922 OFFCURVE",
"1146 956 OFFCURVE",
"1167 1004 CURVE",
"1176 1004 LINE",
"1176 141 LINE",
"864 141 LINE",
"864 0 LINE"
);
}
);
width = 1743;
}
);
note = uniA524;
unicode = A524;
},
{
glyphname = uniA525;
lastChange = "2016-11-10 14:41:34 +0000";
layers = (
{
layerId = "ADED0D52-FD26-4FEF-A6A9-DB4FC8BB207A";
paths = (
{
closed = 1;
nodes = (
"1647 0 LINE",
"1647 141 LINE",
"1335 141 LINE",
"1335 604 LINE",
"1677 604 LINE",
"1677 432 LINE",
"1837 432 LINE",
"1837 928 LINE",
"1677 928 LINE",
"1677 743 LINE",
"1335 743 LINE",
"1335 1462 LINE",
"1176 1462 LINE",
"1176 1321 LINE SMOOTH",
"1176 1213 OFFCURVE",
"1157 1135 OFFCURVE",
"1125 1083 CURVE SMOOTH",
"1093 1031 OFFCURVE",
"1047 1006 OFFCURVE",
"995 1006 CURVE SMOOTH",
"940 1006 OFFCURVE",
"893 1025 OFFCURVE",
"859 1067 CURVE SMOOTH",
"825 1109 OFFCURVE",
"803 1176 OFFCURVE",
"803 1272 CURVE SMOOTH",
"803 1462 LINE",
"643 1462 LINE",
"643 1276 LINE SMOOTH",
"643 1177 OFFCURVE",
"621 1110 OFFCURVE",
"589 1067 CURVE SMOOTH",
"556 1024 OFFCURVE",
"510 1006 OFFCURVE",
"465 1006 CURVE SMOOTH",
"346 1006 OFFCURVE",
"272 1106 OFFCURVE",
"272 1317 CURVE SMOOTH",
"272 1462 LINE",
"113 1462 LINE",
"113 1317 LINE SMOOTH",
"113 1146 OFFCURVE",
"145 1035 OFFCURVE",
"202 966 CURVE SMOOTH",
"258 897 OFFCURVE",
"338 870 OFFCURVE",
"434 870 CURVE SMOOTH",
"487 870 OFFCURVE",
"543 881 OFFCURVE",
"592 910 CURVE SMOOTH",
"640 939 OFFCURVE",
"684 984 OFFCURVE",
"715 1055 CURVE",
"723 1055 LINE",
"744 983 OFFCURVE",
"786 937 OFFCURVE",
"832 909 CURVE SMOOTH",
"878 880 OFFCURVE",
"928 870 OFFCURVE",
"969 870 CURVE SMOOTH",
"1001 870 OFFCURVE",
"1040 880 OFFCURVE",
"1076 901 CURVE SMOOTH",
"1112 922 OFFCURVE",
"1146 956 OFFCURVE",
"1167 1004 CURVE",
"1176 1004 LINE",
"1176 141 LINE",
"864 141 LINE",
"864 0 LINE"
);
},
{
closed = 1;
nodes = (
"1568 276 OFFCURVE",
"1608 312 OFFCURVE",
"1608 379 CURVE SMOOTH",
"1608 443 OFFCURVE",
"1565 481 OFFCURVE",
"1505 481 CURVE SMOOTH",
"1445 481 OFFCURVE",
"1403 443 OFFCURVE",
"1403 379 CURVE SMOOTH",
"1403 312 OFFCURVE",
"1440 276 OFFCURVE",
"1505 276 CURVE SMOOTH"
);
},
{
closed = 1;
nodes = (
"1568 870 OFFCURVE",
"1608 906 OFFCURVE",
"1608 973 CURVE SMOOTH",
"1608 1037 OFFCURVE",
"1565 1075 OFFCURVE",
"1505 1075 CURVE SMOOTH",
"1445 1075 OFFCURVE",
"1403 1037 OFFCURVE",
"1403 973 CURVE SMOOTH",
"1403 906 OFFCURVE",
"1440 870 OFFCURVE",
"1505 870 CURVE SMOOTH"
);
}
);
width = 1927;
}
);
note = uniA525;
unicode = A525;
},
{
glyphname = uniA526;
lastChange = "2016-11-10 14:41:34 +0000";
layers = (
{
layerId = "ADED0D52-FD26-4FEF-A6A9-DB4FC8BB207A";
paths = (
{
closed = 1;
nodes = (
"1647 0 LINE",
"1647 141 LINE",
"1335 141 LINE",
"1335 481 LINE",
"1657 481 LINE",
"1657 309 LINE",
"1817 309 LINE",
"1817 805 LINE",
"1657 805 LINE",
"1657 621 LINE",
"1335 621 LINE",
"1335 1462 LINE",
"1176 1462 LINE",
"1176 1321 LINE SMOOTH",
"1176 1213 OFFCURVE",
"1157 1135 OFFCURVE",
"1125 1083 CURVE SMOOTH",
"1093 1031 OFFCURVE",
"1047 1006 OFFCURVE",
"995 1006 CURVE SMOOTH",
"940 1006 OFFCURVE",
"893 1025 OFFCURVE",
"859 1067 CURVE SMOOTH",
"825 1109 OFFCURVE",
"803 1176 OFFCURVE",
"803 1272 CURVE SMOOTH",
"803 1462 LINE",
"643 1462 LINE",
"643 1276 LINE SMOOTH",
"643 1177 OFFCURVE",
"621 1110 OFFCURVE",
"589 1067 CURVE SMOOTH",
"556 1024 OFFCURVE",
"510 1006 OFFCURVE",
"465 1006 CURVE SMOOTH",
"346 1006 OFFCURVE",
"272 1106 OFFCURVE",
"272 1317 CURVE SMOOTH",
"272 1462 LINE",
"113 1462 LINE",
"113 1317 LINE SMOOTH",
"113 1146 OFFCURVE",
"145 1035 OFFCURVE",
"202 966 CURVE SMOOTH",
"258 897 OFFCURVE",
"338 870 OFFCURVE",
"434 870 CURVE SMOOTH",
"487 870 OFFCURVE",
"543 881 OFFCURVE",
"592 910 CURVE SMOOTH",
"640 939 OFFCURVE",
"684 984 OFFCURVE",
"715 1055 CURVE",
"723 1055 LINE",
"744 983 OFFCURVE",
"786 937 OFFCURVE",
"832 909 CURVE SMOOTH",
"878 880 OFFCURVE",
"928 870 OFFCURVE",
"969 870 CURVE SMOOTH",
"1001 870 OFFCURVE",
"1040 880 OFFCURVE",
"1076 901 CURVE SMOOTH",
"1112 922 OFFCURVE",
"1146 956 OFFCURVE",
"1167 1004 CURVE",
"1176 1004 LINE",
"1176 621 LINE",
"846 621 LINE",
"846 805 LINE",
"686 805 LINE",
"686 309 LINE",
"846 309 LINE",
"846 481 LINE",
"1176 481 LINE",
"1176 141 LINE",
"864 141 LINE",
"864 0 LINE"
);
}
);
width = 1907;
}
);
note = uniA526;
unicode = A526;
},
{
glyphname = uniA527;
lastChange = "2016-11-10 14:41:34 +0000";
layers = (
{
layerId = "ADED0D52-FD26-4FEF-A6A9-DB4FC8BB207A";
paths = (
{
closed = 1;
nodes = (
"626 -20 OFFCURVE",
"733 79 OFFCURVE",
"754 258 CURVE",
"614 279 LINE",
"594 183 OFFCURVE",
"540 119 OFFCURVE",
"461 119 CURVE SMOOTH",
"422 119 OFFCURVE",
"386 135 OFFCURVE",
"360 163 CURVE SMOOTH",
"334 191 OFFCURVE",
"317 231 OFFCURVE",
"317 279 CURVE SMOOTH",
"317 348 OFFCURVE",
"342 414 OFFCURVE",
"387 442 CURVE",
"412 435 OFFCURVE",
"436 434 OFFCURVE",
"461 434 CURVE SMOOTH",
"542 434 OFFCURVE",
"619 464 OFFCURVE",
"674 516 CURVE SMOOTH",
"729 568 OFFCURVE",
"764 642 OFFCURVE",
"764 733 CURVE SMOOTH",
"764 832 OFFCURVE",
"721 912 OFFCURVE",
"653 967 CURVE",
"721 1012 OFFCURVE",
"764 1085 OFFCURVE",
"764 1186 CURVE SMOOTH",
"764 1275 OFFCURVE",
"729 1350 OFFCURVE",
"674 1403 CURVE SMOOTH",
"619 1455 OFFCURVE",
"542 1485 OFFCURVE",
"461 1485 CURVE SMOOTH",
"296 1485 OFFCURVE",
"188 1385 OFFCURVE",
"168 1206 CURVE",
"307 1186 LINE",
"328 1281 OFFCURVE",
"382 1346 OFFCURVE",
"461 1346 CURVE SMOOTH",
"500 1346 OFFCURVE",
"536 1329 OFFCURVE",
"562 1301 CURVE SMOOTH",
"588 1273 OFFCURVE",
"604 1233 OFFCURVE",
"604 1186 CURVE SMOOTH",
"604 1115 OFFCURVE",
"580 1051 OFFCURVE",
"535 1022 CURVE",
"512 1029 OFFCURVE",
"485 1032 OFFCURVE",
"461 1032 CURVE SMOOTH",
"378 1032 OFFCURVE",
"303 1002 OFFCURVE",
"248 950 CURVE SMOOTH",
"193 897 OFFCURVE",
"158 822 OFFCURVE",
"158 733 CURVE SMOOTH",
"158 633 OFFCURVE",
"200 551 OFFCURVE",
"268 498 CURVE",
"200 453 OFFCURVE",
"158 378 OFFCURVE",
"158 279 CURVE SMOOTH",
"158 190 OFFCURVE",
"193 115 OFFCURVE",
"248 63 CURVE SMOOTH",
"303 10 OFFCURVE",
"378 -20 OFFCURVE",
"461 -20 CURVE SMOOTH"
);
},
{
closed = 1;
nodes = (
"422 573 OFFCURVE",
"386 589 OFFCURVE",
"360 617 CURVE SMOOTH",
"334 645 OFFCURVE",
"317 685 OFFCURVE",
"317 733 CURVE SMOOTH",
"317 780 OFFCURVE",
"334 820 OFFCURVE",
"360 848 CURVE SMOOTH",
"386 876 OFFCURVE",
"422 893 OFFCURVE",
"461 893 CURVE SMOOTH",
"500 893 OFFCURVE",
"536 876 OFFCURVE",
"562 848 CURVE SMOOTH",
"588 820 OFFCURVE",
"604 780 OFFCURVE",
"604 733 CURVE SMOOTH",
"604 685 OFFCURVE",
"588 645 OFFCURVE",
"562 617 CURVE SMOOTH",
"536 589 OFFCURVE",
"500 573 OFFCURVE",
"461 573 CURVE SMOOTH"
);
}
);
width = 922;
}
);
note = uniA527;
unicode = A527;
},
{
glyphname = uniA528;
lastChange = "2016-11-10 14:41:34 +0000";
layers = (
{
layerId = "ADED0D52-FD26-4FEF-A6A9-DB4FC8BB207A";
paths = (
{
closed = 1;
nodes = (
"985 70 LINE",
"877 199 LINE",
"1171 442 LINE",
"1183 373 OFFCURVE",
"1217 324 OFFCURVE",
"1264 292 CURVE SMOOTH",
"1311 260 OFFCURVE",
"1370 246 OFFCURVE",
"1430 246 CURVE SMOOTH",
"1495 246 OFFCURVE",
"1552 274 OFFCURVE",
"1593 319 CURVE SMOOTH",
"1633 363 OFFCURVE",
"1657 425 OFFCURVE",
"1657 496 CURVE SMOOTH",
"1657 563 OFFCURVE",
"1632 618 OFFCURVE",
"1592 658 CURVE SMOOTH",
"1551 697 OFFCURVE",
"1494 719 OFFCURVE",
"1430 719 CURVE SMOOTH",
"1391 719 OFFCURVE",
"1358 709 OFFCURVE",
"1327 696 CURVE",
"1327 1462 LINE",
"1167 1462 LINE",
"1167 1394 OFFCURVE",
"1148 1335 OFFCURVE",
"1116 1293 CURVE SMOOTH",
"1084 1251 OFFCURVE",
"1039 1225 OFFCURVE",
"987 1225 CURVE SMOOTH",
"932 1225 OFFCURVE",
"885 1243 OFFCURVE",
"850 1283 CURVE SMOOTH",
"815 1322 OFFCURVE",
"794 1381 OFFCURVE",
"793 1462 CURVE",
"635 1462 LINE",
"635 1298 OFFCURVE",
"563 1225 OFFCURVE",
"455 1225 CURVE SMOOTH",
"410 1225 OFFCURVE",
"365 1238 OFFCURVE",
"330 1275 CURVE SMOOTH",
"295 1311 OFFCURVE",
"272 1370 OFFCURVE",
"272 1462 CURVE",
"113 1462 LINE",
"113 1323 OFFCURVE",
"150 1231 OFFCURVE",
"211 1173 CURVE SMOOTH",
"271 1115 OFFCURVE",
"356 1090 OFFCURVE",
"449 1090 CURVE SMOOTH",
"490 1090 OFFCURVE",
"540 1101 OFFCURVE",
"586 1130 CURVE SMOOTH",
"632 1158 OFFCURVE",
"674 1205 OFFCURVE",
"705 1274 CURVE",
"713 1274 LINE",
"736 1202 OFFCURVE",
"778 1156 OFFCURVE",
"824 1128 CURVE SMOOTH",
"870 1100 OFFCURVE",
"920 1090 OFFCURVE",
"961 1090 CURVE SMOOTH",
"993 1090 OFFCURVE",
"1032 1099 OFFCURVE",
"1068 1120 CURVE SMOOTH",
"1104 1141 OFFCURVE",
"1138 1175 OFFCURVE",
"1159 1223 CURVE",
"1167 1223 LINE",
"1167 1059 LINE SMOOTH",
"1167 991 OFFCURVE",
"1148 931 OFFCURVE",
"1116 889 CURVE SMOOTH",
"1084 847 OFFCURVE",
"1039 821 OFFCURVE",
"987 821 CURVE SMOOTH",
"932 821 OFFCURVE",
"885 840 OFFCURVE",
"850 880 CURVE SMOOTH",
"815 919 OFFCURVE",
"794 978 OFFCURVE",
"793 1059 CURVE",
"635 1059 LINE",
"635 895 OFFCURVE",
"563 821 OFFCURVE",
"455 821 CURVE SMOOTH",
"410 821 OFFCURVE",
"365 834 OFFCURVE",
"330 871 CURVE SMOOTH",
"295 907 OFFCURVE",
"272 967 OFFCURVE",
"272 1059 CURVE",
"113 1059 LINE",
"113 920 OFFCURVE",
"150 828 OFFCURVE",
"211 769 CURVE SMOOTH",
"271 710 OFFCURVE",
"356 686 OFFCURVE",
"449 686 CURVE SMOOTH",
"490 686 OFFCURVE",
"540 697 OFFCURVE",
"586 726 CURVE SMOOTH",
"632 754 OFFCURVE",
"674 801 OFFCURVE",
"705 870 CURVE",
"713 870 LINE",
"736 798 OFFCURVE",
"778 752 OFFCURVE",
"824 724 CURVE SMOOTH",
"870 696 OFFCURVE",
"920 686 OFFCURVE",
"961 686 CURVE SMOOTH",
"993 686 OFFCURVE",
"1032 696 OFFCURVE",
"1068 717 CURVE SMOOTH",
"1104 737 OFFCURVE",
"1138 771 OFFCURVE",
"1159 819 CURVE",
"1167 819 LINE",
"1167 618 LINE",
"788 303 LINE",
"682 430 LINE",
"573 340 LINE",
"877 -20 LINE"
);
},
{
closed = 1;
nodes = (
"1363 381 OFFCURVE",
"1327 418 OFFCURVE",
"1327 514 CURVE SMOOTH",
"1327 553 LINE",
"1374 582 OFFCURVE",
"1409 586 OFFCURVE",
"1430 586 CURVE SMOOTH",
"1490 586 OFFCURVE",
"1532 547 OFFCURVE",
"1532 483 CURVE SMOOTH",
"1532 418 OFFCURVE",
"1491 381 OFFCURVE",
"1430 381 CURVE SMOOTH"
);
}
);
width = 1724;
}
);
note = uniA528;
unicode = A528;
},
{
glyphname = uniA529;
lastChange = "2016-11-10 14:41:34 +0000";
layers = (
{
layerId = "ADED0D52-FD26-4FEF-A6A9-DB4FC8BB207A";
paths = (
{
closed = 1;
nodes = (
"985 70 LINE",
"877 199 LINE",
"1174 444 LINE",
"1186 393 OFFCURVE",
"1211 354 OFFCURVE",
"1244 326 CURVE SMOOTH",
"1277 298 OFFCURVE",
"1319 280 OFFCURVE",
"1364 272 CURVE",
"1364 215 LINE SMOOTH",
"1364 146 OFFCURVE",
"1389 90 OFFCURVE",
"1427 53 CURVE SMOOTH",
"1465 16 OFFCURVE",
"1517 -4 OFFCURVE",
"1573 -4 CURVE SMOOTH",
"1629 -4 OFFCURVE",
"1682 16 OFFCURVE",
"1720 53 CURVE SMOOTH",
"1758 90 OFFCURVE",
"1782 146 OFFCURVE",
"1782 215 CURVE",
"1657 215 LINE",
"1657 150 OFFCURVE",
"1622 111 OFFCURVE",
"1575 111 CURVE SMOOTH",
"1526 111 OFFCURVE",
"1493 146 OFFCURVE",
"1493 213 CURVE SMOOTH",
"1493 274 LINE",
"1589 299 OFFCURVE",
"1657 379 OFFCURVE",
"1657 496 CURVE SMOOTH",
"1657 563 OFFCURVE",
"1632 618 OFFCURVE",
"1592 658 CURVE SMOOTH",
"1551 697 OFFCURVE",
"1494 719 OFFCURVE",
"1430 719 CURVE SMOOTH",
"1391 719 OFFCURVE",
"1358 709 OFFCURVE",
"1327 696 CURVE",
"1327 1462 LINE",
"1167 1462 LINE",
"1167 1394 OFFCURVE",
"1148 1335 OFFCURVE",
"1116 1293 CURVE SMOOTH",
"1084 1251 OFFCURVE",
"1039 1225 OFFCURVE",
"987 1225 CURVE SMOOTH",
"932 1225 OFFCURVE",
"885 1243 OFFCURVE",
"850 1283 CURVE SMOOTH",
"815 1322 OFFCURVE",
"794 1381 OFFCURVE",
"793 1462 CURVE",
"635 1462 LINE",
"635 1298 OFFCURVE",
"563 1225 OFFCURVE",
"455 1225 CURVE SMOOTH",
"410 1225 OFFCURVE",
"365 1238 OFFCURVE",
"330 1275 CURVE SMOOTH",
"295 1311 OFFCURVE",
"272 1370 OFFCURVE",
"272 1462 CURVE",
"113 1462 LINE",
"113 1323 OFFCURVE",
"150 1231 OFFCURVE",
"211 1173 CURVE SMOOTH",
"271 1115 OFFCURVE",
"356 1090 OFFCURVE",
"449 1090 CURVE SMOOTH",
"490 1090 OFFCURVE",
"540 1101 OFFCURVE",
"586 1130 CURVE SMOOTH",
"632 1158 OFFCURVE",
"674 1205 OFFCURVE",
"705 1274 CURVE",
"713 1274 LINE",
"736 1202 OFFCURVE",
"778 1156 OFFCURVE",
"824 1128 CURVE SMOOTH",
"870 1100 OFFCURVE",
"920 1090 OFFCURVE",
"961 1090 CURVE SMOOTH",
"993 1090 OFFCURVE",
"1032 1099 OFFCURVE",
"1068 1120 CURVE SMOOTH",
"1104 1141 OFFCURVE",
"1138 1175 OFFCURVE",
"1159 1223 CURVE",
"1167 1223 LINE",
"1167 1059 LINE SMOOTH",
"1167 991 OFFCURVE",
"1148 931 OFFCURVE",
"1116 889 CURVE SMOOTH",
"1084 847 OFFCURVE",
"1039 821 OFFCURVE",
"987 821 CURVE SMOOTH",
"932 821 OFFCURVE",
"885 840 OFFCURVE",
"850 880 CURVE SMOOTH",
"815 919 OFFCURVE",
"794 978 OFFCURVE",
"793 1059 CURVE",
"635 1059 LINE",
"635 895 OFFCURVE",
"563 821 OFFCURVE",
"455 821 CURVE SMOOTH",
"410 821 OFFCURVE",
"365 834 OFFCURVE",
"330 871 CURVE SMOOTH",
"295 907 OFFCURVE",
"272 967 OFFCURVE",
"272 1059 CURVE",
"113 1059 LINE",
"113 920 OFFCURVE",
"150 828 OFFCURVE",
"211 769 CURVE SMOOTH",
"271 710 OFFCURVE",
"356 686 OFFCURVE",
"449 686 CURVE SMOOTH",
"490 686 OFFCURVE",
"540 697 OFFCURVE",
"586 726 CURVE SMOOTH",
"632 754 OFFCURVE",
"674 801 OFFCURVE",
"705 870 CURVE",
"713 870 LINE",
"736 798 OFFCURVE",
"778 752 OFFCURVE",
"824 724 CURVE SMOOTH",
"870 696 OFFCURVE",
"920 686 OFFCURVE",
"961 686 CURVE SMOOTH",
"993 686 OFFCURVE",
"1032 696 OFFCURVE",
"1068 717 CURVE SMOOTH",
"1104 737 OFFCURVE",
"1138 771 OFFCURVE",
"1159 819 CURVE",
"1167 819 LINE",
"1167 618 LINE",
"788 303 LINE",
"682 430 LINE",
"573 340 LINE",
"877 -20 LINE"
);
},
{
closed = 1;
nodes = (
"1363 381 OFFCURVE",
"1327 418 OFFCURVE",
"1327 514 CURVE SMOOTH",
"1327 553 LINE",
"1374 582 OFFCURVE",
"1409 586 OFFCURVE",
"1430 586 CURVE SMOOTH",
"1490 586 OFFCURVE",
"1532 547 OFFCURVE",
"1532 483 CURVE SMOOTH",
"1532 418 OFFCURVE",
"1491 381 OFFCURVE",
"1430 381 CURVE SMOOTH"
);
}
);
width = 1827;
}
);
note = uniA529;
unicode = A529;
},
{
glyphname = uniA52A;
lastChange = "2016-11-10 14:41:34 +0000";
layers = (
{
layerId = "ADED0D52-FD26-4FEF-A6A9-DB4FC8BB207A";
paths = (
{
closed = 1;
nodes = (
"1085 375 LINE",
"457 743 LINE",
"457 752 LINE",
"1077 1094 LINE",
"227 1483 LINE",
"227 -20 LINE"
);
}
);
width = 1243;
}
);
note = uniA52A;
unicode = A52A;
},
{
glyphname = uniA52B;
lastChange = "2016-11-10 14:41:34 +0000";
layers = (
{
layerId = "ADED0D52-FD26-4FEF-A6A9-DB4FC8BB207A";
paths = (
{
closed = 1;
nodes = (
"332 0 LINE",
"397 112 OFFCURVE",
"452 261 OFFCURVE",
"490 419 CURVE SMOOTH",
"528 577 OFFCURVE",
"551 743 OFFCURVE",
"555 895 CURVE",
"679 898 OFFCURVE",
"802 950 OFFCURVE",
"889 1079 CURVE",
"897 1079 LINE",
"936 1015 OFFCURVE",
"990 971 OFFCURVE",
"1048 941 CURVE SMOOTH",
"1106 911 OFFCURVE",
"1169 896 OFFCURVE",
"1229 895 CURVE",
"1234 743 OFFCURVE",
"1259 573 OFFCURVE",
"1297 414 CURVE SMOOTH",
"1335 255 OFFCURVE",
"1386 108 OFFCURVE",
"1446 0 CURVE",
"1630 0 LINE",
"1565 113 OFFCURVE",
"1507 259 OFFCURVE",
"1464 417 CURVE SMOOTH",
"1421 575 OFFCURVE",
"1394 744 OFFCURVE",
"1389 905 CURVE",
"1470 918 OFFCURVE",
"1552 947 OFFCURVE",
"1613 1000 CURVE SMOOTH",
"1673 1052 OFFCURVE",
"1714 1131 OFFCURVE",
"1714 1243 CURVE SMOOTH",
"1714 1335 OFFCURVE",
"1685 1397 OFFCURVE",
"1643 1436 CURVE SMOOTH",
"1601 1475 OFFCURVE",
"1545 1491 OFFCURVE",
"1493 1491 CURVE SMOOTH",
"1402 1491 OFFCURVE",
"1340 1450 OFFCURVE",
"1298 1373 CURVE SMOOTH",
"1256 1296 OFFCURVE",
"1234 1182 OFFCURVE",
"1229 1034 CURVE",
"1176 1035 OFFCURVE",
"1115 1046 OFFCURVE",
"1065 1079 CURVE SMOOTH",
"1015 1111 OFFCURVE",
"974 1166 OFFCURVE",
"961 1255 CURVE",
"956 1282 LINE",
"838 1282 LINE",
"834 1260 LINE SMOOTH",
"818 1172 OFFCURVE",
"775 1115 OFFCURVE",
"723 1080 CURVE SMOOTH",
"671 1044 OFFCURVE",
"608 1031 OFFCURVE",
"555 1030 CURVE",
"550 1181 OFFCURVE",
"530 1296 OFFCURVE",
"488 1374 CURVE SMOOTH",
"446 1452 OFFCURVE",
"382 1491 OFFCURVE",
"293 1491 CURVE SMOOTH",
"241 1491 OFFCURVE",
"186 1475 OFFCURVE",
"144 1436 CURVE SMOOTH",
"102 1397 OFFCURVE",
"72 1335 OFFCURVE",
"72 1243 CURVE SMOOTH",
"72 1135 OFFCURVE",
"115 1058 OFFCURVE",
"177 1005 CURVE SMOOTH",
"239 952 OFFCURVE",
"319 923 OFFCURVE",
"395 907 CURVE",
"391 744 OFFCURVE",
"364 571 OFFCURVE",
"322 411 CURVE SMOOTH",
"280 251 OFFCURVE",
"221 105 OFFCURVE",
"156 0 CURVE"
);
},
{
closed = 1;
nodes = (
"348 1061 OFFCURVE",
"303 1081 OFFCURVE",
"269 1111 CURVE SMOOTH",
"235 1141 OFFCURVE",
"211 1183 OFFCURVE",
"211 1239 CURVE SMOOTH",
"211 1310 OFFCURVE",
"236 1352 OFFCURVE",
"293 1352 CURVE SMOOTH",
"323 1352 OFFCURVE",
"347 1327 OFFCURVE",
"364 1278 CURVE SMOOTH",
"381 1229 OFFCURVE",
"391 1152 OFFCURVE",
"395 1049 CURVE"
);
},
{
closed = 1;
nodes = (
"1393 1149 OFFCURVE",
"1404 1227 OFFCURVE",
"1422 1277 CURVE SMOOTH",
"1439 1327 OFFCURVE",
"1463 1352 OFFCURVE",
"1493 1352 CURVE SMOOTH",
"1542 1352 OFFCURVE",
"1575 1322 OFFCURVE",
"1575 1239 CURVE SMOOTH",
"1575 1175 OFFCURVE",
"1555 1131 OFFCURVE",
"1521 1101 CURVE SMOOTH",
"1487 1071 OFFCURVE",
"1440 1053 OFFCURVE",
"1389 1044 CURVE"
);
}
);
width = 1786;
}
);
note = uniA52B;
unicode = A52B;
},
{
glyphname = uniA52C;
lastChange = "2016-11-10 14:41:34 +0000";
layers = (
{
layerId = "ADED0D52-FD26-4FEF-A6A9-DB4FC8BB207A";
paths = (
{
closed = 1;
nodes = (
"602 -20 OFFCURVE",
"691 11 OFFCURVE",
"756 76 CURVE SMOOTH",
"821 140 OFFCURVE",
"864 239 OFFCURVE",
"864 375 CURVE SMOOTH",
"864 456 OFFCURVE",
"838 527 OFFCURVE",
"804 580 CURVE SMOOTH",
"770 633 OFFCURVE",
"727 669 OFFCURVE",
"694 682 CURVE",
"696 690 LINE",
"729 682 OFFCURVE",
"777 678 OFFCURVE",
"833 675 CURVE SMOOTH",
"889 672 OFFCURVE",
"952 672 OFFCURVE",
"1020 672 CURVE SMOOTH",
"1110 672 LINE",
"1110 500 LINE",
"1270 500 LINE",
"1270 995 LINE",
"1110 995 LINE",
"1110 811 LINE",
"1020 811 LINE SMOOTH",
"884 811 OFFCURVE",
"771 808 OFFCURVE",
"696 793 CURVE",
"694 801 LINE",
"727 814 OFFCURVE",
"768 852 OFFCURVE",
"800 905 CURVE SMOOTH",
"832 957 OFFCURVE",
"856 1023 OFFCURVE",
"856 1094 CURVE SMOOTH",
"856 1227 OFFCURVE",
"813 1325 OFFCURVE",
"749 1390 CURVE SMOOTH",
"684 1454 OFFCURVE",
"597 1485 OFFCURVE",
"510 1485 CURVE SMOOTH",
"426 1485 OFFCURVE",
"340 1454 OFFCURVE",
"275 1390 CURVE SMOOTH",
"210 1325 OFFCURVE",
"166 1227 OFFCURVE",
"166 1094 CURVE SMOOTH",
"166 1007 OFFCURVE",
"192 930 OFFCURVE",
"232 868 CURVE SMOOTH",
"272 806 OFFCURVE",
"326 759 OFFCURVE",
"385 739 CURVE",
"385 731 LINE",
"328 708 OFFCURVE",
"271 665 OFFCURVE",
"229 605 CURVE SMOOTH",
"187 544 OFFCURVE",
"158 466 OFFCURVE",
"158 375 CURVE SMOOTH",
"158 239 OFFCURVE",
"200 140 OFFCURVE",
"265 76 CURVE SMOOTH",
"329 11 OFFCURVE",
"417 -20 OFFCURVE",
"510 -20 CURVE SMOOTH"
);
},
{
closed = 1;
nodes = (
"453 119 OFFCURVE",
"405 137 OFFCURVE",
"371 178 CURVE SMOOTH",
"337 218 OFFCURVE",
"317 283 OFFCURVE",
"317 375 CURVE SMOOTH",
"317 467 OFFCURVE",
"339 542 OFFCURVE",
"375 594 CURVE SMOOTH",
"410 645 OFFCURVE",
"458 674 OFFCURVE",
"510 674 CURVE SMOOTH",
"563 674 OFFCURVE",
"612 645 OFFCURVE",
"648 594 CURVE SMOOTH",
"683 542 OFFCURVE",
"705 467 OFFCURVE",
"705 375 CURVE SMOOTH",
"705 283 OFFCURVE",
"685 218 OFFCURVE",
"650 178 CURVE SMOOTH",
"615 137 OFFCURVE",
"566 119 OFFCURVE",
"510 119 CURVE SMOOTH"
);
},
{
closed = 1;
nodes = (
"457 807 OFFCURVE",
"410 835 OFFCURVE",
"378 885 CURVE SMOOTH",
"345 935 OFFCURVE",
"326 1006 OFFCURVE",
"326 1094 CURVE SMOOTH",
"326 1182 OFFCURVE",
"348 1245 OFFCURVE",
"382 1286 CURVE SMOOTH",
"416 1327 OFFCURVE",
"461 1346 OFFCURVE",
"510 1346 CURVE SMOOTH",
"561 1346 OFFCURVE",
"608 1327 OFFCURVE",
"642 1286 CURVE SMOOTH",
"676 1245 OFFCURVE",
"696 1182 OFFCURVE",
"696 1094 CURVE SMOOTH",
"696 1006 OFFCURVE",
"676 935 OFFCURVE",
"643 885 CURVE SMOOTH",
"610 835 OFFCURVE",
"563 807 OFFCURVE",
"510 807 CURVE SMOOTH"
);
}
);
width = 1360;
}
);
note = uniA52C;
unicode = A52C;
},
{
glyphname = uniA52D;
lastChange = "2016-11-10 14:41:34 +0000";
layers = (
{
layerId = "ADED0D52-FD26-4FEF-A6A9-DB4FC8BB207A";
paths = (
{
closed = 1;
nodes = (
"602 -20 OFFCURVE",
"691 11 OFFCURVE",
"756 76 CURVE SMOOTH",
"821 140 OFFCURVE",
"864 239 OFFCURVE",
"864 375 CURVE SMOOTH",
"864 456 OFFCURVE",
"838 527 OFFCURVE",
"804 580 CURVE SMOOTH",
"770 633 OFFCURVE",
"727 669 OFFCURVE",
"694 682 CURVE",
"696 690 LINE",
"729 682 OFFCURVE",
"777 678 OFFCURVE",
"833 675 CURVE SMOOTH",
"889 672 OFFCURVE",
"952 672 OFFCURVE",
"1020 672 CURVE SMOOTH",
"1192 672 LINE",
"1192 500 LINE",
"1352 500 LINE",
"1352 995 LINE",
"1192 995 LINE",
"1192 811 LINE",
"1020 811 LINE SMOOTH",
"884 811 OFFCURVE",
"771 808 OFFCURVE",
"696 793 CURVE",
"694 801 LINE",
"727 814 OFFCURVE",
"768 852 OFFCURVE",
"800 905 CURVE SMOOTH",
"832 957 OFFCURVE",
"856 1023 OFFCURVE",
"856 1094 CURVE SMOOTH",
"856 1227 OFFCURVE",
"813 1325 OFFCURVE",
"749 1390 CURVE SMOOTH",
"684 1454 OFFCURVE",
"597 1485 OFFCURVE",
"510 1485 CURVE SMOOTH",
"426 1485 OFFCURVE",
"340 1454 OFFCURVE",
"275 1390 CURVE SMOOTH",
"210 1325 OFFCURVE",
"166 1227 OFFCURVE",
"166 1094 CURVE SMOOTH",
"166 1007 OFFCURVE",
"192 930 OFFCURVE",
"232 868 CURVE SMOOTH",
"272 806 OFFCURVE",
"326 759 OFFCURVE",
"385 739 CURVE",
"385 731 LINE",
"328 708 OFFCURVE",
"271 665 OFFCURVE",
"229 605 CURVE SMOOTH",
"187 544 OFFCURVE",
"158 466 OFFCURVE",
"158 375 CURVE SMOOTH",
"158 239 OFFCURVE",
"200 140 OFFCURVE",
"265 76 CURVE SMOOTH",
"329 11 OFFCURVE",
"417 -20 OFFCURVE",
"510 -20 CURVE SMOOTH"
);
},
{
closed = 1;
nodes = (
"453 119 OFFCURVE",
"405 137 OFFCURVE",
"371 178 CURVE SMOOTH",
"337 218 OFFCURVE",
"317 283 OFFCURVE",
"317 375 CURVE SMOOTH",
"317 467 OFFCURVE",
"339 542 OFFCURVE",
"375 594 CURVE SMOOTH",
"410 645 OFFCURVE",
"458 674 OFFCURVE",
"510 674 CURVE SMOOTH",
"563 674 OFFCURVE",
"612 645 OFFCURVE",
"648 594 CURVE SMOOTH",
"683 542 OFFCURVE",
"705 467 OFFCURVE",
"705 375 CURVE SMOOTH",
"705 283 OFFCURVE",
"685 218 OFFCURVE",
"650 178 CURVE SMOOTH",
"615 137 OFFCURVE",
"566 119 OFFCURVE",
"510 119 CURVE SMOOTH"
);
},
{
closed = 1;
nodes = (
"1081 313 OFFCURVE",
"1122 349 OFFCURVE",
"1122 416 CURVE SMOOTH",
"1122 480 OFFCURVE",
"1080 518 OFFCURVE",
"1020 518 CURVE SMOOTH",
"960 518 OFFCURVE",
"918 480 OFFCURVE",
"918 416 CURVE SMOOTH",
"918 349 OFFCURVE",
"953 313 OFFCURVE",
"1020 313 CURVE SMOOTH"
);
},
{
closed = 1;
nodes = (
"457 807 OFFCURVE",
"410 835 OFFCURVE",
"378 885 CURVE SMOOTH",
"345 935 OFFCURVE",
"326 1006 OFFCURVE",
"326 1094 CURVE SMOOTH",
"326 1182 OFFCURVE",
"348 1245 OFFCURVE",
"382 1286 CURVE SMOOTH",
"416 1327 OFFCURVE",
"461 1346 OFFCURVE",
"510 1346 CURVE SMOOTH",
"561 1346 OFFCURVE",
"608 1327 OFFCURVE",
"642 1286 CURVE SMOOTH",
"676 1245 OFFCURVE",
"696 1182 OFFCURVE",
"696 1094 CURVE SMOOTH",
"696 1006 OFFCURVE",
"676 935 OFFCURVE",
"643 885 CURVE SMOOTH",
"610 835 OFFCURVE",
"563 807 OFFCURVE",
"510 807 CURVE SMOOTH"
);
},
{
closed = 1;
nodes = (
"1081 965 OFFCURVE",
"1122 1000 OFFCURVE",
"1122 1067 CURVE SMOOTH",
"1122 1131 OFFCURVE",
"1080 1169 OFFCURVE",
"1020 1169 CURVE SMOOTH",
"960 1169 OFFCURVE",
"918 1131 OFFCURVE",
"918 1067 CURVE SMOOTH",
"918 1000 OFFCURVE",
"953 965 OFFCURVE",
"1020 965 CURVE SMOOTH"
);
}
);
width = 1442;
}
);
note = uniA52D;
unicode = A52D;
},
{
glyphname = uniA52E;
lastChange = "2016-11-10 14:41:34 +0000";
layers = (
{
layerId = "ADED0D52-FD26-4FEF-A6A9-DB4FC8BB207A";
paths = (
{
closed = 1;
nodes = (
"794 227 OFFCURVE",
"929 281 OFFCURVE",
"1025 378 CURVE SMOOTH",
"1120 474 OFFCURVE",
"1174 614 OFFCURVE",
"1174 786 CURVE SMOOTH",
"1174 955 OFFCURVE",
"1117 1096 OFFCURVE",
"1021 1196 CURVE SMOOTH",
"925 1295 OFFCURVE",
"789 1352 OFFCURVE",
"633 1352 CURVE SMOOTH",
"474 1352 OFFCURVE",
"339 1295 OFFCURVE",
"243 1196 CURVE SMOOTH",
"147 1096 OFFCURVE",
"90 955 OFFCURVE",
"90 786 CURVE SMOOTH",
"90 614 OFFCURVE",
"140 474 OFFCURVE",
"233 378 CURVE SMOOTH",
"325 281 OFFCURVE",
"461 227 OFFCURVE",
"633 227 CURVE SMOOTH"
);
},
{
closed = 1;
nodes = (
"496 367 OFFCURVE",
"392 417 OFFCURVE",
"328 508 CURVE",
"496 604 LINE",
"533 579 OFFCURVE",
"578 567 OFFCURVE",
"633 567 CURVE SMOOTH",
"686 567 OFFCURVE",
"732 579 OFFCURVE",
"770 604 CURVE",
"934 510 LINE",
"866 418 OFFCURVE",
"762 367 OFFCURVE",
"633 367 CURVE SMOOTH"
);
},
{
closed = 1;
nodes = (
"256 682 OFFCURVE",
"250 731 OFFCURVE",
"250 786 CURVE SMOOTH",
"250 899 OFFCURVE",
"282 997 OFFCURVE",
"337 1070 CURVE SMOOTH",
"392 1142 OFFCURVE",
"470 1190 OFFCURVE",
"565 1206 CURVE",
"565 991 LINE",
"469 968 OFFCURVE",
"410 896 OFFCURVE",
"410 784 CURVE SMOOTH",
"410 761 OFFCURVE",
"412 741 OFFCURVE",
"416 723 CURVE",
"268 637 LINE"
);
},
{
closed = 1;
nodes = (
"566 682 OFFCURVE",
"530 719 OFFCURVE",
"530 784 CURVE SMOOTH",
"530 848 OFFCURVE",
"573 887 OFFCURVE",
"633 887 CURVE SMOOTH",
"693 887 OFFCURVE",
"735 848 OFFCURVE",
"735 784 CURVE SMOOTH",
"735 719 OFFCURVE",
"694 682 OFFCURVE",
"633 682 CURVE SMOOTH"
);
},
{
closed = 1;
nodes = (
"852 721 LINE",
"859 741 OFFCURVE",
"860 762 OFFCURVE",
"860 786 CURVE SMOOTH",
"860 894 OFFCURVE",
"798 965 OFFCURVE",
"707 989 CURVE",
"707 1204 LINE",
"798 1188 OFFCURVE",
"875 1139 OFFCURVE",
"929 1067 CURVE SMOOTH",
"983 994 OFFCURVE",
"1014 898 OFFCURVE",
"1014 786 CURVE SMOOTH",
"1014 732 OFFCURVE",
"1008 683 OFFCURVE",
"995 639 CURVE"
);
}
);
width = 1264;
}
);
note = uniA52E;
unicode = A52E;
},
{
glyphname = uniA52F;
lastChange = "2016-11-10 14:41:34 +0000";
layers = (
{
layerId = "ADED0D52-FD26-4FEF-A6A9-DB4FC8BB207A";
paths = (
{
closed = 1;
nodes = (
"741 0 LINE",
"741 362 LINE",
"1135 362 LINE",
"1135 504 LINE",
"741 504 LINE",
"741 1321 LINE",
"1278 1321 LINE",
"1278 1462 LINE",
"45 1462 LINE",
"45 1321 LINE",
"582 1321 LINE",
"582 504 LINE",
"188 504 LINE",
"188 362 LINE",
"582 362 LINE",
"582 0 LINE"
);
},
{
closed = 1;
nodes = (
"387 0 OFFCURVE",
"428 37 OFFCURVE",
"428 102 CURVE SMOOTH",
"428 166 OFFCURVE",
"386 205 OFFCURVE",
"326 205 CURVE SMOOTH",
"266 205 OFFCURVE",
"223 166 OFFCURVE",
"223 102 CURVE SMOOTH",
"223 37 OFFCURVE",
"259 0 OFFCURVE",
"326 0 CURVE SMOOTH"
);
},
{
closed = 1;
nodes = (
"387 666 OFFCURVE",
"428 701 OFFCURVE",
"428 768 CURVE SMOOTH",
"428 832 OFFCURVE",
"386 870 OFFCURVE",
"326 870 CURVE SMOOTH",
"266 870 OFFCURVE",
"223 832 OFFCURVE",
"223 768 CURVE SMOOTH",
"223 701 OFFCURVE",
"259 666 OFFCURVE",
"326 666 CURVE SMOOTH"
);
},
{
closed = 1;
nodes = (
"1056 0 OFFCURVE",
"1096 37 OFFCURVE",
"1096 102 CURVE SMOOTH",
"1096 166 OFFCURVE",
"1053 205 OFFCURVE",
"993 205 CURVE SMOOTH",
"933 205 OFFCURVE",
"891 166 OFFCURVE",
"891 102 CURVE SMOOTH",
"891 37 OFFCURVE",
"928 0 OFFCURVE",
"993 0 CURVE SMOOTH"
);
},
{
closed = 1;
nodes = (
"1056 666 OFFCURVE",
"1096 701 OFFCURVE",
"1096 768 CURVE SMOOTH",
"1096 832 OFFCURVE",
"1053 870 OFFCURVE",
"993 870 CURVE SMOOTH",
"933 870 OFFCURVE",
"891 832 OFFCURVE",
"891 768 CURVE SMOOTH",
"891 701 OFFCURVE",
"928 666 OFFCURVE",
"993 666 CURVE SMOOTH"
);
}
);
width = 1323;
}
);
note = uniA52F;
unicode = A52F;
},
{
glyphname = uniA530;
lastChange = "2016-11-10 14:41:34 +0000";
layers = (
{
layerId = "ADED0D52-FD26-4FEF-A6A9-DB4FC8BB207A";
paths = (
{
closed = 1;
nodes = (
"868 0 LINE",
"868 694 LINE",
"1487 694 LINE",
"1487 836 LINE",
"868 836 LINE",
"868 1462 LINE",
"709 1462 LINE",
"709 836 LINE",
"90 836 LINE",
"90 694 LINE",
"709 694 LINE",
"709 0 LINE"
);
},
{
closed = 1;
nodes = (
"536 356 OFFCURVE",
"575 392 OFFCURVE",
"575 459 CURVE SMOOTH",
"575 523 OFFCURVE",
"533 561 OFFCURVE",
"473 561 CURVE SMOOTH",
"413 561 OFFCURVE",
"371 523 OFFCURVE",
"371 459 CURVE SMOOTH",
"371 392 OFFCURVE",
"408 356 OFFCURVE",
"473 356 CURVE SMOOTH"
);
},
{
closed = 1;
nodes = (
"536 969 OFFCURVE",
"575 1006 OFFCURVE",
"575 1071 CURVE SMOOTH",
"575 1135 OFFCURVE",
"533 1174 OFFCURVE",
"473 1174 CURVE SMOOTH",
"413 1174 OFFCURVE",
"371 1135 OFFCURVE",
"371 1071 CURVE SMOOTH",
"371 1006 OFFCURVE",
"408 969 OFFCURVE",
"473 969 CURVE SMOOTH"
);
},
{
closed = 1;
nodes = (
"1165 356 OFFCURVE",
"1206 392 OFFCURVE",
"1206 459 CURVE SMOOTH",
"1206 523 OFFCURVE",
"1164 561 OFFCURVE",
"1104 561 CURVE SMOOTH",
"1044 561 OFFCURVE",
"1001 523 OFFCURVE",
"1001 459 CURVE SMOOTH",
"1001 392 OFFCURVE",
"1037 356 OFFCURVE",
"1104 356 CURVE SMOOTH"
);
},
{
closed = 1;
nodes = (
"1165 969 OFFCURVE",
"1206 1006 OFFCURVE",
"1206 1071 CURVE SMOOTH",
"1206 1135 OFFCURVE",
"1164 1174 OFFCURVE",
"1104 1174 CURVE SMOOTH",
"1044 1174 OFFCURVE",
"1001 1135 OFFCURVE",
"1001 1071 CURVE SMOOTH",
"1001 1006 OFFCURVE",
"1037 969 OFFCURVE",
"1104 969 CURVE SMOOTH"
);
}
);
width = 1577;
}
);
note = uniA530;
unicode = A530;
},
{
glyphname = uniA531;
lastChange = "2016-11-10 14:41:34 +0000";
layers = (
{
layerId = "ADED0D52-FD26-4FEF-A6A9-DB4FC8BB207A";
paths = (
{
closed = 1;
nodes = (
"689 -10 OFFCURVE",
"778 51 OFFCURVE",
"834 143 CURVE",
"842 143 LINE",
"866 95 OFFCURVE",
"898 57 OFFCURVE",
"943 31 CURVE SMOOTH",
"988 5 OFFCURVE",
"1047 -10 OFFCURVE",
"1126 -10 CURVE SMOOTH",
"1222 -10 OFFCURVE",
"1303 12 OFFCURVE",
"1360 77 CURVE SMOOTH",
"1416 141 OFFCURVE",
"1448 249 OFFCURVE",
"1448 422 CURVE SMOOTH",
"1448 582 LINE",
"1288 582 LINE",
"1288 420 LINE SMOOTH",
"1288 312 OFFCURVE",
"1274 239 OFFCURVE",
"1244 192 CURVE SMOOTH",
"1214 145 OFFCURVE",
"1167 125 OFFCURVE",
"1106 125 CURVE SMOOTH",
"1055 125 OFFCURVE",
"1008 139 OFFCURVE",
"974 177 CURVE SMOOTH",
"940 215 OFFCURVE",
"918 276 OFFCURVE",
"918 375 CURVE SMOOTH",
"918 582 LINE",
"758 582 LINE",
"758 375 LINE SMOOTH",
"758 276 OFFCURVE",
"737 215 OFFCURVE",
"702 177 CURVE SMOOTH",
"667 139 OFFCURVE",
"621 125 OFFCURVE",
"569 125 CURVE SMOOTH",
"506 125 OFFCURVE",
"462 145 OFFCURVE",
"432 192 CURVE SMOOTH",
"402 239 OFFCURVE",
"387 312 OFFCURVE",
"387 420 CURVE SMOOTH",
"387 963 LINE",
"395 963 LINE",
"428 896 OFFCURVE",
"496 870 OFFCURVE",
"569 870 CURVE SMOOTH",
"698 870 OFFCURVE",
"778 932 OFFCURVE",
"834 1024 CURVE",
"842 1024 LINE",
"866 976 OFFCURVE",
"898 938 OFFCURVE",
"943 911 CURVE SMOOTH",
"988 884 OFFCURVE",
"1047 870 OFFCURVE",
"1126 870 CURVE SMOOTH",
"1222 870 OFFCURVE",
"1303 892 OFFCURVE",
"1360 957 CURVE SMOOTH",
"1416 1021 OFFCURVE",
"1448 1130 OFFCURVE",
"1448 1303 CURVE SMOOTH",
"1448 1462 LINE",
"1288 1462 LINE",
"1288 1300 LINE SMOOTH",
"1288 1192 OFFCURVE",
"1276 1119 OFFCURVE",
"1248 1072 CURVE SMOOTH",
"1219 1025 OFFCURVE",
"1174 1006 OFFCURVE",
"1106 1006 CURVE SMOOTH",
"1055 1006 OFFCURVE",
"1008 1020 OFFCURVE",
"974 1057 CURVE SMOOTH",
"940 1094 OFFCURVE",
"918 1156 OFFCURVE",
"918 1255 CURVE SMOOTH",
"918 1462 LINE",
"758 1462 LINE",
"758 1255 LINE SMOOTH",
"758 1156 OFFCURVE",
"737 1094 OFFCURVE",
"702 1057 CURVE SMOOTH",
"667 1020 OFFCURVE",
"621 1006 OFFCURVE",
"569 1006 CURVE SMOOTH",
"514 1006 OFFCURVE",
"469 1025 OFFCURVE",
"437 1072 CURVE SMOOTH",
"405 1119 OFFCURVE",
"387 1192 OFFCURVE",
"387 1300 CURVE SMOOTH",
"387 1462 LINE",
"227 1462 LINE",
"227 422 LINE SMOOTH",
"227 249 OFFCURVE",
"259 141 OFFCURVE",
"316 77 CURVE SMOOTH",
"372 12 OFFCURVE",
"453 -10 OFFCURVE",
"549 -10 CURVE SMOOTH"
);
}
);
width = 1628;
}
);
note = uniA531;
unicode = A531;
},
{
glyphname = uniA532;
lastChange = "2016-11-10 14:41:34 +0000";
layers = (
{
layerId = "ADED0D52-FD26-4FEF-A6A9-DB4FC8BB207A";
paths = (
{
closed = 1;
nodes = (
"707 -20 OFFCURVE",
"822 96 OFFCURVE",
"825 344 CURVE",
"834 344 LINE",
"850 312 OFFCURVE",
"882 285 OFFCURVE",
"919 266 CURVE SMOOTH",
"955 246 OFFCURVE",
"998 236 OFFCURVE",
"1034 236 CURVE SMOOTH",
"1130 236 OFFCURVE",
"1211 258 OFFCURVE",
"1268 323 CURVE SMOOTH",
"1324 387 OFFCURVE",
"1356 495 OFFCURVE",
"1356 668 CURVE SMOOTH",
"1356 684 LINE",
"1196 684 LINE",
"1196 666 LINE SMOOTH",
"1196 558 OFFCURVE",
"1182 485 OFFCURVE",
"1152 438 CURVE SMOOTH",
"1122 391 OFFCURVE",
"1075 371 OFFCURVE",
"1014 371 CURVE SMOOTH",
"962 371 OFFCURVE",
"916 385 OFFCURVE",
"881 423 CURVE SMOOTH",
"846 461 OFFCURVE",
"825 522 OFFCURVE",
"825 621 CURVE SMOOTH",
"825 684 LINE",
"666 684 LINE",
"666 621 LINE SMOOTH",
"666 522 OFFCURVE",
"645 461 OFFCURVE",
"610 423 CURVE SMOOTH",
"575 385 OFFCURVE",
"529 371 OFFCURVE",
"477 371 CURVE SMOOTH",
"414 371 OFFCURVE",
"370 391 OFFCURVE",
"340 438 CURVE SMOOTH",
"310 485 OFFCURVE",
"295 558 OFFCURVE",
"295 666 CURVE SMOOTH",
"295 825 LINE",
"303 825 LINE",
"336 760 OFFCURVE",
"402 733 OFFCURVE",
"477 733 CURVE SMOOTH",
"541 733 OFFCURVE",
"593 748 OFFCURVE",
"637 776 CURVE SMOOTH",
"680 803 OFFCURVE",
"713 840 OFFCURVE",
"741 887 CURVE",
"750 887 LINE",
"774 839 OFFCURVE",
"806 801 OFFCURVE",
"851 774 CURVE SMOOTH",
"896 747 OFFCURVE",
"955 733 OFFCURVE",
"1034 733 CURVE SMOOTH",
"1130 733 OFFCURVE",
"1211 755 OFFCURVE",
"1268 820 CURVE SMOOTH",
"1324 884 OFFCURVE",
"1356 992 OFFCURVE",
"1356 1165 CURVE SMOOTH",
"1356 1202 LINE",
"1196 1202 LINE",
"1196 1163 LINE SMOOTH",
"1196 1055 OFFCURVE",
"1184 982 OFFCURVE",
"1156 935 CURVE SMOOTH",
"1127 888 OFFCURVE",
"1082 868 OFFCURVE",
"1014 868 CURVE SMOOTH",
"963 868 OFFCURVE",
"917 881 OFFCURVE",
"882 919 CURVE SMOOTH",
"847 957 OFFCURVE",
"825 1019 OFFCURVE",
"825 1118 CURVE SMOOTH",
"825 1287 OFFCURVE",
"870 1356 OFFCURVE",
"973 1356 CURVE SMOOTH",
"998 1356 OFFCURVE",
"1018 1354 OFFCURVE",
"1031 1351 CURVE SMOOTH",
"1044 1348 OFFCURVE",
"1054 1344 OFFCURVE",
"1061 1341 CURVE",
"1087 1466 LINE",
"1064 1477 OFFCURVE",
"1024 1485 OFFCURVE",
"973 1485 CURVE SMOOTH",
"877 1485 OFFCURVE",
"801 1455 OFFCURVE",
"748 1395 CURVE SMOOTH",
"695 1334 OFFCURVE",
"666 1242 OFFCURVE",
"666 1118 CURVE SMOOTH",
"666 1019 OFFCURVE",
"645 958 OFFCURVE",
"610 920 CURVE SMOOTH",
"575 882 OFFCURVE",
"529 868 OFFCURVE",
"477 868 CURVE SMOOTH",
"422 868 OFFCURVE",
"377 888 OFFCURVE",
"345 935 CURVE SMOOTH",
"313 982 OFFCURVE",
"295 1055 OFFCURVE",
"295 1163 CURVE SMOOTH",
"295 1202 LINE",
"135 1202 LINE",
"135 668 LINE SMOOTH",
"135 495 OFFCURVE",
"167 387 OFFCURVE",
"224 323 CURVE SMOOTH",
"280 258 OFFCURVE",
"361 236 OFFCURVE",
"457 236 CURVE SMOOTH",
"493 236 OFFCURVE",
"536 246 OFFCURVE",
"573 266 CURVE SMOOTH",
"609 285 OFFCURVE",
"641 312 OFFCURVE",
"657 344 CURVE",
"666 344 LINE",
"666 176 OFFCURVE",
"621 109 OFFCURVE",
"518 109 CURVE SMOOTH",
"493 109 OFFCURVE",
"474 111 OFFCURVE",
"461 114 CURVE SMOOTH",
"448 117 OFFCURVE",
"437 120 OFFCURVE",
"430 123 CURVE",
"403 -2 LINE",
"426 -13 OFFCURVE",
"467 -20 OFFCURVE",
"518 -20 CURVE SMOOTH"
);
}
);
width = 1491;
}
);
note = uniA532;
unicode = A532;
},
{
glyphname = uniA533;
lastChange = "2016-11-10 14:41:34 +0000";
layers = (
{
layerId = "ADED0D52-FD26-4FEF-A6A9-DB4FC8BB207A";
paths = (
{
closed = 1;
nodes = (
"1237 -23 OFFCURVE",
"1329 13 OFFCURVE",
"1405 78 CURVE SMOOTH",
"1480 143 OFFCURVE",
"1538 236 OFFCURVE",
"1573 352 CURVE",
"1436 387 LINE",
"1385 216 OFFCURVE",
"1285 117 OFFCURVE",
"1137 117 CURVE SMOOTH",
"1064 117 OFFCURVE",
"1004 143 OFFCURVE",
"963 189 CURVE SMOOTH",
"922 235 OFFCURVE",
"899 300 OFFCURVE",
"899 381 CURVE SMOOTH",
"899 528 OFFCURVE",
"958 698 OFFCURVE",
"1051 875 CURVE SMOOTH",
"1143 1052 OFFCURVE",
"1270 1236 OFFCURVE",
"1405 1411 CURVE",
"1274 1485 LINE",
"1153 1328 OFFCURVE",
"1041 1167 OFFCURVE",
"950 1010 CURVE",
"907 1019 OFFCURVE",
"871 1044 OFFCURVE",
"845 1086 CURVE SMOOTH",
"819 1128 OFFCURVE",
"803 1189 OFFCURVE",
"803 1272 CURVE SMOOTH",
"803 1462 LINE",
"643 1462 LINE",
"643 1276 LINE SMOOTH",
"643 1177 OFFCURVE",
"621 1110 OFFCURVE",
"589 1067 CURVE SMOOTH",
"556 1024 OFFCURVE",
"510 1006 OFFCURVE",
"465 1006 CURVE SMOOTH",
"346 1006 OFFCURVE",
"272 1106 OFFCURVE",
"272 1317 CURVE SMOOTH",
"272 1462 LINE",
"113 1462 LINE",
"113 1317 LINE SMOOTH",
"113 1146 OFFCURVE",
"145 1035 OFFCURVE",
"202 966 CURVE SMOOTH",
"258 897 OFFCURVE",
"338 870 OFFCURVE",
"434 870 CURVE SMOOTH",
"487 870 OFFCURVE",
"543 881 OFFCURVE",
"592 910 CURVE SMOOTH",
"640 939 OFFCURVE",
"684 984 OFFCURVE",
"715 1055 CURVE",
"723 1055 LINE",
"752 956 OFFCURVE",
"816 905 OFFCURVE",
"883 885 CURVE",
"792 706 OFFCURVE",
"739 533 OFFCURVE",
"739 381 CURVE SMOOTH",
"739 257 OFFCURVE",
"778 156 OFFCURVE",
"847 86 CURVE SMOOTH",
"915 16 OFFCURVE",
"1014 -23 OFFCURVE",
"1137 -23 CURVE SMOOTH"
);
},
{
closed = 1;
nodes = (
"1198 268 OFFCURVE",
"1239 304 OFFCURVE",
"1239 371 CURVE SMOOTH",
"1239 435 OFFCURVE",
"1197 473 OFFCURVE",
"1137 473 CURVE SMOOTH",
"1077 473 OFFCURVE",
"1034 435 OFFCURVE",
"1034 371 CURVE SMOOTH",
"1034 304 OFFCURVE",
"1070 268 OFFCURVE",
"1137 268 CURVE SMOOTH"
);
},
{
closed = 1;
nodes = (
"1409 678 OFFCURVE",
"1450 715 OFFCURVE",
"1450 780 CURVE SMOOTH",
"1450 844 OFFCURVE",
"1408 883 OFFCURVE",
"1348 883 CURVE SMOOTH",
"1288 883 OFFCURVE",
"1245 844 OFFCURVE",
"1245 780 CURVE SMOOTH",
"1245 715 OFFCURVE",
"1281 678 OFFCURVE",
"1348 678 CURVE SMOOTH"
);
}
);
width = 1640;
}
);
note = uniA533;
unicode = A533;
},
{
glyphname = uniA534;
lastChange = "2016-11-10 14:41:34 +0000";
layers = (
{
layerId = "ADED0D52-FD26-4FEF-A6A9-DB4FC8BB207A";
paths = (
{
closed = 1;
nodes = (
"1237 -23 OFFCURVE",
"1329 13 OFFCURVE",
"1405 78 CURVE SMOOTH",
"1480 143 OFFCURVE",
"1538 236 OFFCURVE",
"1573 352 CURVE",
"1436 387 LINE",
"1385 216 OFFCURVE",
"1285 117 OFFCURVE",
"1137 117 CURVE SMOOTH",
"1064 117 OFFCURVE",
"1004 143 OFFCURVE",
"963 189 CURVE SMOOTH",
"922 235 OFFCURVE",
"899 300 OFFCURVE",
"899 381 CURVE SMOOTH",
"899 528 OFFCURVE",
"958 698 OFFCURVE",
"1051 875 CURVE SMOOTH",
"1143 1052 OFFCURVE",
"1270 1236 OFFCURVE",
"1405 1411 CURVE",
"1274 1485 LINE",
"1153 1328 OFFCURVE",
"1041 1167 OFFCURVE",
"950 1010 CURVE",
"907 1019 OFFCURVE",
"871 1044 OFFCURVE",
"845 1086 CURVE SMOOTH",
"819 1128 OFFCURVE",
"803 1189 OFFCURVE",
"803 1272 CURVE SMOOTH",
"803 1462 LINE",
"643 1462 LINE",
"643 1276 LINE SMOOTH",
"643 1177 OFFCURVE",
"621 1110 OFFCURVE",
"589 1067 CURVE SMOOTH",
"556 1024 OFFCURVE",
"510 1006 OFFCURVE",
"465 1006 CURVE SMOOTH",
"346 1006 OFFCURVE",
"272 1106 OFFCURVE",
"272 1317 CURVE SMOOTH",
"272 1462 LINE",
"113 1462 LINE",
"113 1317 LINE SMOOTH",
"113 1146 OFFCURVE",
"145 1035 OFFCURVE",
"202 966 CURVE SMOOTH",
"258 897 OFFCURVE",
"338 870 OFFCURVE",
"434 870 CURVE SMOOTH",
"487 870 OFFCURVE",
"543 881 OFFCURVE",
"592 910 CURVE SMOOTH",
"640 939 OFFCURVE",
"684 984 OFFCURVE",
"715 1055 CURVE",
"723 1055 LINE",
"752 956 OFFCURVE",
"816 905 OFFCURVE",
"883 885 CURVE",
"792 706 OFFCURVE",
"739 533 OFFCURVE",
"739 381 CURVE SMOOTH",
"739 257 OFFCURVE",
"778 156 OFFCURVE",
"847 86 CURVE SMOOTH",
"915 16 OFFCURVE",
"1014 -23 OFFCURVE",
"1137 -23 CURVE SMOOTH"
);
},
{
closed = 1;
nodes = (
"1198 268 OFFCURVE",
"1239 304 OFFCURVE",
"1239 371 CURVE SMOOTH",
"1239 435 OFFCURVE",
"1197 473 OFFCURVE",
"1137 473 CURVE SMOOTH",
"1077 473 OFFCURVE",
"1034 435 OFFCURVE",
"1034 371 CURVE SMOOTH",
"1034 304 OFFCURVE",
"1070 268 OFFCURVE",
"1137 268 CURVE SMOOTH"
);
},
{
closed = 1;
nodes = (
"1409 678 OFFCURVE",
"1450 715 OFFCURVE",
"1450 780 CURVE SMOOTH",
"1450 844 OFFCURVE",
"1408 883 OFFCURVE",
"1348 883 CURVE SMOOTH",
"1288 883 OFFCURVE",
"1245 844 OFFCURVE",
"1245 780 CURVE SMOOTH",
"1245 715 OFFCURVE",
"1281 678 OFFCURVE",
"1348 678 CURVE SMOOTH"
);
},
{
closed = 1;
nodes = (
"1620 1087 OFFCURVE",
"1661 1123 OFFCURVE",
"1661 1190 CURVE SMOOTH",
"1661 1254 OFFCURVE",
"1619 1292 OFFCURVE",
"1559 1292 CURVE SMOOTH",
"1499 1292 OFFCURVE",
"1456 1254 OFFCURVE",
"1456 1190 CURVE SMOOTH",
"1456 1123 OFFCURVE",
"1492 1087 OFFCURVE",
"1559 1087 CURVE SMOOTH"
);
}
);
width = 1729;
}
);
note = uniA534;
unicode = A534;
},
{
glyphname = uniA535;
lastChange = "2016-11-10 14:41:34 +0000";
layers = (
{
layerId = "ADED0D52-FD26-4FEF-A6A9-DB4FC8BB207A";
paths = (
{
closed = 1;
nodes = (
"387 0 LINE",
"387 639 LINE",
"431 718 OFFCURVE",
"505 797 OFFCURVE",
"597 857 CURVE SMOOTH",
"688 916 OFFCURVE",
"796 956 OFFCURVE",
"911 956 CURVE SMOOTH",
"970 956 OFFCURVE",
"1011 947 OFFCURVE",
"1043 931 CURVE SMOOTH",
"1074 915 OFFCURVE",
"1094 891 OFFCURVE",
"1110 862 CURVE",
"1104 858 LINE",
"1085 870 OFFCURVE",
"1067 877 OFFCURVE",
"1030 877 CURVE SMOOTH",
"978 877 OFFCURVE",
"931 859 OFFCURVE",
"898 827 CURVE SMOOTH",
"865 794 OFFCURVE",
"844 746 OFFCURVE",
"844 686 CURVE SMOOTH",
"844 539 OFFCURVE",
"930 467 OFFCURVE",
"1063 467 CURVE SMOOTH",
"1123 467 OFFCURVE",
"1178 490 OFFCURVE",
"1219 535 CURVE SMOOTH",
"1260 580 OFFCURVE",
"1286 648 OFFCURVE",
"1286 737 CURVE SMOOTH",
"1286 876 OFFCURVE",
"1241 965 OFFCURVE",
"1174 1021 CURVE SMOOTH",
"1107 1076 OFFCURVE",
"1018 1096 OFFCURVE",
"930 1096 CURVE SMOOTH",
"813 1096 OFFCURVE",
"714 1069 OFFCURVE",
"627 1021 CURVE SMOOTH",
"540 973 OFFCURVE",
"464 904 OFFCURVE",
"395 819 CURVE",
"387 819 LINE",
"387 1462 LINE",
"227 1462 LINE",
"227 0 LINE"
);
},
{
closed = 1;
nodes = (
"1020 582 OFFCURVE",
"999 587 OFFCURVE",
"984 603 CURVE",
"968 618 OFFCURVE",
"958 643 OFFCURVE",
"958 684 CURVE SMOOTH",
"958 712 OFFCURVE",
"966 740 OFFCURVE",
"980 761 CURVE SMOOTH",
"994 782 OFFCURVE",
"1013 797 OFFCURVE",
"1040 797 CURVE SMOOTH",
"1049 797 OFFCURVE",
"1065 796 OFFCURVE",
"1081 792 CURVE SMOOTH",
"1097 788 OFFCURVE",
"1113 781 OFFCURVE",
"1124 772 CURVE",
"1128 753 OFFCURVE",
"1133 729 OFFCURVE",
"1133 694 CURVE SMOOTH",
"1133 621 OFFCURVE",
"1096 582 OFFCURVE",
"1040 582 CURVE SMOOTH"
);
}
);
width = 1354;
}
);
note = uniA535;
unicode = A535;
},
{
glyphname = uniA536;
lastChange = "2016-11-10 14:41:34 +0000";
layers = (
{
layerId = "ADED0D52-FD26-4FEF-A6A9-DB4FC8BB207A";
paths = (
{
closed = 1;
nodes = (
"387 0 LINE",
"387 639 LINE",
"431 718 OFFCURVE",
"505 797 OFFCURVE",
"597 857 CURVE SMOOTH",
"688 916 OFFCURVE",
"796 956 OFFCURVE",
"911 956 CURVE SMOOTH",
"970 956 OFFCURVE",
"1011 948 OFFCURVE",
"1043 932 CURVE SMOOTH",
"1074 916 OFFCURVE",
"1094 893 OFFCURVE",
"1110 862 CURVE",
"1104 858 LINE",
"1085 870 OFFCURVE",
"1067 877 OFFCURVE",
"1030 877 CURVE SMOOTH",
"978 877 OFFCURVE",
"931 859 OFFCURVE",
"898 827 CURVE SMOOTH",
"865 794 OFFCURVE",
"844 746 OFFCURVE",
"844 686 CURVE SMOOTH",
"844 539 OFFCURVE",
"930 467 OFFCURVE",
"1063 467 CURVE SMOOTH",
"1123 467 OFFCURVE",
"1178 490 OFFCURVE",
"1219 535 CURVE SMOOTH",
"1260 580 OFFCURVE",
"1286 648 OFFCURVE",
"1286 737 CURVE SMOOTH",
"1286 876 OFFCURVE",
"1241 965 OFFCURVE",
"1174 1021 CURVE SMOOTH",
"1107 1076 OFFCURVE",
"1018 1096 OFFCURVE",
"930 1096 CURVE SMOOTH",
"813 1096 OFFCURVE",
"714 1069 OFFCURVE",
"627 1021 CURVE SMOOTH",
"540 973 OFFCURVE",
"464 904 OFFCURVE",
"395 819 CURVE",
"387 819 LINE",
"387 1462 LINE",
"227 1462 LINE",
"227 0 LINE"
);
},
{
closed = 1;
nodes = (
"712 563 OFFCURVE",
"752 599 OFFCURVE",
"752 666 CURVE SMOOTH",
"752 730 OFFCURVE",
"709 768 OFFCURVE",
"649 768 CURVE SMOOTH",
"589 768 OFFCURVE",
"547 730 OFFCURVE",
"547 666 CURVE SMOOTH",
"547 599 OFFCURVE",
"584 563 OFFCURVE",
"649 563 CURVE SMOOTH"
);
},
{
closed = 1;
nodes = (
"1020 582 OFFCURVE",
"999 587 OFFCURVE",
"984 603 CURVE",
"968 618 OFFCURVE",
"958 643 OFFCURVE",
"958 684 CURVE SMOOTH",
"958 712 OFFCURVE",
"966 740 OFFCURVE",
"980 761 CURVE SMOOTH",
"994 782 OFFCURVE",
"1013 797 OFFCURVE",
"1040 797 CURVE SMOOTH",
"1049 797 OFFCURVE",
"1065 796 OFFCURVE",
"1081 792 CURVE SMOOTH",
"1097 788 OFFCURVE",
"1113 781 OFFCURVE",
"1124 772 CURVE",
"1128 753 OFFCURVE",
"1133 729 OFFCURVE",
"1133 694 CURVE SMOOTH",
"1133 621 OFFCURVE",
"1096 582 OFFCURVE",
"1040 582 CURVE SMOOTH"
);
},
{
closed = 1;
nodes = (
"712 1120 OFFCURVE",
"752 1156 OFFCURVE",
"752 1223 CURVE SMOOTH",
"752 1287 OFFCURVE",
"709 1325 OFFCURVE",
"649 1325 CURVE SMOOTH",
"589 1325 OFFCURVE",
"547 1287 OFFCURVE",
"547 1223 CURVE SMOOTH",
"547 1156 OFFCURVE",
"584 1120 OFFCURVE",
"649 1120 CURVE SMOOTH"
);
}
);
width = 1354;
}
);
note = uniA536;
unicode = A536;
},
{
glyphname = uniA537;
lastChange = "2016-11-10 14:41:34 +0000";
layers = (
{
layerId = "ADED0D52-FD26-4FEF-A6A9-DB4FC8BB207A";
paths = (
{
closed = 1;
nodes = (
"531 481 OFFCURVE",
"603 508 OFFCURVE",
"655 557 CURVE SMOOTH",
"706 605 OFFCURVE",
"735 678 OFFCURVE",
"735 770 CURVE SMOOTH",
"735 859 OFFCURVE",
"704 932 OFFCURVE",
"653 983 CURVE SMOOTH",
"601 1034 OFFCURVE",
"528 1061 OFFCURVE",
"444 1061 CURVE SMOOTH",
"359 1061 OFFCURVE",
"287 1034 OFFCURVE",
"236 983 CURVE SMOOTH",
"184 932 OFFCURVE",
"154 859 OFFCURVE",
"154 770 CURVE SMOOTH",
"154 585 OFFCURVE",
"259 481 OFFCURVE",
"444 481 CURVE SMOOTH"
);
}
);
width = 889;
}
);
note = uniA537;
unicode = A537;
},
{
glyphname = uniA538;
lastChange = "2016-11-10 14:41:34 +0000";
layers = (
{
layerId = "ADED0D52-FD26-4FEF-A6A9-DB4FC8BB207A";
paths = (
{
closed = 1;
nodes = (
"531 481 OFFCURVE",
"603 508 OFFCURVE",
"655 557 CURVE SMOOTH",
"706 605 OFFCURVE",
"735 678 OFFCURVE",
"735 770 CURVE SMOOTH",
"735 859 OFFCURVE",
"704 932 OFFCURVE",
"653 983 CURVE SMOOTH",
"601 1034 OFFCURVE",
"528 1061 OFFCURVE",
"444 1061 CURVE SMOOTH",
"359 1061 OFFCURVE",
"287 1034 OFFCURVE",
"236 983 CURVE SMOOTH",
"184 932 OFFCURVE",
"154 859 OFFCURVE",
"154 770 CURVE SMOOTH",
"154 585 OFFCURVE",
"259 481 OFFCURVE",
"444 481 CURVE SMOOTH"
);
},
{
closed = 1;
nodes = (
"150 -252 OFFCURVE",
"199 -233 OFFCURVE",
"262 -233 CURVE SMOOTH",
"307 -233 OFFCURVE",
"366 -252 OFFCURVE",
"429 -271 CURVE SMOOTH",
"492 -290 OFFCURVE",
"557 -309 OFFCURVE",
"614 -309 CURVE SMOOTH",
"743 -309 OFFCURVE",
"819 -252 OFFCURVE",
"870 -123 CURVE",
"776 -68 LINE",
"735 -147 OFFCURVE",
"686 -166 OFFCURVE",
"623 -166 CURVE SMOOTH",
"580 -166 OFFCURVE",
"522 -147 OFFCURVE",
"460 -128 CURVE SMOOTH",
"398 -109 OFFCURVE",
"330 -90 OFFCURVE",
"270 -90 CURVE SMOOTH",
"141 -90 OFFCURVE",
"66 -147 OFFCURVE",
"14 -276 CURVE",
"109 -332 LINE"
);
}
);
width = 889;
}
);
note = uniA538;
unicode = A538;
},
{
glyphname = uniA539;
lastChange = "2016-11-10 14:41:34 +0000";
layers = (
{
layerId = "ADED0D52-FD26-4FEF-A6A9-DB4FC8BB207A";
paths = (
{
closed = 1;
nodes = (
"714 481 OFFCURVE",
"786 508 OFFCURVE",
"838 557 CURVE SMOOTH",
"889 605 OFFCURVE",
"918 678 OFFCURVE",
"918 770 CURVE SMOOTH",
"918 859 OFFCURVE",
"887 932 OFFCURVE",
"836 983 CURVE SMOOTH",
"784 1034 OFFCURVE",
"711 1061 OFFCURVE",
"627 1061 CURVE SMOOTH",
"542 1061 OFFCURVE",
"469 1034 OFFCURVE",
"418 983 CURVE SMOOTH",
"366 932 OFFCURVE",
"336 859 OFFCURVE",
"336 770 CURVE SMOOTH",
"336 585 OFFCURVE",
"440 481 OFFCURVE",
"627 481 CURVE SMOOTH"
);
},
{
closed = 1;
nodes = (
"237 676 OFFCURVE",
"272 713 OFFCURVE",
"272 778 CURVE SMOOTH",
"272 841 OFFCURVE",
"237 881 OFFCURVE",
"170 881 CURVE SMOOTH",
"106 881 OFFCURVE",
"68 838 OFFCURVE",
"68 778 CURVE SMOOTH",
"68 718 OFFCURVE",
"106 676 OFFCURVE",
"170 676 CURVE SMOOTH"
);
},
{
closed = 1;
nodes = (
"1157 676 OFFCURVE",
"1194 713 OFFCURVE",
"1194 778 CURVE SMOOTH",
"1194 841 OFFCURVE",
"1157 881 OFFCURVE",
"1092 881 CURVE SMOOTH",
"1028 881 OFFCURVE",
"989 838 OFFCURVE",
"989 778 CURVE SMOOTH",
"989 718 OFFCURVE",
"1028 676 OFFCURVE",
"1092 676 CURVE SMOOTH"
);
}
);
width = 1262;
}
);
note = uniA539;
unicode = A539;
},
{
glyphname = uniA53A;
lastChange = "2016-11-10 14:41:34 +0000";
layers = (
{
layerId = "ADED0D52-FD26-4FEF-A6A9-DB4FC8BB207A";
paths = (
{
closed = 1;
nodes = (
"1079 104 LINE",
"1000 151 OFFCURVE",
"958 180 OFFCURVE",
"958 223 CURVE SMOOTH",
"958 238 OFFCURVE",
"963 253 OFFCURVE",
"974 268 CURVE SMOOTH",
"985 282 OFFCURVE",
"996 298 OFFCURVE",
"1009 316 CURVE SMOOTH",
"1033 351 OFFCURVE",
"1059 393 OFFCURVE",
"1059 457 CURVE SMOOTH",
"1059 498 OFFCURVE",
"1049 531 OFFCURVE",
"1034 559 CURVE",
"1018 586 OFFCURVE",
"999 608 OFFCURVE",
"979 629 CURVE",
"1022 634 OFFCURVE",
"1064 650 OFFCURVE",
"1100 678 CURVE SMOOTH",
"1136 706 OFFCURVE",
"1166 749 OFFCURVE",
"1186 809 CURVE",
"1194 809 LINE",
"1225 740 OFFCURVE",
"1271 693 OFFCURVE",
"1320 665 CURVE SMOOTH",
"1368 636 OFFCURVE",
"1421 625 OFFCURVE",
"1464 625 CURVE SMOOTH",
"1555 625 OFFCURVE",
"1625 648 OFFCURVE",
"1676 708 CURVE SMOOTH",
"1727 768 OFFCURVE",
"1756 864 OFFCURVE",
"1763 1012 CURVE",
"1604 1012 LINE",
"1597 840 OFFCURVE",
"1559 760 OFFCURVE",
"1444 760 CURVE SMOOTH",
"1400 760 OFFCURVE",
"1359 777 OFFCURVE",
"1329 817 CURVE SMOOTH",
"1299 857 OFFCURVE",
"1277 920 OFFCURVE",
"1276 1012 CURVE",
"1116 1012 LINE",
"1113 923 OFFCURVE",
"1094 861 OFFCURVE",
"1063 821 CURVE SMOOTH",
"1032 781 OFFCURVE",
"989 761 OFFCURVE",
"938 760 CURVE",
"947 805 OFFCURVE",
"977 843 OFFCURVE",
"1005 885 CURVE SMOOTH",
"1033 927 OFFCURVE",
"1059 975 OFFCURVE",
"1059 1040 CURVE SMOOTH",
"1059 1112 OFFCURVE",
"1031 1154 OFFCURVE",
"1003 1187 CURVE SMOOTH",
"974 1219 OFFCURVE",
"946 1243 OFFCURVE",
"946 1280 CURVE SMOOTH",
"946 1301 OFFCURVE",
"961 1320 OFFCURVE",
"984 1337 CURVE SMOOTH",
"1007 1354 OFFCURVE",
"1036 1369 OFFCURVE",
"1067 1384 CURVE",
"977 1485 LINE",
"920 1465 OFFCURVE",
"871 1434 OFFCURVE",
"837 1397 CURVE SMOOTH",
"803 1360 OFFCURVE",
"782 1315 OFFCURVE",
"782 1268 CURVE SMOOTH",
"782 1248 OFFCURVE",
"785 1231 OFFCURVE",
"791 1216 CURVE SMOOTH",
"802 1187 OFFCURVE",
"819 1164 OFFCURVE",
"839 1144 CURVE",
"848 1133 OFFCURVE",
"857 1122 OFFCURVE",
"866 1111 CURVE",
"882 1088 OFFCURVE",
"895 1062 OFFCURVE",
"895 1026 CURVE SMOOTH",
"895 979 OFFCURVE",
"880 947 OFFCURVE",
"863 912 CURVE SMOOTH",
"846 876 OFFCURVE",
"826 840 OFFCURVE",
"817 791 CURVE",
"770 827 OFFCURVE",
"739 896 OFFCURVE",
"739 1012 CURVE",
"580 1012 LINE",
"577 920 OFFCURVE",
"560 857 OFFCURVE",
"531 817 CURVE SMOOTH",
"502 777 OFFCURVE",
"461 760 OFFCURVE",
"412 760 CURVE SMOOTH",
"307 760 OFFCURVE",
"254 849 OFFCURVE",
"250 1012 CURVE",
"90 1012 LINE",
"95 864 OFFCURVE",
"122 768 OFFCURVE",
"171 708 CURVE SMOOTH",
"219 648 OFFCURVE",
"292 625 OFFCURVE",
"391 625 CURVE SMOOTH",
"434 625 OFFCURVE",
"483 636 OFFCURVE",
"530 665 CURVE SMOOTH",
"577 693 OFFCURVE",
"620 740 OFFCURVE",
"651 809 CURVE",
"659 809 LINE",
"688 710 OFFCURVE",
"754 662 OFFCURVE",
"825 639 CURVE",
"831 618 OFFCURVE",
"838 600 OFFCURVE",
"846 583 CURVE SMOOTH",
"854 566 OFFCURVE",
"862 549 OFFCURVE",
"869 533 CURVE SMOOTH",
"884 501 OFFCURVE",
"895 471 OFFCURVE",
"895 436 CURVE SMOOTH",
"895 395 OFFCURVE",
"865 361 OFFCURVE",
"834 322 CURVE SMOOTH",
"802 283 OFFCURVE",
"772 241 OFFCURVE",
"772 182 CURVE SMOOTH",
"772 134 OFFCURVE",
"796 95 OFFCURVE",
"833 62 CURVE SMOOTH",
"869 29 OFFCURVE",
"920 2 OFFCURVE",
"975 -23 CURVE"
);
}
);
width = 1853;
}
);
note = uniA53A;
unicode = A53A;
},
{
glyphname = uniA53B;
lastChange = "2016-11-10 14:41:34 +0000";
layers = (
{
layerId = "ADED0D52-FD26-4FEF-A6A9-DB4FC8BB207A";
paths = (
{
closed = 1;
nodes = (
"602 -20 OFFCURVE",
"691 11 OFFCURVE",
"756 76 CURVE SMOOTH",
"821 140 OFFCURVE",
"864 239 OFFCURVE",
"864 375 CURVE SMOOTH",
"864 456 OFFCURVE",
"838 527 OFFCURVE",
"804 580 CURVE SMOOTH",
"770 633 OFFCURVE",
"727 669 OFFCURVE",
"694 682 CURVE",
"696 690 LINE",
"729 682 OFFCURVE",
"777 678 OFFCURVE",
"833 675 CURVE SMOOTH",
"889 672 OFFCURVE",
"952 672 OFFCURVE",
"1020 672 CURVE SMOOTH",
"1049 672 LINE",
"1049 500 LINE",
"1208 500 LINE",
"1208 995 LINE",
"1049 995 LINE",
"1049 811 LINE",
"1020 811 LINE SMOOTH",
"884 811 OFFCURVE",
"771 808 OFFCURVE",
"696 793 CURVE",
"694 801 LINE",
"727 814 OFFCURVE",
"768 852 OFFCURVE",
"800 905 CURVE SMOOTH",
"832 957 OFFCURVE",
"856 1023 OFFCURVE",
"856 1094 CURVE SMOOTH",
"856 1227 OFFCURVE",
"813 1325 OFFCURVE",
"749 1390 CURVE SMOOTH",
"684 1454 OFFCURVE",
"597 1485 OFFCURVE",
"510 1485 CURVE SMOOTH",
"426 1485 OFFCURVE",
"340 1454 OFFCURVE",
"275 1390 CURVE SMOOTH",
"210 1325 OFFCURVE",
"166 1227 OFFCURVE",
"166 1094 CURVE SMOOTH",
"166 1007 OFFCURVE",
"192 930 OFFCURVE",
"232 868 CURVE SMOOTH",
"272 806 OFFCURVE",
"326 759 OFFCURVE",
"385 739 CURVE",
"385 731 LINE",
"328 708 OFFCURVE",
"271 665 OFFCURVE",
"229 605 CURVE SMOOTH",
"187 544 OFFCURVE",
"158 466 OFFCURVE",
"158 375 CURVE SMOOTH",
"158 239 OFFCURVE",
"200 140 OFFCURVE",
"265 76 CURVE SMOOTH",
"329 11 OFFCURVE",
"417 -20 OFFCURVE",
"510 -20 CURVE SMOOTH"
);
},
{
closed = 1;
nodes = (
"453 119 OFFCURVE",
"405 137 OFFCURVE",
"371 178 CURVE SMOOTH",
"337 218 OFFCURVE",
"317 283 OFFCURVE",
"317 375 CURVE SMOOTH",
"317 467 OFFCURVE",
"339 542 OFFCURVE",
"375 594 CURVE SMOOTH",
"410 645 OFFCURVE",
"458 674 OFFCURVE",
"510 674 CURVE SMOOTH",
"563 674 OFFCURVE",
"612 645 OFFCURVE",
"648 594 CURVE SMOOTH",
"683 542 OFFCURVE",
"705 467 OFFCURVE",
"705 375 CURVE SMOOTH",
"705 283 OFFCURVE",
"685 218 OFFCURVE",
"650 178 CURVE SMOOTH",
"615 137 OFFCURVE",
"566 119 OFFCURVE",
"510 119 CURVE SMOOTH"
);
},
{
closed = 1;
nodes = (
"457 807 OFFCURVE",
"410 835 OFFCURVE",
"378 885 CURVE SMOOTH",
"345 935 OFFCURVE",
"326 1006 OFFCURVE",
"326 1094 CURVE SMOOTH",
"326 1182 OFFCURVE",
"348 1245 OFFCURVE",
"382 1286 CURVE SMOOTH",
"416 1327 OFFCURVE",
"461 1346 OFFCURVE",
"510 1346 CURVE SMOOTH",
"561 1346 OFFCURVE",
"608 1327 OFFCURVE",
"642 1286 CURVE SMOOTH",
"676 1245 OFFCURVE",
"696 1182 OFFCURVE",
"696 1094 CURVE SMOOTH",
"696 1006 OFFCURVE",
"676 935 OFFCURVE",
"643 885 CURVE SMOOTH",
"610 835 OFFCURVE",
"563 807 OFFCURVE",
"510 807 CURVE SMOOTH"
);
},
{
closed = 1;
nodes = (
"1473 500 LINE",
"1473 995 LINE",
"1313 995 LINE",
"1313 500 LINE"
);
}
);
width = 1563;
}
);
note = uniA53B;
unicode = A53B;
},
{
glyphname = uniA53C;
lastChange = "2016-11-10 14:41:34 +0000";
layers = (
{
layerId = "ADED0D52-FD26-4FEF-A6A9-DB4FC8BB207A";
paths = (
{
closed = 1;
nodes = (
"602 -20 OFFCURVE",
"691 11 OFFCURVE",
"756 76 CURVE SMOOTH",
"821 140 OFFCURVE",
"864 239 OFFCURVE",
"864 375 CURVE SMOOTH",
"864 456 OFFCURVE",
"838 527 OFFCURVE",
"804 580 CURVE SMOOTH",
"770 633 OFFCURVE",
"727 669 OFFCURVE",
"694 682 CURVE",
"696 690 LINE",
"729 682 OFFCURVE",
"777 678 OFFCURVE",
"833 675 CURVE SMOOTH",
"889 672 OFFCURVE",
"952 672 OFFCURVE",
"1020 672 CURVE SMOOTH",
"1192 672 LINE",
"1192 500 LINE",
"1352 500 LINE",
"1352 995 LINE",
"1192 995 LINE",
"1192 811 LINE",
"1020 811 LINE SMOOTH",
"884 811 OFFCURVE",
"771 808 OFFCURVE",
"696 793 CURVE",
"694 801 LINE",
"727 814 OFFCURVE",
"768 852 OFFCURVE",
"800 905 CURVE SMOOTH",
"832 957 OFFCURVE",
"856 1023 OFFCURVE",
"856 1094 CURVE SMOOTH",
"856 1227 OFFCURVE",
"813 1325 OFFCURVE",
"749 1390 CURVE SMOOTH",
"684 1454 OFFCURVE",
"597 1485 OFFCURVE",
"510 1485 CURVE SMOOTH",
"426 1485 OFFCURVE",
"340 1454 OFFCURVE",
"275 1390 CURVE SMOOTH",
"210 1325 OFFCURVE",
"166 1227 OFFCURVE",
"166 1094 CURVE SMOOTH",
"166 1007 OFFCURVE",
"192 930 OFFCURVE",
"232 868 CURVE SMOOTH",
"272 806 OFFCURVE",
"326 759 OFFCURVE",
"385 739 CURVE",
"385 731 LINE",
"328 708 OFFCURVE",
"271 665 OFFCURVE",
"229 605 CURVE SMOOTH",
"187 544 OFFCURVE",
"158 466 OFFCURVE",
"158 375 CURVE SMOOTH",
"158 239 OFFCURVE",
"200 140 OFFCURVE",
"265 76 CURVE SMOOTH",
"329 11 OFFCURVE",
"417 -20 OFFCURVE",
"510 -20 CURVE SMOOTH"
);
},
{
closed = 1;
nodes = (
"453 119 OFFCURVE",
"405 137 OFFCURVE",
"371 178 CURVE SMOOTH",
"337 218 OFFCURVE",
"317 283 OFFCURVE",
"317 375 CURVE SMOOTH",
"317 467 OFFCURVE",
"339 542 OFFCURVE",
"375 594 CURVE SMOOTH",
"410 645 OFFCURVE",
"458 674 OFFCURVE",
"510 674 CURVE SMOOTH",
"563 674 OFFCURVE",
"612 645 OFFCURVE",
"648 594 CURVE SMOOTH",
"683 542 OFFCURVE",
"705 467 OFFCURVE",
"705 375 CURVE SMOOTH",
"705 283 OFFCURVE",
"685 218 OFFCURVE",
"650 178 CURVE SMOOTH",
"615 137 OFFCURVE",
"566 119 OFFCURVE",
"510 119 CURVE SMOOTH"
);
},
{
closed = 1;
nodes = (
"1081 313 OFFCURVE",
"1122 349 OFFCURVE",
"1122 416 CURVE SMOOTH",
"1122 480 OFFCURVE",
"1080 518 OFFCURVE",
"1020 518 CURVE SMOOTH",
"960 518 OFFCURVE",
"918 480 OFFCURVE",
"918 416 CURVE SMOOTH",
"918 349 OFFCURVE",
"953 313 OFFCURVE",
"1020 313 CURVE SMOOTH"
);
},
{
closed = 1;
nodes = (
"457 807 OFFCURVE",
"410 835 OFFCURVE",
"378 885 CURVE SMOOTH",
"345 935 OFFCURVE",
"326 1006 OFFCURVE",
"326 1094 CURVE SMOOTH",
"326 1182 OFFCURVE",
"348 1245 OFFCURVE",
"382 1286 CURVE SMOOTH",
"416 1327 OFFCURVE",
"461 1346 OFFCURVE",
"510 1346 CURVE SMOOTH",
"561 1346 OFFCURVE",
"608 1327 OFFCURVE",
"642 1286 CURVE SMOOTH",
"676 1245 OFFCURVE",
"696 1182 OFFCURVE",
"696 1094 CURVE SMOOTH",
"696 1006 OFFCURVE",
"676 935 OFFCURVE",
"643 885 CURVE SMOOTH",
"610 835 OFFCURVE",
"563 807 OFFCURVE",
"510 807 CURVE SMOOTH"
);
},
{
closed = 1;
nodes = (
"1081 965 OFFCURVE",
"1122 1000 OFFCURVE",
"1122 1067 CURVE SMOOTH",
"1122 1131 OFFCURVE",
"1080 1169 OFFCURVE",
"1020 1169 CURVE SMOOTH",
"960 1169 OFFCURVE",
"918 1131 OFFCURVE",
"918 1067 CURVE SMOOTH",
"918 1000 OFFCURVE",
"953 965 OFFCURVE",
"1020 965 CURVE SMOOTH"
);
},
{
closed = 1;
nodes = (
"1616 500 LINE",
"1616 995 LINE",
"1456 995 LINE",
"1456 500 LINE"
);
}
);
width = 1706;
}
);
note = uniA53C;
unicode = A53C;
},
{
glyphname = uniA53D;
lastChange = "2016-11-10 14:41:34 +0000";
layers = (
{
layerId = "ADED0D52-FD26-4FEF-A6A9-DB4FC8BB207A";
paths = (
{
closed = 1;
nodes = (
"1284 106 LINE",
"674 403 LINE",
"1249 752 LINE",
"700 1079 LINE",
"1282 1356 LINE",
"1217 1483 LINE",
"367 1094 LINE",
"952 750 LINE",
"358 375 LINE",
"1217 -20 LINE"
);
},
{
closed = 1;
nodes = (
"356 528 OFFCURVE",
"413 548 OFFCURVE",
"454 586 CURVE SMOOTH",
"494 624 OFFCURVE",
"518 677 OFFCURVE",
"518 748 CURVE SMOOTH",
"518 815 OFFCURVE",
"493 868 OFFCURVE",
"453 905 CURVE SMOOTH",
"412 941 OFFCURVE",
"355 961 OFFCURVE",
"291 961 CURVE SMOOTH",
"224 961 OFFCURVE",
"169 941 OFFCURVE",
"130 904 CURVE SMOOTH",
"90 867 OFFCURVE",
"68 813 OFFCURVE",
"68 745 CURVE SMOOTH",
"68 677 OFFCURVE",
"90 622 OFFCURVE",
"130 585 CURVE SMOOTH",
"169 548 OFFCURVE",
"224 528 OFFCURVE",
"291 528 CURVE SMOOTH"
);
},
{
closed = 1;
nodes = (
"224 643 OFFCURVE",
"188 680 OFFCURVE",
"188 745 CURVE SMOOTH",
"188 809 OFFCURVE",
"231 848 OFFCURVE",
"291 848 CURVE SMOOTH",
"351 848 OFFCURVE",
"393 809 OFFCURVE",
"393 745 CURVE SMOOTH",
"393 680 OFFCURVE",
"352 643 OFFCURVE",
"291 643 CURVE SMOOTH"
);
}
);
width = 1397;
}
);
note = uniA53D;
unicode = A53D;
},
{
glyphname = uniA53E;
lastChange = "2016-11-10 14:41:34 +0000";
layers = (
{
layerId = "ADED0D52-FD26-4FEF-A6A9-DB4FC8BB207A";
paths = (
{
closed = 1;
nodes = (
"1284 106 LINE",
"674 403 LINE",
"1249 752 LINE",
"700 1079 LINE",
"1282 1356 LINE",
"1217 1483 LINE",
"367 1094 LINE",
"952 750 LINE",
"358 375 LINE",
"1217 -20 LINE"
);
},
{
closed = 1;
nodes = (
"356 528 OFFCURVE",
"413 548 OFFCURVE",
"454 586 CURVE SMOOTH",
"494 624 OFFCURVE",
"518 677 OFFCURVE",
"518 748 CURVE SMOOTH",
"518 815 OFFCURVE",
"493 868 OFFCURVE",
"453 905 CURVE SMOOTH",
"412 941 OFFCURVE",
"355 961 OFFCURVE",
"291 961 CURVE SMOOTH",
"224 961 OFFCURVE",
"169 941 OFFCURVE",
"130 904 CURVE SMOOTH",
"90 867 OFFCURVE",
"68 813 OFFCURVE",
"68 745 CURVE SMOOTH",
"68 677 OFFCURVE",
"90 622 OFFCURVE",
"130 585 CURVE SMOOTH",
"169 548 OFFCURVE",
"224 528 OFFCURVE",
"291 528 CURVE SMOOTH"
);
},
{
closed = 1;
nodes = (
"224 643 OFFCURVE",
"188 680 OFFCURVE",
"188 745 CURVE SMOOTH",
"188 809 OFFCURVE",
"231 848 OFFCURVE",
"291 848 CURVE SMOOTH",
"351 848 OFFCURVE",
"393 809 OFFCURVE",
"393 745 CURVE SMOOTH",
"393 680 OFFCURVE",
"352 643 OFFCURVE",
"291 643 CURVE SMOOTH"
);
},
{
closed = 1;
nodes = (
"1476 643 OFFCURVE",
"1516 680 OFFCURVE",
"1516 745 CURVE SMOOTH",
"1516 809 OFFCURVE",
"1473 848 OFFCURVE",
"1413 848 CURVE SMOOTH",
"1353 848 OFFCURVE",
"1311 809 OFFCURVE",
"1311 745 CURVE SMOOTH",
"1311 680 OFFCURVE",
"1348 643 OFFCURVE",
"1413 643 CURVE SMOOTH"
);
}
);
width = 1583;
}
);
note = uniA53E;
unicode = A53E;
},
{
glyphname = uniA53F;
lastChange = "2016-11-10 14:41:34 +0000";
layers = (
{
layerId = "ADED0D52-FD26-4FEF-A6A9-DB4FC8BB207A";
paths = (
{
closed = 1;
nodes = (
"608 -20 OFFCURVE",
"710 16 OFFCURVE",
"785 81 CURVE SMOOTH",
"860 146 OFFCURVE",
"907 241 OFFCURVE",
"907 360 CURVE SMOOTH",
"907 480 OFFCURVE",
"869 570 OFFCURVE",
"810 631 CURVE SMOOTH",
"750 691 OFFCURVE",
"669 721 OFFCURVE",
"582 721 CURVE SMOOTH",
"477 721 OFFCURVE",
"390 670 OFFCURVE",
"330 606 CURVE",
"324 608 LINE",
"339 796 OFFCURVE",
"369 946 OFFCURVE",
"416 1075 CURVE",
"1010 1075 LINE",
"1010 1217 LINE",
"479 1217 LINE",
"498 1253 OFFCURVE",
"518 1288 OFFCURVE",
"541 1321 CURVE",
"1174 1321 LINE",
"1174 1462 LINE",
"473 1462 LINE",
"390 1369 OFFCURVE",
"312 1238 OFFCURVE",
"254 1059 CURVE SMOOTH",
"196 880 OFFCURVE",
"158 655 OFFCURVE",
"158 371 CURVE SMOOTH",
"158 231 OFFCURVE",
"200 133 OFFCURVE",
"264 70 CURVE SMOOTH",
"327 7 OFFCURVE",
"411 -20 OFFCURVE",
"496 -20 CURVE SMOOTH"
);
},
{
closed = 1;
nodes = (
"426 115 OFFCURVE",
"375 166 OFFCURVE",
"348 235 CURVE SMOOTH",
"320 303 OFFCURVE",
"317 390 OFFCURVE",
"317 461 CURVE",
"340 493 OFFCURVE",
"370 525 OFFCURVE",
"408 548 CURVE SMOOTH",
"446 571 OFFCURVE",
"491 586 OFFCURVE",
"547 586 CURVE SMOOTH",
"622 586 OFFCURVE",
"672 557 OFFCURVE",
"704 514 CURVE SMOOTH",
"736 471 OFFCURVE",
"750 415 OFFCURVE",
"750 360 CURVE SMOOTH",
"750 285 OFFCURVE",
"723 225 OFFCURVE",
"680 182 CURVE SMOOTH",
"637 139 OFFCURVE",
"581 115 OFFCURVE",
"522 115 CURVE SMOOTH"
);
}
);
width = 1241;
}
);
note = uniA53F;
unicode = A53F;
},
{
glyphname = uniA540;
lastChange = "2016-11-10 14:41:34 +0000";
layers = (
{
layerId = "ADED0D52-FD26-4FEF-A6A9-DB4FC8BB207A";
paths = (
{
closed = 1;
nodes = (
"424 543 OFFCURVE",
"473 554 OFFCURVE",
"520 583 CURVE SMOOTH",
"567 611 OFFCURVE",
"610 658 OFFCURVE",
"641 727 CURVE",
"649 727 LINE",
"670 655 OFFCURVE",
"712 609 OFFCURVE",
"761 581 CURVE SMOOTH",
"809 553 OFFCURVE",
"866 543 OFFCURVE",
"918 543 CURVE SMOOTH",
"970 543 OFFCURVE",
"1021 553 OFFCURVE",
"1066 581 CURVE SMOOTH",
"1110 609 OFFCURVE",
"1149 655 OFFCURVE",
"1176 727 CURVE",
"1184 727 LINE",
"1215 658 OFFCURVE",
"1261 611 OFFCURVE",
"1310 583 CURVE SMOOTH",
"1358 554 OFFCURVE",
"1411 543 OFFCURVE",
"1454 543 CURVE SMOOTH",
"1531 543 OFFCURVE",
"1601 571 OFFCURVE",
"1658 618 CURVE SMOOTH",
"1715 665 OFFCURVE",
"1760 731 OFFCURVE",
"1788 807 CURVE",
"1663 870 LINE",
"1648 829 OFFCURVE",
"1620 784 OFFCURVE",
"1584 749 CURVE SMOOTH",
"1547 713 OFFCURVE",
"1502 688 OFFCURVE",
"1454 688 CURVE SMOOTH",
"1409 688 OFFCURVE",
"1362 704 OFFCURVE",
"1326 745 CURVE SMOOTH",
"1290 785 OFFCURVE",
"1266 849 OFFCURVE",
"1266 948 CURVE SMOOTH",
"1266 1012 LINE",
"1106 1012 LINE",
"1106 948 LINE SMOOTH",
"1106 849 OFFCURVE",
"1087 783 OFFCURVE",
"1055 740 CURVE SMOOTH",
"1022 696 OFFCURVE",
"975 678 OFFCURVE",
"918 678 CURVE SMOOTH",
"861 678 OFFCURVE",
"813 696 OFFCURVE",
"781 740 CURVE SMOOTH",
"748 783 OFFCURVE",
"729 849 OFFCURVE",
"729 948 CURVE SMOOTH",
"729 1012 LINE",
"569 1012 LINE",
"569 948 LINE SMOOTH",
"569 849 OFFCURVE",
"552 785 OFFCURVE",
"524 745 CURVE SMOOTH",
"495 704 OFFCURVE",
"453 688 OFFCURVE",
"401 688 CURVE SMOOTH",
"353 688 OFFCURVE",
"308 713 OFFCURVE",
"272 749 CURVE SMOOTH",
"235 784 OFFCURVE",
"206 829 OFFCURVE",
"193 870 CURVE",
"68 807 LINE",
"96 731 OFFCURVE",
"139 665 OFFCURVE",
"193 618 CURVE SMOOTH",
"247 571 OFFCURVE",
"312 543 OFFCURVE",
"381 543 CURVE SMOOTH"
);
}
);
width = 1855;
}
);
note = uniA540;
unicode = A540;
},
{
glyphname = uniA541;
lastChange = "2016-11-10 14:41:34 +0000";
layers = (
{
layerId = "ADED0D52-FD26-4FEF-A6A9-DB4FC8BB207A";
paths = (
{
closed = 1;
nodes = (
"424 543 OFFCURVE",
"473 554 OFFCURVE",
"520 583 CURVE SMOOTH",
"567 611 OFFCURVE",
"610 658 OFFCURVE",
"641 727 CURVE",
"649 727 LINE",
"670 655 OFFCURVE",
"712 609 OFFCURVE",
"761 581 CURVE SMOOTH",
"809 553 OFFCURVE",
"866 543 OFFCURVE",
"918 543 CURVE SMOOTH",
"970 543 OFFCURVE",
"1021 553 OFFCURVE",
"1066 581 CURVE SMOOTH",
"1110 609 OFFCURVE",
"1149 655 OFFCURVE",
"1176 727 CURVE",
"1184 727 LINE",
"1215 658 OFFCURVE",
"1261 611 OFFCURVE",
"1310 583 CURVE SMOOTH",
"1358 554 OFFCURVE",
"1411 543 OFFCURVE",
"1454 543 CURVE SMOOTH",
"1531 543 OFFCURVE",
"1601 571 OFFCURVE",
"1658 618 CURVE SMOOTH",
"1715 665 OFFCURVE",
"1760 731 OFFCURVE",
"1788 807 CURVE",
"1663 870 LINE",
"1648 829 OFFCURVE",
"1620 784 OFFCURVE",
"1584 749 CURVE SMOOTH",
"1547 713 OFFCURVE",
"1502 688 OFFCURVE",
"1454 688 CURVE SMOOTH",
"1409 688 OFFCURVE",
"1362 704 OFFCURVE",
"1326 745 CURVE SMOOTH",
"1290 785 OFFCURVE",
"1266 849 OFFCURVE",
"1266 948 CURVE SMOOTH",
"1266 1012 LINE",
"1106 1012 LINE",
"1106 948 LINE SMOOTH",
"1106 849 OFFCURVE",
"1087 783 OFFCURVE",
"1055 740 CURVE SMOOTH",
"1022 696 OFFCURVE",
"975 678 OFFCURVE",
"918 678 CURVE SMOOTH",
"861 678 OFFCURVE",
"813 696 OFFCURVE",
"781 740 CURVE SMOOTH",
"748 783 OFFCURVE",
"729 849 OFFCURVE",
"729 948 CURVE SMOOTH",
"729 1012 LINE",
"569 1012 LINE",
"569 948 LINE SMOOTH",
"569 849 OFFCURVE",
"552 785 OFFCURVE",
"524 745 CURVE SMOOTH",
"495 704 OFFCURVE",
"453 688 OFFCURVE",
"401 688 CURVE SMOOTH",
"353 688 OFFCURVE",
"308 713 OFFCURVE",
"272 749 CURVE SMOOTH",
"235 784 OFFCURVE",
"206 829 OFFCURVE",
"193 870 CURVE",
"68 807 LINE",
"96 731 OFFCURVE",
"139 665 OFFCURVE",
"193 618 CURVE SMOOTH",
"247 571 OFFCURVE",
"312 543 OFFCURVE",
"381 543 CURVE SMOOTH"
);
},
{
closed = 1;
nodes = (
"710 1096 OFFCURVE",
"750 1133 OFFCURVE",
"750 1198 CURVE SMOOTH",
"750 1262 OFFCURVE",
"707 1300 OFFCURVE",
"647 1300 CURVE SMOOTH",
"587 1300 OFFCURVE",
"545 1262 OFFCURVE",
"545 1198 CURVE SMOOTH",
"545 1133 OFFCURVE",
"582 1096 OFFCURVE",
"647 1096 CURVE SMOOTH"
);
},
{
closed = 1;
nodes = (
"1247 1096 OFFCURVE",
"1288 1133 OFFCURVE",
"1288 1198 CURVE SMOOTH",
"1288 1262 OFFCURVE",
"1246 1300 OFFCURVE",
"1186 1300 CURVE SMOOTH",
"1126 1300 OFFCURVE",
"1083 1262 OFFCURVE",
"1083 1198 CURVE SMOOTH",
"1083 1133 OFFCURVE",
"1119 1096 OFFCURVE",
"1186 1096 CURVE SMOOTH"
);
}
);
width = 1855;
}
);
note = uniA541;
unicode = A541;
},
{
glyphname = uniA542;
lastChange = "2016-11-10 14:41:34 +0000";
layers = (
{
layerId = "ADED0D52-FD26-4FEF-A6A9-DB4FC8BB207A";
paths = (
{
closed = 1;
nodes = (
"424 543 OFFCURVE",
"473 554 OFFCURVE",
"520 583 CURVE SMOOTH",
"567 611 OFFCURVE",
"610 658 OFFCURVE",
"641 727 CURVE",
"649 727 LINE",
"670 655 OFFCURVE",
"712 609 OFFCURVE",
"761 581 CURVE SMOOTH",
"809 553 OFFCURVE",
"866 543 OFFCURVE",
"918 543 CURVE SMOOTH",
"970 543 OFFCURVE",
"1021 553 OFFCURVE",
"1066 581 CURVE SMOOTH",
"1110 609 OFFCURVE",
"1149 655 OFFCURVE",
"1176 727 CURVE",
"1184 727 LINE",
"1215 658 OFFCURVE",
"1261 611 OFFCURVE",
"1310 583 CURVE SMOOTH",
"1358 554 OFFCURVE",
"1411 543 OFFCURVE",
"1454 543 CURVE SMOOTH",
"1531 543 OFFCURVE",
"1601 571 OFFCURVE",
"1658 618 CURVE SMOOTH",
"1715 665 OFFCURVE",
"1760 731 OFFCURVE",
"1788 807 CURVE",
"1663 870 LINE",
"1648 829 OFFCURVE",
"1620 784 OFFCURVE",
"1584 749 CURVE SMOOTH",
"1547 713 OFFCURVE",
"1502 688 OFFCURVE",
"1454 688 CURVE SMOOTH",
"1409 688 OFFCURVE",
"1362 704 OFFCURVE",
"1326 745 CURVE SMOOTH",
"1290 785 OFFCURVE",
"1266 849 OFFCURVE",
"1266 948 CURVE SMOOTH",
"1266 1012 LINE",
"1106 1012 LINE",
"1106 948 LINE SMOOTH",
"1106 849 OFFCURVE",
"1087 783 OFFCURVE",
"1055 740 CURVE SMOOTH",
"1022 696 OFFCURVE",
"975 678 OFFCURVE",
"918 678 CURVE SMOOTH",
"861 678 OFFCURVE",
"813 696 OFFCURVE",
"781 740 CURVE SMOOTH",
"748 783 OFFCURVE",
"729 849 OFFCURVE",
"729 948 CURVE SMOOTH",
"729 1012 LINE",
"569 1012 LINE",
"569 948 LINE SMOOTH",
"569 849 OFFCURVE",
"552 785 OFFCURVE",
"524 745 CURVE SMOOTH",
"495 704 OFFCURVE",
"453 688 OFFCURVE",
"401 688 CURVE SMOOTH",
"353 688 OFFCURVE",
"308 713 OFFCURVE",
"272 749 CURVE SMOOTH",
"235 784 OFFCURVE",
"206 829 OFFCURVE",
"193 870 CURVE",
"68 807 LINE",
"96 731 OFFCURVE",
"139 665 OFFCURVE",
"193 618 CURVE SMOOTH",
"247 571 OFFCURVE",
"312 543 OFFCURVE",
"381 543 CURVE SMOOTH"
);
},
{
closed = 1;
nodes = (
"979 236 OFFCURVE",
"1020 271 OFFCURVE",
"1020 338 CURVE SMOOTH",
"1020 402 OFFCURVE",
"978 440 OFFCURVE",
"918 440 CURVE SMOOTH",
"858 440 OFFCURVE",
"815 402 OFFCURVE",
"815 338 CURVE SMOOTH",
"815 271 OFFCURVE",
"851 236 OFFCURVE",
"918 236 CURVE SMOOTH"
);
},
{
closed = 1;
nodes = (
"979 1096 OFFCURVE",
"1020 1133 OFFCURVE",
"1020 1198 CURVE SMOOTH",
"1020 1262 OFFCURVE",
"978 1300 OFFCURVE",
"918 1300 CURVE SMOOTH",
"858 1300 OFFCURVE",
"815 1262 OFFCURVE",
"815 1198 CURVE SMOOTH",
"815 1133 OFFCURVE",
"851 1096 OFFCURVE",
"918 1096 CURVE SMOOTH"
);
}
);
width = 1855;
}
);
note = uniA542;
unicode = A542;
},
{
glyphname = uniA543;
lastChange = "2016-11-10 14:41:34 +0000";
layers = (
{
layerId = "ADED0D52-FD26-4FEF-A6A9-DB4FC8BB207A";
paths = (
{
closed = 1;
nodes = (
"599 -23 OFFCURVE",
"672 -5 OFFCURVE",
"740 29 CURVE SMOOTH",
"808 63 OFFCURVE",
"871 112 OFFCURVE",
"917 176 CURVE SMOOTH",
"963 240 OFFCURVE",
"991 317 OFFCURVE",
"991 408 CURVE SMOOTH",
"991 532 OFFCURVE",
"948 627 OFFCURVE",
"877 692 CURVE SMOOTH",
"806 757 OFFCURVE",
"708 791 OFFCURVE",
"600 791 CURVE SMOOTH",
"551 791 OFFCURVE",
"503 775 OFFCURVE",
"460 751 CURVE SMOOTH",
"417 727 OFFCURVE",
"380 693 OFFCURVE",
"352 657 CURVE",
"346 662 LINE",
"390 778 OFFCURVE",
"457 906 OFFCURVE",
"537 1034 CURVE SMOOTH",
"616 1162 OFFCURVE",
"708 1291 OFFCURVE",
"801 1411 CURVE",
"670 1485 LINE",
"526 1298 OFFCURVE",
"391 1102 OFFCURVE",
"294 914 CURVE SMOOTH",
"197 725 OFFCURVE",
"135 541 OFFCURVE",
"135 381 CURVE SMOOTH",
"135 257 OFFCURVE",
"174 156 OFFCURVE",
"243 86 CURVE SMOOTH",
"311 16 OFFCURVE",
"411 -23 OFFCURVE",
"532 -23 CURVE SMOOTH"
);
},
{
closed = 1;
nodes = (
"460 117 OFFCURVE",
"400 143 OFFCURVE",
"359 189 CURVE SMOOTH",
"318 235 OFFCURVE",
"295 300 OFFCURVE",
"295 381 CURVE SMOOTH",
"295 420 OFFCURVE",
"296 446 OFFCURVE",
"303 485 CURVE",
"328 528 OFFCURVE",
"369 569 OFFCURVE",
"420 600 CURVE SMOOTH",
"471 631 OFFCURVE",
"531 651 OFFCURVE",
"598 651 CURVE SMOOTH",
"662 651 OFFCURVE",
"719 630 OFFCURVE",
"762 590 CURVE SMOOTH",
"805 549 OFFCURVE",
"831 488 OFFCURVE",
"831 408 CURVE SMOOTH",
"831 312 OFFCURVE",
"793 240 OFFCURVE",
"737 191 CURVE SMOOTH",
"681 142 OFFCURVE",
"605 117 OFFCURVE",
"532 117 CURVE SMOOTH"
);
}
);
width = 1081;
}
);
note = uniA543;
unicode = A543;
},
{
glyphname = uniA544;
lastChange = "2016-11-10 14:41:34 +0000";
layers = (
{
layerId = "ADED0D52-FD26-4FEF-A6A9-DB4FC8BB207A";
paths = (
{
closed = 1;
nodes = (
"599 -23 OFFCURVE",
"672 -5 OFFCURVE",
"740 29 CURVE SMOOTH",
"808 63 OFFCURVE",
"871 112 OFFCURVE",
"917 176 CURVE SMOOTH",
"963 240 OFFCURVE",
"991 317 OFFCURVE",
"991 408 CURVE SMOOTH",
"991 532 OFFCURVE",
"948 627 OFFCURVE",
"877 692 CURVE SMOOTH",
"806 757 OFFCURVE",
"708 791 OFFCURVE",
"600 791 CURVE SMOOTH",
"551 791 OFFCURVE",
"503 775 OFFCURVE",
"460 751 CURVE SMOOTH",
"417 727 OFFCURVE",
"380 693 OFFCURVE",
"352 657 CURVE",
"346 662 LINE",
"390 778 OFFCURVE",
"457 906 OFFCURVE",
"537 1034 CURVE SMOOTH",
"616 1162 OFFCURVE",
"708 1291 OFFCURVE",
"801 1411 CURVE",
"670 1485 LINE",
"526 1298 OFFCURVE",
"391 1102 OFFCURVE",
"294 914 CURVE SMOOTH",
"197 725 OFFCURVE",
"135 541 OFFCURVE",
"135 381 CURVE SMOOTH",
"135 257 OFFCURVE",
"174 156 OFFCURVE",
"243 86 CURVE SMOOTH",
"311 16 OFFCURVE",
"411 -23 OFFCURVE",
"532 -23 CURVE SMOOTH"
);
},
{
closed = 1;
nodes = (
"460 117 OFFCURVE",
"400 143 OFFCURVE",
"359 189 CURVE SMOOTH",
"318 235 OFFCURVE",
"295 300 OFFCURVE",
"295 381 CURVE SMOOTH",
"295 420 OFFCURVE",
"296 446 OFFCURVE",
"303 485 CURVE",
"328 528 OFFCURVE",
"369 569 OFFCURVE",
"420 600 CURVE SMOOTH",
"471 631 OFFCURVE",
"531 651 OFFCURVE",
"598 651 CURVE SMOOTH",
"662 651 OFFCURVE",
"719 630 OFFCURVE",
"762 590 CURVE SMOOTH",
"805 549 OFFCURVE",
"831 488 OFFCURVE",
"831 408 CURVE SMOOTH",
"831 312 OFFCURVE",
"793 240 OFFCURVE",
"737 191 CURVE SMOOTH",
"681 142 OFFCURVE",
"605 117 OFFCURVE",
"532 117 CURVE SMOOTH"
);
},
{
closed = 1;
nodes = (
"624 293 OFFCURVE",
"664 330 OFFCURVE",
"664 395 CURVE SMOOTH",
"664 459 OFFCURVE",
"621 498 OFFCURVE",
"561 498 CURVE SMOOTH",
"501 498 OFFCURVE",
"459 459 OFFCURVE",
"459 395 CURVE SMOOTH",
"459 330 OFFCURVE",
"496 293 OFFCURVE",
"561 293 CURVE SMOOTH"
);
}
);
width = 1081;
}
);
note = uniA544;
unicode = A544;
},
{
glyphname = uniA545;
lastChange = "2016-11-10 14:41:34 +0000";
layers = (
{
layerId = "ADED0D52-FD26-4FEF-A6A9-DB4FC8BB207A";
paths = (
{
closed = 1;
nodes = (
"1226 -20 OFFCURVE",
"1335 163 OFFCURVE",
"1335 518 CURVE SMOOTH",
"1335 645 LINE",
"1718 645 LINE",
"1718 473 LINE",
"1878 473 LINE",
"1878 969 LINE",
"1718 969 LINE",
"1718 784 LINE",
"1335 784 LINE",
"1335 1462 LINE",
"1176 1462 LINE",
"1176 1321 LINE SMOOTH",
"1176 1213 OFFCURVE",
"1157 1135 OFFCURVE",
"1125 1083 CURVE SMOOTH",
"1093 1031 OFFCURVE",
"1047 1006 OFFCURVE",
"995 1006 CURVE SMOOTH",
"940 1006 OFFCURVE",
"893 1025 OFFCURVE",
"859 1067 CURVE SMOOTH",
"825 1109 OFFCURVE",
"803 1176 OFFCURVE",
"803 1272 CURVE SMOOTH",
"803 1462 LINE",
"643 1462 LINE",
"643 1276 LINE SMOOTH",
"643 1177 OFFCURVE",
"621 1110 OFFCURVE",
"589 1067 CURVE SMOOTH",
"556 1024 OFFCURVE",
"510 1006 OFFCURVE",
"465 1006 CURVE SMOOTH",
"346 1006 OFFCURVE",
"272 1106 OFFCURVE",
"272 1317 CURVE SMOOTH",
"272 1462 LINE",
"113 1462 LINE",
"113 1317 LINE SMOOTH",
"113 1146 OFFCURVE",
"145 1035 OFFCURVE",
"202 966 CURVE SMOOTH",
"258 897 OFFCURVE",
"338 870 OFFCURVE",
"434 870 CURVE SMOOTH",
"487 870 OFFCURVE",
"543 881 OFFCURVE",
"592 910 CURVE SMOOTH",
"640 939 OFFCURVE",
"684 984 OFFCURVE",
"715 1055 CURVE",
"723 1055 LINE",
"744 983 OFFCURVE",
"786 937 OFFCURVE",
"832 909 CURVE SMOOTH",
"878 880 OFFCURVE",
"928 870 OFFCURVE",
"969 870 CURVE SMOOTH",
"1001 870 OFFCURVE",
"1040 880 OFFCURVE",
"1076 901 CURVE SMOOTH",
"1112 922 OFFCURVE",
"1146 956 OFFCURVE",
"1167 1004 CURVE",
"1176 1004 LINE",
"1176 774 LINE",
"1025 746 OFFCURVE",
"928 671 OFFCURVE",
"869 577 CURVE SMOOTH",
"809 483 OFFCURVE",
"788 369 OFFCURVE",
"788 268 CURVE SMOOTH",
"788 165 OFFCURVE",
"822 94 OFFCURVE",
"870 47 CURVE SMOOTH",
"918 0 OFFCURVE",
"978 -20 OFFCURVE",
"1030 -20 CURVE SMOOTH"
);
},
{
closed = 1;
nodes = (
"1002 119 OFFCURVE",
"977 132 OFFCURVE",
"958 157 CURVE SMOOTH",
"939 181 OFFCURVE",
"928 220 OFFCURVE",
"928 272 CURVE SMOOTH",
"928 311 OFFCURVE",
"929 357 OFFCURVE",
"940 405 CURVE SMOOTH",
"951 453 OFFCURVE",
"970 501 OFFCURVE",
"1007 542 CURVE SMOOTH",
"1043 582 OFFCURVE",
"1097 616 OFFCURVE",
"1176 633 CURVE",
"1176 518 LINE SMOOTH",
"1176 367 OFFCURVE",
"1162 268 OFFCURVE",
"1138 206 CURVE SMOOTH",
"1113 144 OFFCURVE",
"1075 119 OFFCURVE",
"1030 119 CURVE SMOOTH"
);
},
{
closed = 1;
nodes = (
"1587 338 OFFCURVE",
"1628 375 OFFCURVE",
"1628 440 CURVE SMOOTH",
"1628 504 OFFCURVE",
"1586 543 OFFCURVE",
"1526 543 CURVE SMOOTH",
"1466 543 OFFCURVE",
"1423 504 OFFCURVE",
"1423 440 CURVE SMOOTH",
"1423 375 OFFCURVE",
"1459 338 OFFCURVE",
"1526 338 CURVE SMOOTH"
);
},
{
closed = 1;
nodes = (
"1587 891 OFFCURVE",
"1628 928 OFFCURVE",
"1628 993 CURVE SMOOTH",
"1628 1057 OFFCURVE",
"1586 1096 OFFCURVE",
"1526 1096 CURVE SMOOTH",
"1466 1096 OFFCURVE",
"1423 1057 OFFCURVE",
"1423 993 CURVE SMOOTH",
"1423 928 OFFCURVE",
"1459 891 OFFCURVE",
"1526 891 CURVE SMOOTH"
);
}
);
width = 1946;
}
);
note = uniA545;
unicode = A545;
},
{
glyphname = uniA546;
lastChange = "2016-11-10 14:41:34 +0000";
layers = (
{
layerId = "ADED0D52-FD26-4FEF-A6A9-DB4FC8BB207A";
paths = (
{
closed = 1;
nodes = (
"889 119 LINE",
"709 119 OFFCURVE",
"571 178 OFFCURVE",
"479 283 CURVE SMOOTH",
"387 388 OFFCURVE",
"340 541 OFFCURVE",
"340 729 CURVE SMOOTH",
"340 913 OFFCURVE",
"394 1069 OFFCURVE",
"490 1178 CURVE SMOOTH",
"586 1287 OFFCURVE",
"722 1350 OFFCURVE",
"889 1350 CURVE",
"879 1489 LINE",
"667 1489 OFFCURVE",
"493 1412 OFFCURVE",
"371 1279 CURVE SMOOTH",
"249 1146 OFFCURVE",
"180 956 OFFCURVE",
"180 729 CURVE SMOOTH",
"180 497 OFFCURVE",
"239 310 OFFCURVE",
"356 181 CURVE SMOOTH",
"473 52 OFFCURVE",
"647 -20 OFFCURVE",
"879 -20 CURVE"
);
},
{
closed = 1;
nodes = (
"1503 119 LINE",
"1323 119 OFFCURVE",
"1186 178 OFFCURVE",
"1094 283 CURVE SMOOTH",
"1001 388 OFFCURVE",
"954 541 OFFCURVE",
"954 729 CURVE SMOOTH",
"954 913 OFFCURVE",
"1008 1069 OFFCURVE",
"1104 1178 CURVE SMOOTH",
"1200 1287 OFFCURVE",
"1336 1350 OFFCURVE",
"1503 1350 CURVE",
"1493 1489 LINE",
"1281 1489 OFFCURVE",
"1106 1412 OFFCURVE",
"985 1279 CURVE SMOOTH",
"864 1146 OFFCURVE",
"795 956 OFFCURVE",
"795 729 CURVE SMOOTH",
"795 497 OFFCURVE",
"854 310 OFFCURVE",
"971 181 CURVE SMOOTH",
"1087 52 OFFCURVE",
"1261 -20 OFFCURVE",
"1493 -20 CURVE"
);
}
);
width = 1593;
}
);
note = uniA546;
unicode = A546;
},
{
glyphname = uniA547;
lastChange = "2016-11-10 14:41:34 +0000";
layers = (
{
layerId = "ADED0D52-FD26-4FEF-A6A9-DB4FC8BB207A";
paths = (
{
closed = 1;
nodes = (
"871 2 OFFCURVE",
"1015 33 OFFCURVE",
"1122 84 CURVE",
"1065 201 LINE",
"1013 180 OFFCURVE",
"949 164 OFFCURVE",
"880 155 CURVE SMOOTH",
"811 146 OFFCURVE",
"735 141 OFFCURVE",
"662 141 CURVE SMOOTH",
"552 141 OFFCURVE",
"467 153 OFFCURVE",
"407 176 CURVE SMOOTH",
"347 199 OFFCURVE",
"317 236 OFFCURVE",
"317 287 CURVE SMOOTH",
"317 336 OFFCURVE",
"347 373 OFFCURVE",
"407 396 CURVE SMOOTH",
"466 419 OFFCURVE",
"551 430 OFFCURVE",
"662 430 CURVE SMOOTH",
"810 430 OFFCURVE",
"921 414 OFFCURVE",
"997 358 CURVE",
"1110 438 LINE",
"1110 913 LINE",
"309 748 LINE",
"309 965 LINE",
"390 936 OFFCURVE",
"494 922 OFFCURVE",
"621 922 CURVE SMOOTH",
"962 922 OFFCURVE",
"1124 1017 OFFCURVE",
"1124 1196 CURVE SMOOTH",
"1124 1281 OFFCURVE",
"1084 1353 OFFCURVE",
"1001 1402 CURVE SMOOTH",
"917 1451 OFFCURVE",
"792 1479 OFFCURVE",
"621 1479 CURVE SMOOTH",
"517 1479 OFFCURVE",
"433 1472 OFFCURVE",
"362 1458 CURVE SMOOTH",
"291 1444 OFFCURVE",
"233 1422 OFFCURVE",
"180 1397 CURVE",
"238 1280 LINE",
"342 1323 OFFCURVE",
"472 1339 OFFCURVE",
"621 1339 CURVE SMOOTH",
"731 1339 OFFCURVE",
"816 1328 OFFCURVE",
"876 1305 CURVE SMOOTH",
"935 1282 OFFCURVE",
"965 1245 OFFCURVE",
"965 1196 CURVE SMOOTH",
"965 1145 OFFCURVE",
"935 1108 OFFCURVE",
"875 1085 CURVE SMOOTH",
"815 1062 OFFCURVE",
"730 1051 OFFCURVE",
"621 1051 CURVE SMOOTH",
"462 1051 OFFCURVE",
"349 1071 OFFCURVE",
"274 1135 CURVE",
"160 1057 LINE",
"160 582 LINE",
"961 748 LINE",
"961 520 LINE",
"878 547 OFFCURVE",
"781 559 OFFCURVE",
"662 559 CURVE SMOOTH",
"319 559 OFFCURVE",
"158 459 OFFCURVE",
"158 287 CURVE SMOOTH",
"158 108 OFFCURVE",
"319 2 OFFCURVE",
"662 2 CURVE SMOOTH"
);
}
);
width = 1282;
}
);
note = uniA547;
unicode = A547;
},
{
glyphname = uniA548;
lastChange = "2016-11-10 14:41:34 +0000";
layers = (
{
layerId = "ADED0D52-FD26-4FEF-A6A9-DB4FC8BB207A";
paths = (
{
closed = 1;
nodes = (
"569 -20 OFFCURVE",
"659 19 OFFCURVE",
"720 90 CURVE SMOOTH",
"780 161 OFFCURVE",
"811 264 OFFCURVE",
"811 395 CURVE SMOOTH",
"811 678 LINE",
"1083 678 LINE",
"1083 0 LINE",
"1243 0 LINE",
"1243 819 LINE",
"811 819 LINE",
"811 1462 LINE",
"651 1462 LINE",
"651 819 LINE",
"472 819 OFFCURVE",
"326 787 OFFCURVE",
"225 715 CURVE SMOOTH",
"124 643 OFFCURVE",
"68 532 OFFCURVE",
"68 375 CURVE SMOOTH",
"68 104 OFFCURVE",
"206 -20 OFFCURVE",
"449 -20 CURVE SMOOTH"
);
},
{
closed = 1;
nodes = (
"381 119 OFFCURVE",
"326 147 OFFCURVE",
"287 193 CURVE SMOOTH",
"248 239 OFFCURVE",
"227 302 OFFCURVE",
"227 375 CURVE SMOOTH",
"227 499 OFFCURVE",
"257 575 OFFCURVE",
"325 620 CURVE SMOOTH",
"393 664 OFFCURVE",
"499 678 OFFCURVE",
"651 678 CURVE",
"651 393 LINE SMOOTH",
"651 206 OFFCURVE",
"585 119 OFFCURVE",
"449 119 CURVE SMOOTH"
);
}
);
width = 1423;
}
);
note = uniA548;
unicode = A548;
},
{
glyphname = uniA549;
lastChange = "2016-11-10 14:41:34 +0000";
layers = (
{
layerId = "ADED0D52-FD26-4FEF-A6A9-DB4FC8BB207A";
paths = (
{
closed = 1;
nodes = (
"637 0 LINE",
"637 592 LINE",
"740 608 OFFCURVE",
"832 656 OFFCURVE",
"898 731 CURVE SMOOTH",
"964 806 OFFCURVE",
"1004 905 OFFCURVE",
"1004 1028 CURVE SMOOTH",
"1004 1161 OFFCURVE",
"951 1275 OFFCURVE",
"869 1354 CURVE SMOOTH",
"787 1433 OFFCURVE",
"675 1479 OFFCURVE",
"559 1479 CURVE SMOOTH",
"443 1479 OFFCURVE",
"332 1433 OFFCURVE",
"250 1354 CURVE SMOOTH",
"168 1275 OFFCURVE",
"115 1161 OFFCURVE",
"115 1028 CURVE SMOOTH",
"115 907 OFFCURVE",
"153 807 OFFCURVE",
"217 732 CURVE SMOOTH",
"281 657 OFFCURVE",
"372 608 OFFCURVE",
"477 592 CURVE",
"477 0 LINE"
);
},
{
closed = 1;
nodes = (
"342 82 OFFCURVE",
"383 119 OFFCURVE",
"383 184 CURVE SMOOTH",
"383 248 OFFCURVE",
"341 287 OFFCURVE",
"281 287 CURVE SMOOTH",
"221 287 OFFCURVE",
"178 248 OFFCURVE",
"178 184 CURVE SMOOTH",
"178 119 OFFCURVE",
"214 82 OFFCURVE",
"281 82 CURVE SMOOTH"
);
},
{
closed = 1;
nodes = (
"342 358 OFFCURVE",
"383 394 OFFCURVE",
"383 461 CURVE SMOOTH",
"383 525 OFFCURVE",
"341 563 OFFCURVE",
"281 563 CURVE SMOOTH",
"221 563 OFFCURVE",
"178 525 OFFCURVE",
"178 461 CURVE SMOOTH",
"178 394 OFFCURVE",
"214 358 OFFCURVE",
"281 358 CURVE SMOOTH"
);
},
{
closed = 1;
nodes = (
"897 82 OFFCURVE",
"938 119 OFFCURVE",
"938 184 CURVE SMOOTH",
"938 248 OFFCURVE",
"896 287 OFFCURVE",
"836 287 CURVE SMOOTH",
"776 287 OFFCURVE",
"733 248 OFFCURVE",
"733 184 CURVE SMOOTH",
"733 119 OFFCURVE",
"769 82 OFFCURVE",
"836 82 CURVE SMOOTH"
);
},
{
closed = 1;
nodes = (
"897 358 OFFCURVE",
"938 394 OFFCURVE",
"938 461 CURVE SMOOTH",
"938 525 OFFCURVE",
"896 563 OFFCURVE",
"836 563 CURVE SMOOTH",
"776 563 OFFCURVE",
"733 525 OFFCURVE",
"733 461 CURVE SMOOTH",
"733 394 OFFCURVE",
"769 358 OFFCURVE",
"836 358 CURVE SMOOTH"
);
},
{
closed = 1;
nodes = (
"480 725 OFFCURVE",
"409 754 OFFCURVE",
"358 807 CURVE SMOOTH",
"306 859 OFFCURVE",
"274 935 OFFCURVE",
"274 1028 CURVE SMOOTH",
"274 1121 OFFCURVE",
"309 1198 OFFCURVE",
"362 1253 CURVE SMOOTH",
"415 1308 OFFCURVE",
"487 1339 OFFCURVE",
"559 1339 CURVE SMOOTH",
"631 1339 OFFCURVE",
"702 1308 OFFCURVE",
"755 1253 CURVE SMOOTH",
"808 1198 OFFCURVE",
"844 1121 OFFCURVE",
"844 1028 CURVE SMOOTH",
"844 935 OFFCURVE",
"810 859 OFFCURVE",
"758 807 CURVE SMOOTH",
"705 754 OFFCURVE",
"634 725 OFFCURVE",
"559 725 CURVE SMOOTH"
);
}
);
width = 1118;
}
);
note = uniA549;
unicode = A549;
},
{
glyphname = uniA54A;
lastChange = "2016-11-10 14:41:34 +0000";
layers = (
{
layerId = "ADED0D52-FD26-4FEF-A6A9-DB4FC8BB207A";
paths = (
{
closed = 1;
nodes = (
"626 276 OFFCURVE",
"683 293 OFFCURVE",
"739 322 CURVE",
"799 293 OFFCURVE",
"861 276 OFFCURVE",
"928 276 CURVE SMOOTH",
"1047 276 OFFCURVE",
"1141 297 OFFCURVE",
"1221 357 CURVE SMOOTH",
"1300 416 OFFCURVE",
"1364 513 OFFCURVE",
"1423 668 CURVE",
"1309 727 LINE",
"1261 603 OFFCURVE",
"1207 526 OFFCURVE",
"1145 479 CURVE SMOOTH",
"1083 431 OFFCURVE",
"1011 416 OFFCURVE",
"928 416 CURVE SMOOTH",
"907 416 OFFCURVE",
"879 418 OFFCURVE",
"858 422 CURVE",
"914 481 OFFCURVE",
"964 553 OFFCURVE",
"999 634 CURVE SMOOTH",
"1034 714 OFFCURVE",
"1055 802 OFFCURVE",
"1055 893 CURVE SMOOTH",
"1055 1028 OFFCURVE",
"1024 1135 OFFCURVE",
"969 1208 CURVE SMOOTH",
"913 1280 OFFCURVE",
"834 1319 OFFCURVE",
"735 1319 CURVE SMOOTH",
"636 1319 OFFCURVE",
"557 1267 OFFCURVE",
"502 1188 CURVE SMOOTH",
"447 1109 OFFCURVE",
"416 1002 OFFCURVE",
"416 893 CURVE SMOOTH",
"416 794 OFFCURVE",
"437 703 OFFCURVE",
"473 623 CURVE SMOOTH",
"509 543 OFFCURVE",
"558 473 OFFCURVE",
"614 418 CURVE",
"608 417 OFFCURVE",
"600 416 OFFCURVE",
"590 416 CURVE SMOOTH",
"579 416 OFFCURVE",
"570 416 OFFCURVE",
"563 416 CURVE SMOOTH",
"480 416 OFFCURVE",
"404 431 OFFCURVE",
"339 479 CURVE SMOOTH",
"274 526 OFFCURVE",
"217 603 OFFCURVE",
"172 727 CURVE",
"47 664 LINE",
"103 509 OFFCURVE",
"174 413 OFFCURVE",
"259 355 CURVE SMOOTH",
"343 297 OFFCURVE",
"444 276 OFFCURVE",
"563 276 CURVE SMOOTH"
);
},
{
closed = 1;
nodes = (
"700 508 OFFCURVE",
"656 573 OFFCURVE",
"625 649 CURVE SMOOTH",
"593 725 OFFCURVE",
"575 810 OFFCURVE",
"575 893 CURVE SMOOTH",
"575 965 OFFCURVE",
"588 1038 OFFCURVE",
"614 1091 CURVE SMOOTH",
"640 1144 OFFCURVE",
"680 1180 OFFCURVE",
"735 1180 CURVE SMOOTH",
"791 1180 OFFCURVE",
"831 1144 OFFCURVE",
"857 1091 CURVE SMOOTH",
"883 1038 OFFCURVE",
"895 965 OFFCURVE",
"895 893 CURVE SMOOTH",
"895 810 OFFCURVE",
"883 725 OFFCURVE",
"860 649 CURVE SMOOTH",
"836 573 OFFCURVE",
"800 508 OFFCURVE",
"752 465 CURVE"
);
}
);
width = 1470;
}
);
note = uniA54A;
unicode = A54A;
},
{
glyphname = uniA54B;
lastChange = "2016-11-10 14:41:34 +0000";
layers = (
{
layerId = "ADED0D52-FD26-4FEF-A6A9-DB4FC8BB207A";
paths = (
{
closed = 1;
nodes = (
"626 276 OFFCURVE",
"683 293 OFFCURVE",
"739 322 CURVE",
"799 293 OFFCURVE",
"861 276 OFFCURVE",
"928 276 CURVE SMOOTH",
"1047 276 OFFCURVE",
"1141 297 OFFCURVE",
"1221 357 CURVE SMOOTH",
"1300 416 OFFCURVE",
"1364 513 OFFCURVE",
"1423 668 CURVE",
"1309 727 LINE",
"1261 603 OFFCURVE",
"1207 526 OFFCURVE",
"1145 479 CURVE SMOOTH",
"1083 431 OFFCURVE",
"1011 416 OFFCURVE",
"928 416 CURVE SMOOTH",
"907 416 OFFCURVE",
"879 418 OFFCURVE",
"858 422 CURVE",
"914 481 OFFCURVE",
"964 553 OFFCURVE",
"999 634 CURVE SMOOTH",
"1034 714 OFFCURVE",
"1055 802 OFFCURVE",
"1055 893 CURVE SMOOTH",
"1055 1028 OFFCURVE",
"1024 1135 OFFCURVE",
"969 1208 CURVE SMOOTH",
"913 1280 OFFCURVE",
"834 1319 OFFCURVE",
"735 1319 CURVE SMOOTH",
"636 1319 OFFCURVE",
"557 1267 OFFCURVE",
"502 1188 CURVE SMOOTH",
"447 1109 OFFCURVE",
"416 1002 OFFCURVE",
"416 893 CURVE SMOOTH",
"416 794 OFFCURVE",
"437 703 OFFCURVE",
"473 623 CURVE SMOOTH",
"509 543 OFFCURVE",
"558 473 OFFCURVE",
"614 418 CURVE",
"608 417 OFFCURVE",
"600 416 OFFCURVE",
"590 416 CURVE SMOOTH",
"579 416 OFFCURVE",
"570 416 OFFCURVE",
"563 416 CURVE SMOOTH",
"480 416 OFFCURVE",
"404 431 OFFCURVE",
"339 479 CURVE SMOOTH",
"274 526 OFFCURVE",
"217 603 OFFCURVE",
"172 727 CURVE",
"47 664 LINE",
"103 509 OFFCURVE",
"174 413 OFFCURVE",
"259 355 CURVE SMOOTH",
"343 297 OFFCURVE",
"444 276 OFFCURVE",
"563 276 CURVE SMOOTH"
);
},
{
closed = 1;
nodes = (
"1384 0 OFFCURVE",
"1425 37 OFFCURVE",
"1425 102 CURVE SMOOTH",
"1425 166 OFFCURVE",
"1383 205 OFFCURVE",
"1323 205 CURVE SMOOTH",
"1263 205 OFFCURVE",
"1221 166 OFFCURVE",
"1221 102 CURVE SMOOTH",
"1221 37 OFFCURVE",
"1256 0 OFFCURVE",
"1323 0 CURVE SMOOTH"
);
},
{
closed = 1;
nodes = (
"700 508 OFFCURVE",
"656 573 OFFCURVE",
"625 649 CURVE SMOOTH",
"593 725 OFFCURVE",
"575 810 OFFCURVE",
"575 893 CURVE SMOOTH",
"575 965 OFFCURVE",
"588 1038 OFFCURVE",
"614 1091 CURVE SMOOTH",
"640 1144 OFFCURVE",
"680 1180 OFFCURVE",
"735 1180 CURVE SMOOTH",
"791 1180 OFFCURVE",
"831 1144 OFFCURVE",
"857 1091 CURVE SMOOTH",
"883 1038 OFFCURVE",
"895 965 OFFCURVE",
"895 893 CURVE SMOOTH",
"895 810 OFFCURVE",
"883 725 OFFCURVE",
"860 649 CURVE SMOOTH",
"836 573 OFFCURVE",
"800 508 OFFCURVE",
"752 465 CURVE"
);
},
{
closed = 1;
nodes = (
"1384 920 OFFCURVE",
"1425 955 OFFCURVE",
"1425 1022 CURVE SMOOTH",
"1425 1086 OFFCURVE",
"1383 1124 OFFCURVE",
"1323 1124 CURVE SMOOTH",
"1263 1124 OFFCURVE",
"1221 1086 OFFCURVE",
"1221 1022 CURVE SMOOTH",
"1221 955 OFFCURVE",
"1256 920 OFFCURVE",
"1323 920 CURVE SMOOTH"
);
}
);
width = 1516;
}
);
note = uniA54B;
unicode = A54B;
},
{
glyphname = uniA54C;
lastChange = "2016-11-10 14:41:34 +0000";
layers = (
{
layerId = "ADED0D52-FD26-4FEF-A6A9-DB4FC8BB207A";
paths = (
{
closed = 1;
nodes = (
"762 0 LINE",
"762 983 LINE",
"770 983 LINE",
"794 935 OFFCURVE",
"828 907 OFFCURVE",
"862 891 CURVE SMOOTH",
"896 874 OFFCURVE",
"929 870 OFFCURVE",
"950 870 CURVE SMOOTH",
"975 870 OFFCURVE",
"1007 875 OFFCURVE",
"1039 892 CURVE SMOOTH",
"1070 909 OFFCURVE",
"1102 936 OFFCURVE",
"1130 983 CURVE",
"1139 983 LINE",
"1139 0 LINE",
"1298 0 LINE",
"1298 983 LINE",
"1307 983 LINE",
"1331 935 OFFCURVE",
"1365 907 OFFCURVE",
"1399 891 CURVE SMOOTH",
"1433 874 OFFCURVE",
"1466 870 OFFCURVE",
"1487 870 CURVE SMOOTH",
"1583 870 OFFCURVE",
"1658 897 OFFCURVE",
"1710 967 CURVE SMOOTH",
"1761 1037 OFFCURVE",
"1788 1150 OFFCURVE",
"1788 1323 CURVE SMOOTH",
"1788 1462 LINE",
"1628 1462 LINE",
"1628 1321 LINE SMOOTH",
"1628 1105 OFFCURVE",
"1575 1006 OFFCURVE",
"1466 1006 CURVE SMOOTH",
"1415 1006 OFFCURVE",
"1373 1024 OFFCURVE",
"1344 1067 CURVE SMOOTH",
"1315 1110 OFFCURVE",
"1298 1177 OFFCURVE",
"1298 1276 CURVE SMOOTH",
"1298 1462 LINE",
"1139 1462 LINE",
"1139 1276 LINE SMOOTH",
"1139 1177 OFFCURVE",
"1120 1110 OFFCURVE",
"1088 1067 CURVE SMOOTH",
"1055 1024 OFFCURVE",
"1007 1006 OFFCURVE",
"950 1006 CURVE SMOOTH",
"893 1006 OFFCURVE",
"846 1024 OFFCURVE",
"814 1067 CURVE SMOOTH",
"781 1110 OFFCURVE",
"762 1177 OFFCURVE",
"762 1276 CURVE SMOOTH",
"762 1462 LINE",
"602 1462 LINE",
"602 1276 LINE SMOOTH",
"602 1177 OFFCURVE",
"585 1110 OFFCURVE",
"557 1067 CURVE SMOOTH",
"528 1024 OFFCURVE",
"486 1006 OFFCURVE",
"434 1006 CURVE SMOOTH",
"326 1006 OFFCURVE",
"272 1105 OFFCURVE",
"272 1321 CURVE SMOOTH",
"272 1462 LINE",
"113 1462 LINE",
"113 1323 LINE SMOOTH",
"113 1150 OFFCURVE",
"140 1037 OFFCURVE",
"191 967 CURVE SMOOTH",
"242 897 OFFCURVE",
"318 870 OFFCURVE",
"414 870 CURVE SMOOTH",
"439 870 OFFCURVE",
"471 875 OFFCURVE",
"503 892 CURVE SMOOTH",
"534 909 OFFCURVE",
"566 936 OFFCURVE",
"594 983 CURVE",
"602 983 LINE",
"602 0 LINE"
);
}
);
width = 1901;
}
);
note = uniA54C;
unicode = A54C;
},
{
glyphname = uniA54D;
lastChange = "2016-11-10 14:41:34 +0000";
layers = (
{
layerId = "ADED0D52-FD26-4FEF-A6A9-DB4FC8BB207A";
paths = (
{
closed = 1;
nodes = (
"762 0 LINE",
"762 778 LINE",
"770 778 LINE",
"794 730 OFFCURVE",
"828 702 OFFCURVE",
"862 686 CURVE SMOOTH",
"896 670 OFFCURVE",
"929 666 OFFCURVE",
"950 666 CURVE SMOOTH",
"975 666 OFFCURVE",
"1007 671 OFFCURVE",
"1039 688 CURVE SMOOTH",
"1070 704 OFFCURVE",
"1102 731 OFFCURVE",
"1130 778 CURVE",
"1139 778 LINE",
"1139 0 LINE",
"1298 0 LINE",
"1298 778 LINE",
"1307 778 LINE",
"1331 730 OFFCURVE",
"1365 702 OFFCURVE",
"1399 686 CURVE SMOOTH",
"1433 670 OFFCURVE",
"1466 666 OFFCURVE",
"1487 666 CURVE SMOOTH",
"1583 666 OFFCURVE",
"1658 693 OFFCURVE",
"1710 763 CURVE SMOOTH",
"1761 833 OFFCURVE",
"1788 945 OFFCURVE",
"1788 1118 CURVE SMOOTH",
"1788 1257 LINE",
"1628 1257 LINE",
"1628 1116 LINE SMOOTH",
"1628 900 OFFCURVE",
"1575 801 OFFCURVE",
"1466 801 CURVE SMOOTH",
"1415 801 OFFCURVE",
"1373 819 OFFCURVE",
"1344 862 CURVE SMOOTH",
"1315 905 OFFCURVE",
"1298 972 OFFCURVE",
"1298 1071 CURVE SMOOTH",
"1298 1257 LINE",
"1139 1257 LINE",
"1139 1071 LINE SMOOTH",
"1139 972 OFFCURVE",
"1120 905 OFFCURVE",
"1088 862 CURVE SMOOTH",
"1055 819 OFFCURVE",
"1007 801 OFFCURVE",
"950 801 CURVE SMOOTH",
"893 801 OFFCURVE",
"846 819 OFFCURVE",
"814 862 CURVE SMOOTH",
"781 905 OFFCURVE",
"762 972 OFFCURVE",
"762 1071 CURVE SMOOTH",
"762 1257 LINE",
"602 1257 LINE",
"602 1071 LINE SMOOTH",
"602 972 OFFCURVE",
"585 905 OFFCURVE",
"557 862 CURVE SMOOTH",
"528 819 OFFCURVE",
"486 801 OFFCURVE",
"434 801 CURVE SMOOTH",
"326 801 OFFCURVE",
"272 900 OFFCURVE",
"272 1116 CURVE SMOOTH",
"272 1257 LINE",
"113 1257 LINE",
"113 1118 LINE SMOOTH",
"113 945 OFFCURVE",
"140 833 OFFCURVE",
"191 763 CURVE SMOOTH",
"242 693 OFFCURVE",
"318 666 OFFCURVE",
"414 666 CURVE SMOOTH",
"439 666 OFFCURVE",
"471 671 OFFCURVE",
"503 688 CURVE SMOOTH",
"534 704 OFFCURVE",
"566 731 OFFCURVE",
"594 778 CURVE",
"602 778 LINE",
"602 0 LINE"
);
},
{
closed = 1;
nodes = (
"1009 229 OFFCURVE",
"1049 265 OFFCURVE",
"1049 332 CURVE SMOOTH",
"1049 396 OFFCURVE",
"1006 434 OFFCURVE",
"946 434 CURVE SMOOTH",
"886 434 OFFCURVE",
"844 396 OFFCURVE",
"844 332 CURVE SMOOTH",
"844 265 OFFCURVE",
"881 229 OFFCURVE",
"946 229 CURVE SMOOTH"
);
},
{
closed = 1;
nodes = (
"1009 1272 OFFCURVE",
"1049 1309 OFFCURVE",
"1049 1374 CURVE SMOOTH",
"1049 1438 OFFCURVE",
"1006 1477 OFFCURVE",
"946 1477 CURVE SMOOTH",
"886 1477 OFFCURVE",
"844 1438 OFFCURVE",
"844 1374 CURVE SMOOTH",
"844 1309 OFFCURVE",
"881 1272 OFFCURVE",
"946 1272 CURVE SMOOTH"
);
}
);
width = 1901;
}
);
note = uniA54D;
unicode = A54D;
},
{
glyphname = uniA54E;
lastChange = "2016-11-10 14:41:34 +0000";
layers = (
{
layerId = "ADED0D52-FD26-4FEF-A6A9-DB4FC8BB207A";
paths = (
{
closed = 1;
nodes = (
"1237 -23 OFFCURVE",
"1329 13 OFFCURVE",
"1405 78 CURVE SMOOTH",
"1480 143 OFFCURVE",
"1538 236 OFFCURVE",
"1573 352 CURVE",
"1436 387 LINE",
"1385 216 OFFCURVE",
"1285 117 OFFCURVE",
"1137 117 CURVE SMOOTH",
"1064 117 OFFCURVE",
"1004 143 OFFCURVE",
"963 189 CURVE SMOOTH",
"922 235 OFFCURVE",
"899 300 OFFCURVE",
"899 381 CURVE SMOOTH",
"899 528 OFFCURVE",
"958 698 OFFCURVE",
"1051 875 CURVE SMOOTH",
"1143 1052 OFFCURVE",
"1270 1236 OFFCURVE",
"1405 1411 CURVE",
"1274 1485 LINE",
"1153 1328 OFFCURVE",
"1041 1167 OFFCURVE",
"950 1010 CURVE",
"907 1019 OFFCURVE",
"871 1044 OFFCURVE",
"845 1086 CURVE SMOOTH",
"819 1128 OFFCURVE",
"803 1189 OFFCURVE",
"803 1272 CURVE SMOOTH",
"803 1462 LINE",
"643 1462 LINE",
"643 1276 LINE SMOOTH",
"643 1177 OFFCURVE",
"621 1110 OFFCURVE",
"589 1067 CURVE SMOOTH",
"556 1024 OFFCURVE",
"510 1006 OFFCURVE",
"465 1006 CURVE SMOOTH",
"346 1006 OFFCURVE",
"272 1106 OFFCURVE",
"272 1317 CURVE SMOOTH",
"272 1462 LINE",
"113 1462 LINE",
"113 1317 LINE SMOOTH",
"113 1146 OFFCURVE",
"145 1035 OFFCURVE",
"202 966 CURVE SMOOTH",
"258 897 OFFCURVE",
"338 870 OFFCURVE",
"434 870 CURVE SMOOTH",
"487 870 OFFCURVE",
"543 881 OFFCURVE",
"592 910 CURVE SMOOTH",
"640 939 OFFCURVE",
"684 984 OFFCURVE",
"715 1055 CURVE",
"723 1055 LINE",
"752 956 OFFCURVE",
"816 905 OFFCURVE",
"883 885 CURVE",
"792 706 OFFCURVE",
"739 533 OFFCURVE",
"739 381 CURVE SMOOTH",
"739 257 OFFCURVE",
"778 156 OFFCURVE",
"847 86 CURVE SMOOTH",
"915 16 OFFCURVE",
"1014 -23 OFFCURVE",
"1137 -23 CURVE SMOOTH"
);
}
);
width = 1640;
}
);
note = uniA54E;
unicode = A54E;
},
{
glyphname = uniA54F;
lastChange = "2016-11-10 14:40:37 +0000";
layers = (
{
layerId = "ADED0D52-FD26-4FEF-A6A9-DB4FC8BB207A";
paths = (
{
closed = 1;
nodes = (
"1335 0 LINE",
"1335 119 LINE",
"1364 158 OFFCURVE",
"1417 176 OFFCURVE",
"1477 176 CURVE SMOOTH",
"1532 176 OFFCURVE",
"1577 158 OFFCURVE",
"1609 127 CURVE SMOOTH",
"1641 95 OFFCURVE",
"1659 51 OFFCURVE",
"1659 0 CURVE",
"1819 0 LINE",
"1819 103 OFFCURVE",
"1787 180 OFFCURVE",
"1731 232 CURVE SMOOTH",
"1674 284 OFFCURVE",
"1593 311 OFFCURVE",
"1497 311 CURVE SMOOTH",
"1437 311 OFFCURVE",
"1385 289 OFFCURVE",
"1346 264 CURVE",
"1335 264 LINE",
"1335 526 LINE",
"1364 565 OFFCURVE",
"1417 584 OFFCURVE",
"1477 584 CURVE SMOOTH",
"1588 584 OFFCURVE",
"1659 523 OFFCURVE",
"1659 408 CURVE",
"1819 408 LINE",
"1819 504 OFFCURVE",
"1787 582 OFFCURVE",
"1731 636 CURVE SMOOTH",
"1674 690 OFFCURVE",
"1593 719 OFFCURVE",
"1497 719 CURVE SMOOTH",
"1437 719 OFFCURVE",
"1385 696 OFFCURVE",
"1346 672 CURVE",
"1335 672 LINE",
"1335 1462 LINE",
"1176 1462 LINE",
"1176 1321 LINE SMOOTH",
"1176 1213 OFFCURVE",
"1157 1135 OFFCURVE",
"1125 1083 CURVE SMOOTH",
"1093 1031 OFFCURVE",
"1047 1006 OFFCURVE",
"995 1006 CURVE SMOOTH",
"940 1006 OFFCURVE",
"893 1025 OFFCURVE",
"859 1067 CURVE SMOOTH",
"825 1109 OFFCURVE",
"803 1176 OFFCURVE",
"803 1272 CURVE SMOOTH",
"803 1462 LINE",
"643 1462 LINE",
"643 1276 LINE SMOOTH",
"643 1177 OFFCURVE",
"621 1110 OFFCURVE",
"589 1067 CURVE SMOOTH",
"556 1024 OFFCURVE",
"510 1006 OFFCURVE",
"465 1006 CURVE SMOOTH",
"346 1006 OFFCURVE",
"272 1106 OFFCURVE",
"272 1317 CURVE SMOOTH",
"272 1462 LINE",
"113 1462 LINE",
"113 1317 LINE SMOOTH",
"113 1146 OFFCURVE",
"145 1035 OFFCURVE",
"202 966 CURVE SMOOTH",
"258 897 OFFCURVE",
"338 870 OFFCURVE",
"434 870 CURVE SMOOTH",
"487 870 OFFCURVE",
"543 881 OFFCURVE",
"592 910 CURVE SMOOTH",
"640 939 OFFCURVE",
"684 984 OFFCURVE",
"715 1055 CURVE",
"723 1055 LINE",
"744 983 OFFCURVE",
"786 937 OFFCURVE",
"832 909 CURVE SMOOTH",
"878 880 OFFCURVE",
"928 870 OFFCURVE",
"969 870 CURVE SMOOTH",
"1001 870 OFFCURVE",
"1040 880 OFFCURVE",
"1076 901 CURVE SMOOTH",
"1112 922 OFFCURVE",
"1146 956 OFFCURVE",
"1167 1004 CURVE",
"1176 1004 LINE",
"1176 0 LINE"
);
}
);
width = 1909;
}
);
note = uniA54F;
unicode = A54F;
},
{
glyphname = uniA550;
lastChange = "2016-11-10 14:41:34 +0000";
layers = (
{
layerId = "ADED0D52-FD26-4FEF-A6A9-DB4FC8BB207A";
paths = (
{
closed = 1;
nodes = (
"1335 0 LINE",
"1335 1462 LINE",
"1176 1462 LINE",
"1176 1321 LINE SMOOTH",
"1176 1213 OFFCURVE",
"1157 1135 OFFCURVE",
"1125 1083 CURVE SMOOTH",
"1093 1031 OFFCURVE",
"1047 1006 OFFCURVE",
"995 1006 CURVE SMOOTH",
"940 1006 OFFCURVE",
"893 1025 OFFCURVE",
"859 1067 CURVE SMOOTH",
"825 1109 OFFCURVE",
"803 1176 OFFCURVE",
"803 1272 CURVE SMOOTH",
"803 1462 LINE",
"643 1462 LINE",
"643 1276 LINE SMOOTH",
"643 1177 OFFCURVE",
"621 1110 OFFCURVE",
"589 1067 CURVE SMOOTH",
"556 1024 OFFCURVE",
"510 1006 OFFCURVE",
"465 1006 CURVE SMOOTH",
"346 1006 OFFCURVE",
"272 1106 OFFCURVE",
"272 1317 CURVE SMOOTH",
"272 1462 LINE",
"113 1462 LINE",
"113 1317 LINE SMOOTH",
"113 1146 OFFCURVE",
"145 1035 OFFCURVE",
"202 966 CURVE SMOOTH",
"258 897 OFFCURVE",
"338 870 OFFCURVE",
"434 870 CURVE SMOOTH",
"487 870 OFFCURVE",
"543 881 OFFCURVE",
"592 910 CURVE SMOOTH",
"640 939 OFFCURVE",
"684 984 OFFCURVE",
"715 1055 CURVE",
"723 1055 LINE",
"744 983 OFFCURVE",
"786 937 OFFCURVE",
"832 909 CURVE SMOOTH",
"878 880 OFFCURVE",
"928 870 OFFCURVE",
"969 870 CURVE SMOOTH",
"1001 870 OFFCURVE",
"1040 880 OFFCURVE",
"1076 901 CURVE SMOOTH",
"1112 922 OFFCURVE",
"1146 956 OFFCURVE",
"1167 1004 CURVE",
"1176 1004 LINE",
"1176 0 LINE"
);
},
{
closed = 1;
nodes = (
"981 502 OFFCURVE",
"1022 539 OFFCURVE",
"1022 604 CURVE SMOOTH",
"1022 668 OFFCURVE",
"980 707 OFFCURVE",
"920 707 CURVE SMOOTH",
"860 707 OFFCURVE",
"817 668 OFFCURVE",
"817 604 CURVE SMOOTH",
"817 539 OFFCURVE",
"853 502 OFFCURVE",
"920 502 CURVE SMOOTH"
);
},
{
closed = 1;
nodes = (
"1650 502 OFFCURVE",
"1690 539 OFFCURVE",
"1690 604 CURVE SMOOTH",
"1690 668 OFFCURVE",
"1647 707 OFFCURVE",
"1587 707 CURVE SMOOTH",
"1527 707 OFFCURVE",
"1485 668 OFFCURVE",
"1485 604 CURVE SMOOTH",
"1485 539 OFFCURVE",
"1522 502 OFFCURVE",
"1587 502 CURVE SMOOTH"
);
}
);
width = 1780;
}
);
note = uniA550;
unicode = A550;
},
{
glyphname = uniA551;
lastChange = "2016-11-10 14:41:34 +0000";
layers = (
{
layerId = "ADED0D52-FD26-4FEF-A6A9-DB4FC8BB207A";
paths = (
{
closed = 1;
nodes = (
"531 206 OFFCURVE",
"675 443 OFFCURVE",
"762 672 CURVE",
"913 672 LINE",
"881 560 OFFCURVE",
"862 456 OFFCURVE",
"862 360 CURVE SMOOTH",
"862 113 OFFCURVE",
"975 -23 OFFCURVE",
"1219 -23 CURVE SMOOTH",
"1308 -23 OFFCURVE",
"1399 17 OFFCURVE",
"1465 89 CURVE SMOOTH",
"1531 160 OFFCURVE",
"1575 262 OFFCURVE",
"1575 387 CURVE SMOOTH",
"1575 495 OFFCURVE",
"1538 589 OFFCURVE",
"1463 661 CURVE SMOOTH",
"1388 733 OFFCURVE",
"1274 783 OFFCURVE",
"1122 803 CURVE",
"1170 918 OFFCURVE",
"1229 1029 OFFCURVE",
"1293 1132 CURVE SMOOTH",
"1357 1235 OFFCURVE",
"1424 1330 OFFCURVE",
"1487 1411 CURVE",
"1356 1485 LINE",
"1187 1266 OFFCURVE",
"1049 1034 OFFCURVE",
"961 811 CURVE",
"807 811 LINE",
"834 906 OFFCURVE",
"848 996 OFFCURVE",
"848 1081 CURVE SMOOTH",
"848 1205 OFFCURVE",
"814 1306 OFFCURVE",
"754 1376 CURVE SMOOTH",
"693 1446 OFFCURVE",
"604 1485 OFFCURVE",
"492 1485 CURVE SMOOTH",
"401 1485 OFFCURVE",
"313 1445 OFFCURVE",
"246 1374 CURVE SMOOTH",
"179 1302 OFFCURVE",
"135 1200 OFFCURVE",
"135 1075 CURVE SMOOTH",
"135 964 OFFCURVE",
"169 874 OFFCURVE",
"245 806 CURVE SMOOTH",
"320 738 OFFCURVE",
"436 694 OFFCURVE",
"600 678 CURVE",
"553 559 OFFCURVE",
"492 446 OFFCURVE",
"426 339 CURVE SMOOTH",
"360 232 OFFCURVE",
"288 135 OFFCURVE",
"223 51 CURVE",
"354 -23 LINE"
);
},
{
closed = 1;
nodes = (
"511 827 OFFCURVE",
"423 856 OFFCURVE",
"369 901 CURVE SMOOTH",
"315 945 OFFCURVE",
"295 1004 OFFCURVE",
"295 1075 CURVE SMOOTH",
"295 1246 OFFCURVE",
"364 1346 OFFCURVE",
"492 1346 CURVE SMOOTH",
"553 1346 OFFCURVE",
"603 1321 OFFCURVE",
"637 1275 CURVE SMOOTH",
"671 1229 OFFCURVE",
"688 1162 OFFCURVE",
"688 1081 CURVE SMOOTH",
"688 993 OFFCURVE",
"674 906 OFFCURVE",
"647 815 CURVE"
);
},
{
closed = 1;
nodes = (
"1146 117 OFFCURVE",
"1097 138 OFFCURVE",
"1066 179 CURVE SMOOTH",
"1034 219 OFFCURVE",
"1022 280 OFFCURVE",
"1022 360 CURVE SMOOTH",
"1022 460 OFFCURVE",
"1040 560 OFFCURVE",
"1071 664 CURVE",
"1196 649 OFFCURVE",
"1282 615 OFFCURVE",
"1337 567 CURVE SMOOTH",
"1392 519 OFFCURVE",
"1415 456 OFFCURVE",
"1415 387 CURVE SMOOTH",
"1415 216 OFFCURVE",
"1347 117 OFFCURVE",
"1219 117 CURVE SMOOTH"
);
}
);
width = 1710;
}
);
note = uniA551;
unicode = A551;
},
{
glyphname = uniA552;
lastChange = "2016-11-10 14:41:34 +0000";
layers = (
{
layerId = "ADED0D52-FD26-4FEF-A6A9-DB4FC8BB207A";
paths = (
{
closed = 1;
nodes = (
"1329 0 LINE",
"1329 410 LINE",
"1780 410 LINE",
"1780 1053 LINE",
"1329 1053 LINE",
"1329 1462 LINE",
"227 1462 LINE",
"227 0 LINE"
);
},
{
closed = 1;
nodes = (
"387 1321 LINE",
"1169 1321 LINE",
"1169 141 LINE",
"387 141 LINE"
);
},
{
closed = 1;
nodes = (
"837 633 OFFCURVE",
"877 670 OFFCURVE",
"877 735 CURVE SMOOTH",
"877 799 OFFCURVE",
"834 838 OFFCURVE",
"774 838 CURVE SMOOTH",
"714 838 OFFCURVE",
"672 799 OFFCURVE",
"672 735 CURVE SMOOTH",
"672 670 OFFCURVE",
"709 633 OFFCURVE",
"774 633 CURVE SMOOTH"
);
},
{
closed = 1;
nodes = (
"1329 911 LINE",
"1620 911 LINE",
"1620 551 LINE",
"1329 551 LINE"
);
}
);
width = 1937;
}
);
note = uniA552;
unicode = A552;
},
{
glyphname = uniA553;
lastChange = "2016-11-10 14:41:34 +0000";
layers = (
{
layerId = "ADED0D52-FD26-4FEF-A6A9-DB4FC8BB207A";
paths = (
{
closed = 1;
nodes = (
"1569 0 OFFCURVE",
"1673 87 OFFCURVE",
"1673 258 CURVE SMOOTH",
"1673 343 OFFCURVE",
"1653 410 OFFCURVE",
"1590 456 CURVE SMOOTH",
"1526 502 OFFCURVE",
"1420 526 OFFCURVE",
"1251 526 CURVE SMOOTH",
"1124 526 LINE",
"1124 1321 LINE",
"1253 1321 LINE SMOOTH",
"1358 1321 OFFCURVE",
"1423 1310 OFFCURVE",
"1462 1289 CURVE SMOOTH",
"1501 1268 OFFCURVE",
"1513 1235 OFFCURVE",
"1513 1194 CURVE SMOOTH",
"1513 1110 OFFCURVE",
"1458 1065 OFFCURVE",
"1378 1065 CURVE",
"1378 936 LINE",
"1569 936 OFFCURVE",
"1673 1023 OFFCURVE",
"1673 1194 CURVE SMOOTH",
"1673 1279 OFFCURVE",
"1653 1346 OFFCURVE",
"1590 1392 CURVE SMOOTH",
"1526 1438 OFFCURVE",
"1420 1462 OFFCURVE",
"1251 1462 CURVE SMOOTH",
"227 1462 LINE",
"227 385 LINE",
"1253 385 LINE SMOOTH",
"1358 385 OFFCURVE",
"1423 374 OFFCURVE",
"1462 353 CURVE SMOOTH",
"1501 332 OFFCURVE",
"1513 299 OFFCURVE",
"1513 258 CURVE SMOOTH",
"1513 174 OFFCURVE",
"1458 129 OFFCURVE",
"1378 129 CURVE",
"1378 0 LINE"
);
},
{
closed = 1;
nodes = (
"387 1321 LINE",
"965 1321 LINE",
"965 526 LINE",
"387 526 LINE"
);
},
{
closed = 1;
nodes = (
"731 838 OFFCURVE",
"772 873 OFFCURVE",
"772 940 CURVE SMOOTH",
"772 1004 OFFCURVE",
"730 1042 OFFCURVE",
"670 1042 CURVE SMOOTH",
"610 1042 OFFCURVE",
"567 1004 OFFCURVE",
"567 940 CURVE SMOOTH",
"567 873 OFFCURVE",
"603 838 OFFCURVE",
"670 838 CURVE SMOOTH"
);
}
);
width = 1831;
}
);
note = uniA553;
unicode = A553;
},
{
glyphname = uniA554;
lastChange = "2016-11-10 14:41:34 +0000";
layers = (
{
layerId = "ADED0D52-FD26-4FEF-A6A9-DB4FC8BB207A";
paths = (
{
closed = 1;
nodes = (
"1352 0 LINE",
"760 1462 LINE",
"643 1462 LINE",
"45 0 LINE"
);
},
{
closed = 1;
nodes = (
"690 1217 LINE",
"1110 150 LINE",
"268 150 LINE"
);
}
);
width = 1397;
}
);
note = uniA554;
unicode = A554;
},
{
glyphname = uniA555;
lastChange = "2016-11-10 14:41:34 +0000";
layers = (
{
layerId = "ADED0D52-FD26-4FEF-A6A9-DB4FC8BB207A";
paths = (
{
closed = 1;
nodes = (
"841 172 OFFCURVE",
"990 232 OFFCURVE",
"1094 338 CURVE SMOOTH",
"1198 444 OFFCURVE",
"1257 597 OFFCURVE",
"1257 786 CURVE SMOOTH",
"1257 971 OFFCURVE",
"1194 1127 OFFCURVE",
"1090 1236 CURVE SMOOTH",
"985 1344 OFFCURVE",
"836 1407 OFFCURVE",
"664 1407 CURVE SMOOTH",
"491 1407 OFFCURVE",
"341 1344 OFFCURVE",
"236 1236 CURVE SMOOTH",
"131 1127 OFFCURVE",
"68 971 OFFCURVE",
"68 786 CURVE SMOOTH",
"68 597 OFFCURVE",
"123 444 OFFCURVE",
"224 338 CURVE SMOOTH",
"325 232 OFFCURVE",
"475 172 OFFCURVE",
"664 172 CURVE SMOOTH"
);
},
{
closed = 1;
nodes = (
"548 311 OFFCURVE",
"455 342 OFFCURVE",
"383 399 CURVE",
"664 680 LINE",
"940 403 LINE",
"865 343 OFFCURVE",
"772 311 OFFCURVE",
"664 311 CURVE SMOOTH"
);
},
{
closed = 1;
nodes = (
"248 591 OFFCURVE",
"227 679 OFFCURVE",
"227 786 CURVE SMOOTH",
"227 887 OFFCURVE",
"250 978 OFFCURVE",
"291 1053 CURVE",
"557 786 LINE",
"287 516 LINE"
);
},
{
closed = 1;
nodes = (
"770 786 LINE",
"1034 1051 LINE",
"1073 976 OFFCURVE",
"1098 887 OFFCURVE",
"1098 786 CURVE SMOOTH",
"1098 682 OFFCURVE",
"1075 592 OFFCURVE",
"1036 520 CURVE"
);
},
{
closed = 1;
nodes = (
"385 1169 LINE",
"460 1233 OFFCURVE",
"555 1268 OFFCURVE",
"664 1268 CURVE SMOOTH",
"772 1268 OFFCURVE",
"865 1231 OFFCURVE",
"940 1167 CURVE",
"664 891 LINE"
);
}
);
width = 1325;
}
);
note = uniA555;
unicode = A555;
},
{
glyphname = uniA556;
lastChange = "2016-11-10 14:41:34 +0000";
layers = (
{
layerId = "ADED0D52-FD26-4FEF-A6A9-DB4FC8BB207A";
paths = (
{
closed = 1;
nodes = (
"1419 0 LINE",
"827 1462 LINE",
"711 1462 LINE",
"113 0 LINE"
);
},
{
closed = 1;
nodes = (
"325 809 OFFCURVE",
"360 846 OFFCURVE",
"360 911 CURVE SMOOTH",
"360 975 OFFCURVE",
"318 1014 OFFCURVE",
"258 1014 CURVE SMOOTH",
"198 1014 OFFCURVE",
"156 975 OFFCURVE",
"156 911 CURVE SMOOTH",
"156 846 OFFCURVE",
"197 809 OFFCURVE",
"258 809 CURVE SMOOTH"
);
},
{
closed = 1;
nodes = (
"758 1217 LINE",
"1178 150 LINE",
"336 150 LINE"
);
},
{
closed = 1;
nodes = (
"1339 809 OFFCURVE",
"1380 846 OFFCURVE",
"1380 911 CURVE SMOOTH",
"1380 975 OFFCURVE",
"1338 1014 OFFCURVE",
"1278 1014 CURVE SMOOTH",
"1218 1014 OFFCURVE",
"1176 975 OFFCURVE",
"1176 911 CURVE SMOOTH",
"1176 846 OFFCURVE",
"1211 809 OFFCURVE",
"1278 809 CURVE SMOOTH"
);
}
);
width = 1532;
}
);
note = uniA556;
unicode = A556;
},
{
glyphname = uniA557;
lastChange = "2016-11-10 14:41:34 +0000";
layers = (
{
layerId = "ADED0D52-FD26-4FEF-A6A9-DB4FC8BB207A";
paths = (
{
closed = 1;
nodes = (
"649 0 LINE SMOOTH",
"773 0 OFFCURVE",
"882 31 OFFCURVE",
"960 96 CURVE SMOOTH",
"1038 160 OFFCURVE",
"1085 259 OFFCURVE",
"1085 395 CURVE SMOOTH",
"1085 487 OFFCURVE",
"1055 564 OFFCURVE",
"1011 624 CURVE SMOOTH",
"966 683 OFFCURVE",
"906 724 OFFCURVE",
"846 743 CURVE",
"846 752 LINE",
"905 768 OFFCURVE",
"962 805 OFFCURVE",
"1006 860 CURVE SMOOTH",
"1049 915 OFFCURVE",
"1077 986 OFFCURVE",
"1077 1073 CURVE SMOOTH",
"1077 1206 OFFCURVE",
"1032 1303 OFFCURVE",
"956 1367 CURVE SMOOTH",
"880 1431 OFFCURVE",
"772 1462 OFFCURVE",
"647 1462 CURVE SMOOTH",
"227 1462 LINE",
"227 0 LINE"
);
},
{
closed = 1;
nodes = (
"387 674 LINE",
"647 674 LINE SMOOTH",
"724 674 OFFCURVE",
"794 651 OFFCURVE",
"845 604 CURVE SMOOTH",
"896 557 OFFCURVE",
"926 487 OFFCURVE",
"926 395 CURVE SMOOTH",
"926 303 OFFCURVE",
"896 239 OFFCURVE",
"848 199 CURVE SMOOTH",
"799 159 OFFCURVE",
"729 141 OFFCURVE",
"649 141 CURVE SMOOTH",
"387 141 LINE"
);
},
{
closed = 1;
nodes = (
"387 1321 LINE",
"647 1321 LINE SMOOTH",
"720 1321 OFFCURVE",
"789 1303 OFFCURVE",
"838 1263 CURVE SMOOTH",
"887 1223 OFFCURVE",
"918 1161 OFFCURVE",
"918 1073 CURVE SMOOTH",
"918 985 OFFCURVE",
"889 918 OFFCURVE",
"841 874 CURVE SMOOTH",
"792 830 OFFCURVE",
"724 807 OFFCURVE",
"647 807 CURVE SMOOTH",
"387 807 LINE"
);
}
);
width = 1243;
}
);
note = uniA557;
unicode = A557;
},
{
glyphname = uniA558;
lastChange = "2016-11-10 14:41:34 +0000";
layers = (
{
layerId = "ADED0D52-FD26-4FEF-A6A9-DB4FC8BB207A";
paths = (
{
closed = 1;
nodes = (
"727 -16 OFFCURVE",
"810 -3 OFFCURVE",
"875 34 CURVE SMOOTH",
"940 71 OFFCURVE",
"987 132 OFFCURVE",
"987 231 CURVE SMOOTH",
"987 296 OFFCURVE",
"960 352 OFFCURVE",
"916 392 CURVE SMOOTH",
"871 432 OFFCURVE",
"808 455 OFFCURVE",
"735 455 CURVE",
"735 1008 LINE",
"808 1008 OFFCURVE",
"871 1031 OFFCURVE",
"916 1071 CURVE SMOOTH",
"960 1110 OFFCURVE",
"987 1166 OFFCURVE",
"987 1231 CURVE SMOOTH",
"987 1328 OFFCURVE",
"940 1391 OFFCURVE",
"875 1429 CURVE SMOOTH",
"810 1467 OFFCURVE",
"727 1479 OFFCURVE",
"655 1479 CURVE SMOOTH",
"562 1479 OFFCURVE",
"461 1456 OFFCURVE",
"364 1408 CURVE SMOOTH",
"267 1360 OFFCURVE",
"171 1287 OFFCURVE",
"90 1188 CURVE",
"182 1112 LINE",
"246 1176 OFFCURVE",
"319 1232 OFFCURVE",
"399 1273 CURVE SMOOTH",
"478 1314 OFFCURVE",
"564 1339 OFFCURVE",
"655 1339 CURVE SMOOTH",
"719 1339 OFFCURVE",
"766 1327 OFFCURVE",
"795 1307 CURVE SMOOTH",
"824 1287 OFFCURVE",
"838 1260 OFFCURVE",
"838 1231 CURVE SMOOTH",
"838 1192 OFFCURVE",
"824 1170 OFFCURVE",
"798 1156 CURVE SMOOTH",
"772 1142 OFFCURVE",
"733 1137 OFFCURVE",
"688 1137 CURVE SMOOTH",
"582 1137 LINE",
"582 326 LINE",
"688 326 LINE SMOOTH",
"780 326 OFFCURVE",
"838 307 OFFCURVE",
"838 231 CURVE SMOOTH",
"838 202 OFFCURVE",
"824 175 OFFCURVE",
"794 155 CURVE SMOOTH",
"764 135 OFFCURVE",
"718 123 OFFCURVE",
"655 123 CURVE SMOOTH",
"564 123 OFFCURVE",
"481 150 OFFCURVE",
"405 194 CURVE SMOOTH",
"328 237 OFFCURVE",
"257 296 OFFCURVE",
"193 360 CURVE",
"90 274 LINE",
"171 175 OFFCURVE",
"267 103 OFFCURVE",
"364 55 CURVE SMOOTH",
"461 7 OFFCURVE",
"562 -16 OFFCURVE",
"655 -16 CURVE SMOOTH"
);
}
);
width = 1122;
}
);
note = uniA558;
unicode = A558;
},
{
glyphname = uniA559;
lastChange = "2016-11-10 14:41:34 +0000";
layers = (
{
layerId = "ADED0D52-FD26-4FEF-A6A9-DB4FC8BB207A";
paths = (
{
closed = 1;
nodes = (
"1108 -16 OFFCURVE",
"1191 -3 OFFCURVE",
"1256 34 CURVE SMOOTH",
"1321 71 OFFCURVE",
"1368 132 OFFCURVE",
"1368 231 CURVE SMOOTH",
"1368 296 OFFCURVE",
"1341 352 OFFCURVE",
"1297 392 CURVE SMOOTH",
"1252 432 OFFCURVE",
"1189 455 OFFCURVE",
"1116 455 CURVE",
"1116 1008 LINE",
"1189 1008 OFFCURVE",
"1252 1031 OFFCURVE",
"1297 1071 CURVE SMOOTH",
"1341 1110 OFFCURVE",
"1368 1166 OFFCURVE",
"1368 1231 CURVE SMOOTH",
"1368 1328 OFFCURVE",
"1321 1391 OFFCURVE",
"1256 1429 CURVE SMOOTH",
"1191 1467 OFFCURVE",
"1108 1479 OFFCURVE",
"1036 1479 CURVE SMOOTH",
"943 1479 OFFCURVE",
"842 1456 OFFCURVE",
"745 1408 CURVE SMOOTH",
"648 1360 OFFCURVE",
"552 1287 OFFCURVE",
"471 1188 CURVE",
"563 1112 LINE",
"627 1176 OFFCURVE",
"700 1232 OFFCURVE",
"780 1273 CURVE SMOOTH",
"859 1314 OFFCURVE",
"945 1339 OFFCURVE",
"1036 1339 CURVE SMOOTH",
"1100 1339 OFFCURVE",
"1147 1327 OFFCURVE",
"1176 1307 CURVE SMOOTH",
"1205 1287 OFFCURVE",
"1219 1260 OFFCURVE",
"1219 1231 CURVE SMOOTH",
"1219 1192 OFFCURVE",
"1205 1170 OFFCURVE",
"1179 1156 CURVE SMOOTH",
"1153 1142 OFFCURVE",
"1114 1137 OFFCURVE",
"1069 1137 CURVE SMOOTH",
"963 1137 LINE",
"963 825 LINE",
"317 825 LINE",
"317 1153 LINE",
"158 1153 LINE",
"158 358 LINE",
"317 358 LINE",
"317 686 LINE",
"963 686 LINE",
"963 326 LINE",
"1069 326 LINE SMOOTH",
"1161 326 OFFCURVE",
"1219 307 OFFCURVE",
"1219 231 CURVE SMOOTH",
"1219 202 OFFCURVE",
"1205 175 OFFCURVE",
"1175 155 CURVE SMOOTH",
"1145 135 OFFCURVE",
"1099 123 OFFCURVE",
"1036 123 CURVE SMOOTH",
"945 123 OFFCURVE",
"861 150 OFFCURVE",
"785 194 CURVE SMOOTH",
"708 237 OFFCURVE",
"637 296 OFFCURVE",
"573 360 CURVE",
"471 274 LINE",
"552 175 OFFCURVE",
"648 103 OFFCURVE",
"745 55 CURVE SMOOTH",
"842 7 OFFCURVE",
"943 -16 OFFCURVE",
"1036 -16 CURVE SMOOTH"
);
}
);
width = 1503;
}
);
note = uniA559;
unicode = A559;
},
{
glyphname = uniA55A;
lastChange = "2016-11-10 14:41:34 +0000";
layers = (
{
layerId = "ADED0D52-FD26-4FEF-A6A9-DB4FC8BB207A";
paths = (
{
closed = 1;
nodes = (
"803 0 LINE",
"803 983 LINE",
"811 983 LINE",
"835 935 OFFCURVE",
"874 907 OFFCURVE",
"913 891 CURVE SMOOTH",
"952 874 OFFCURVE",
"991 870 OFFCURVE",
"1012 870 CURVE SMOOTH",
"1108 870 OFFCURVE",
"1188 897 OFFCURVE",
"1245 967 CURVE SMOOTH",
"1301 1037 OFFCURVE",
"1333 1150 OFFCURVE",
"1333 1323 CURVE SMOOTH",
"1333 1462 LINE",
"1174 1462 LINE",
"1174 1321 LINE SMOOTH",
"1174 1106 OFFCURVE",
"1100 1006 OFFCURVE",
"991 1006 CURVE SMOOTH",
"940 1006 OFFCURVE",
"893 1024 OFFCURVE",
"859 1067 CURVE SMOOTH",
"825 1110 OFFCURVE",
"803 1177 OFFCURVE",
"803 1276 CURVE SMOOTH",
"803 1462 LINE",
"643 1462 LINE",
"643 1276 LINE SMOOTH",
"643 1177 OFFCURVE",
"622 1110 OFFCURVE",
"588 1067 CURVE SMOOTH",
"554 1024 OFFCURVE",
"506 1006 OFFCURVE",
"455 1006 CURVE SMOOTH",
"346 1006 OFFCURVE",
"272 1106 OFFCURVE",
"272 1321 CURVE SMOOTH",
"272 1462 LINE",
"113 1462 LINE",
"113 1323 LINE SMOOTH",
"113 1150 OFFCURVE",
"145 1037 OFFCURVE",
"202 967 CURVE SMOOTH",
"258 897 OFFCURVE",
"338 870 OFFCURVE",
"434 870 CURVE SMOOTH",
"459 870 OFFCURVE",
"496 875 OFFCURVE",
"533 892 CURVE SMOOTH",
"570 909 OFFCURVE",
"607 936 OFFCURVE",
"635 983 CURVE",
"643 983 LINE",
"643 0 LINE"
);
}
);
width = 1446;
}
);
note = uniA55A;
unicode = A55A;
},
{
glyphname = uniA55B;
lastChange = "2016-11-10 14:41:34 +0000";
layers = (
{
layerId = "ADED0D52-FD26-4FEF-A6A9-DB4FC8BB207A";
paths = (
{
closed = 1;
nodes = (
"1114 0 LINE",
"1114 141 LINE",
"803 141 LINE",
"803 983 LINE",
"811 983 LINE",
"835 935 OFFCURVE",
"874 907 OFFCURVE",
"913 891 CURVE SMOOTH",
"952 874 OFFCURVE",
"991 870 OFFCURVE",
"1012 870 CURVE SMOOTH",
"1108 870 OFFCURVE",
"1188 897 OFFCURVE",
"1245 967 CURVE SMOOTH",
"1301 1037 OFFCURVE",
"1333 1150 OFFCURVE",
"1333 1323 CURVE SMOOTH",
"1333 1462 LINE",
"1174 1462 LINE",
"1174 1321 LINE SMOOTH",
"1174 1106 OFFCURVE",
"1100 1006 OFFCURVE",
"991 1006 CURVE SMOOTH",
"940 1006 OFFCURVE",
"893 1024 OFFCURVE",
"859 1067 CURVE SMOOTH",
"825 1110 OFFCURVE",
"803 1177 OFFCURVE",
"803 1276 CURVE SMOOTH",
"803 1321 LINE",
"1073 1321 LINE",
"1073 1462 LINE",
"373 1462 LINE",
"373 1321 LINE",
"643 1321 LINE",
"643 1276 LINE SMOOTH",
"643 1177 OFFCURVE",
"622 1110 OFFCURVE",
"588 1067 CURVE SMOOTH",
"554 1024 OFFCURVE",
"506 1006 OFFCURVE",
"455 1006 CURVE SMOOTH",
"346 1006 OFFCURVE",
"272 1106 OFFCURVE",
"272 1321 CURVE SMOOTH",
"272 1462 LINE",
"113 1462 LINE",
"113 1323 LINE SMOOTH",
"113 1150 OFFCURVE",
"145 1037 OFFCURVE",
"202 967 CURVE SMOOTH",
"258 897 OFFCURVE",
"338 870 OFFCURVE",
"434 870 CURVE SMOOTH",
"459 870 OFFCURVE",
"496 875 OFFCURVE",
"533 892 CURVE SMOOTH",
"570 909 OFFCURVE",
"607 936 OFFCURVE",
"635 983 CURVE",
"643 983 LINE",
"643 141 LINE",
"332 141 LINE",
"332 0 LINE"
);
}
);
width = 1446;
}
);
note = uniA55B;
unicode = A55B;
},
{
glyphname = uniA55C;
lastChange = "2016-11-10 14:41:34 +0000";
layers = (
{
layerId = "ADED0D52-FD26-4FEF-A6A9-DB4FC8BB207A";
paths = (
{
closed = 1;
nodes = (
"1335 0 LINE",
"1335 1462 LINE",
"1176 1462 LINE",
"1176 977 LINE SMOOTH",
"1176 869 OFFCURVE",
"1157 791 OFFCURVE",
"1125 739 CURVE SMOOTH",
"1093 687 OFFCURVE",
"1047 662 OFFCURVE",
"995 662 CURVE SMOOTH",
"940 662 OFFCURVE",
"893 681 OFFCURVE",
"859 723 CURVE SMOOTH",
"825 765 OFFCURVE",
"803 832 OFFCURVE",
"803 928 CURVE SMOOTH",
"803 1118 LINE",
"643 1118 LINE",
"643 932 LINE SMOOTH",
"643 833 OFFCURVE",
"621 766 OFFCURVE",
"589 723 CURVE SMOOTH",
"556 680 OFFCURVE",
"510 662 OFFCURVE",
"465 662 CURVE SMOOTH",
"346 662 OFFCURVE",
"272 762 OFFCURVE",
"272 973 CURVE SMOOTH",
"272 1118 LINE",
"113 1118 LINE",
"113 973 LINE SMOOTH",
"113 802 OFFCURVE",
"145 691 OFFCURVE",
"202 622 CURVE SMOOTH",
"258 553 OFFCURVE",
"338 526 OFFCURVE",
"434 526 CURVE SMOOTH",
"487 526 OFFCURVE",
"543 537 OFFCURVE",
"592 566 CURVE SMOOTH",
"640 595 OFFCURVE",
"684 640 OFFCURVE",
"715 711 CURVE",
"723 711 LINE",
"744 639 OFFCURVE",
"786 593 OFFCURVE",
"832 565 CURVE SMOOTH",
"878 536 OFFCURVE",
"928 526 OFFCURVE",
"969 526 CURVE SMOOTH",
"1001 526 OFFCURVE",
"1040 536 OFFCURVE",
"1076 557 CURVE SMOOTH",
"1112 577 OFFCURVE",
"1146 611 OFFCURVE",
"1167 659 CURVE",
"1176 659 LINE",
"1176 0 LINE"
);
},
{
closed = 1;
nodes = (
"784 299 OFFCURVE",
"825 336 OFFCURVE",
"825 401 CURVE SMOOTH",
"825 465 OFFCURVE",
"783 504 OFFCURVE",
"723 504 CURVE SMOOTH",
"663 504 OFFCURVE",
"621 465 OFFCURVE",
"621 401 CURVE SMOOTH",
"621 336 OFFCURVE",
"656 299 OFFCURVE",
"723 299 CURVE SMOOTH"
);
},
{
closed = 1;
nodes = (
"784 1200 OFFCURVE",
"825 1236 OFFCURVE",
"825 1303 CURVE SMOOTH",
"825 1367 OFFCURVE",
"783 1405 OFFCURVE",
"723 1405 CURVE SMOOTH",
"663 1405 OFFCURVE",
"621 1367 OFFCURVE",
"621 1303 CURVE SMOOTH",
"621 1236 OFFCURVE",
"656 1200 OFFCURVE",
"723 1200 CURVE SMOOTH"
);
}
);
width = 1563;
}
);
note = uniA55C;
unicode = A55C;
},
{
glyphname = uniA55D;
lastChange = "2016-11-10 14:41:34 +0000";
layers = (
{
layerId = "ADED0D52-FD26-4FEF-A6A9-DB4FC8BB207A";
paths = (
{
closed = 1;
nodes = (
"1335 0 LINE",
"1335 1462 LINE",
"1176 1462 LINE",
"1176 977 LINE SMOOTH",
"1176 869 OFFCURVE",
"1157 791 OFFCURVE",
"1125 739 CURVE SMOOTH",
"1093 687 OFFCURVE",
"1047 662 OFFCURVE",
"995 662 CURVE SMOOTH",
"940 662 OFFCURVE",
"893 681 OFFCURVE",
"859 723 CURVE SMOOTH",
"825 765 OFFCURVE",
"803 832 OFFCURVE",
"803 928 CURVE SMOOTH",
"803 1118 LINE",
"643 1118 LINE",
"643 932 LINE SMOOTH",
"643 833 OFFCURVE",
"621 766 OFFCURVE",
"589 723 CURVE SMOOTH",
"556 680 OFFCURVE",
"510 662 OFFCURVE",
"465 662 CURVE SMOOTH",
"346 662 OFFCURVE",
"272 762 OFFCURVE",
"272 973 CURVE SMOOTH",
"272 1118 LINE",
"113 1118 LINE",
"113 973 LINE SMOOTH",
"113 802 OFFCURVE",
"145 691 OFFCURVE",
"202 622 CURVE SMOOTH",
"258 553 OFFCURVE",
"338 526 OFFCURVE",
"434 526 CURVE SMOOTH",
"487 526 OFFCURVE",
"543 537 OFFCURVE",
"592 566 CURVE SMOOTH",
"640 595 OFFCURVE",
"684 640 OFFCURVE",
"715 711 CURVE",
"723 711 LINE",
"744 639 OFFCURVE",
"786 593 OFFCURVE",
"832 565 CURVE SMOOTH",
"878 536 OFFCURVE",
"928 526 OFFCURVE",
"969 526 CURVE SMOOTH",
"1001 526 OFFCURVE",
"1040 536 OFFCURVE",
"1076 557 CURVE SMOOTH",
"1112 577 OFFCURVE",
"1146 611 OFFCURVE",
"1167 659 CURVE",
"1176 659 LINE",
"1176 0 LINE"
);
},
{
closed = 1;
nodes = (
"784 299 OFFCURVE",
"825 336 OFFCURVE",
"825 401 CURVE SMOOTH",
"825 465 OFFCURVE",
"783 504 OFFCURVE",
"723 504 CURVE SMOOTH",
"663 504 OFFCURVE",
"621 465 OFFCURVE",
"621 401 CURVE SMOOTH",
"621 336 OFFCURVE",
"656 299 OFFCURVE",
"723 299 CURVE SMOOTH"
);
},
{
closed = 1;
nodes = (
"784 1200 OFFCURVE",
"825 1236 OFFCURVE",
"825 1303 CURVE SMOOTH",
"825 1367 OFFCURVE",
"783 1405 OFFCURVE",
"723 1405 CURVE SMOOTH",
"663 1405 OFFCURVE",
"621 1367 OFFCURVE",
"621 1303 CURVE SMOOTH",
"621 1236 OFFCURVE",
"656 1200 OFFCURVE",
"723 1200 CURVE SMOOTH"
);
},
{
closed = 1;
nodes = (
"1743 0 LINE",
"1743 1462 LINE",
"1583 1462 LINE",
"1583 0 LINE"
);
}
);
width = 1970;
}
);
note = uniA55D;
unicode = A55D;
},
{
glyphname = uniA55E;
lastChange = "2016-11-10 14:41:34 +0000";
layers = (
{
layerId = "ADED0D52-FD26-4FEF-A6A9-DB4FC8BB207A";
paths = (
{
closed = 1;
nodes = (
"797 0 LINE",
"797 467 LINE",
"1348 467 LINE",
"1348 606 LINE",
"797 606 LINE",
"797 877 LINE",
"1348 877 LINE",
"1348 1016 LINE",
"797 1016 LINE",
"797 1462 LINE",
"637 1462 LINE",
"637 0 LINE"
);
},
{
closed = 1;
nodes = (
"387 0 LINE",
"387 1462 LINE",
"227 1462 LINE",
"227 0 LINE"
);
}
);
width = 1438;
}
);
note = uniA55E;
unicode = A55E;
},
{
glyphname = uniA55F;
lastChange = "2016-11-10 14:41:34 +0000";
layers = (
{
layerId = "ADED0D52-FD26-4FEF-A6A9-DB4FC8BB207A";
paths = (
{
closed = 1;
nodes = (
"797 0 LINE",
"797 467 LINE",
"1348 467 LINE",
"1348 606 LINE",
"797 606 LINE",
"797 877 LINE",
"1348 877 LINE",
"1348 1016 LINE",
"797 1016 LINE",
"797 1462 LINE",
"637 1462 LINE",
"637 0 LINE"
);
},
{
closed = 1;
nodes = (
"600 -252 OFFCURVE",
"649 -233 OFFCURVE",
"713 -233 CURVE SMOOTH",
"758 -233 OFFCURVE",
"818 -252 OFFCURVE",
"880 -271 CURVE SMOOTH",
"942 -290 OFFCURVE",
"1008 -309 OFFCURVE",
"1065 -309 CURVE SMOOTH",
"1194 -309 OFFCURVE",
"1270 -252 OFFCURVE",
"1321 -123 CURVE",
"1227 -68 LINE",
"1186 -147 OFFCURVE",
"1137 -166 OFFCURVE",
"1073 -166 CURVE SMOOTH",
"1030 -166 OFFCURVE",
"973 -147 OFFCURVE",
"911 -128 CURVE SMOOTH",
"849 -109 OFFCURVE",
"781 -90 OFFCURVE",
"721 -90 CURVE SMOOTH",
"592 -90 OFFCURVE",
"516 -147 OFFCURVE",
"465 -276 CURVE",
"559 -332 LINE"
);
},
{
closed = 1;
nodes = (
"387 0 LINE",
"387 1462 LINE",
"227 1462 LINE",
"227 0 LINE"
);
}
);
width = 1438;
}
);
note = uniA55F;
unicode = A55F;
},
{
glyphname = uniA560;
lastChange = "2016-11-10 14:41:34 +0000";
layers = (
{
layerId = "ADED0D52-FD26-4FEF-A6A9-DB4FC8BB207A";
paths = (
{
closed = 1;
nodes = (
"1288 0 LINE",
"1288 895 LINE",
"1436 895 OFFCURVE",
"1541 924 OFFCURVE",
"1609 976 CURVE SMOOTH",
"1677 1027 OFFCURVE",
"1708 1099 OFFCURVE",
"1708 1184 CURVE SMOOTH",
"1708 1269 OFFCURVE",
"1682 1339 OFFCURVE",
"1619 1387 CURVE SMOOTH",
"1555 1435 OFFCURVE",
"1456 1462 OFFCURVE",
"1311 1462 CURVE",
"1311 1333 LINE",
"1402 1333 OFFCURVE",
"1461 1317 OFFCURVE",
"1498 1290 CURVE SMOOTH",
"1534 1263 OFFCURVE",
"1548 1225 OFFCURVE",
"1548 1184 CURVE SMOOTH",
"1548 1141 OFFCURVE",
"1531 1105 OFFCURVE",
"1491 1079 CURVE SMOOTH",
"1450 1053 OFFCURVE",
"1384 1036 OFFCURVE",
"1288 1036 CURVE SMOOTH",
"227 1036 LINE",
"227 0 LINE"
);
},
{
closed = 1;
nodes = (
"387 895 LINE",
"678 895 LINE",
"678 141 LINE",
"387 141 LINE"
);
},
{
closed = 1;
nodes = (
"838 895 LINE",
"1128 895 LINE",
"1128 141 LINE",
"838 141 LINE"
);
}
);
width = 1798;
}
);
note = uniA560;
unicode = A560;
},
{
glyphname = uniA561;
lastChange = "2016-11-10 14:41:34 +0000";
layers = (
{
layerId = "ADED0D52-FD26-4FEF-A6A9-DB4FC8BB207A";
paths = (
{
closed = 1;
nodes = (
"1288 0 LINE",
"1288 895 LINE",
"1436 895 OFFCURVE",
"1541 924 OFFCURVE",
"1609 976 CURVE SMOOTH",
"1677 1027 OFFCURVE",
"1708 1099 OFFCURVE",
"1708 1184 CURVE SMOOTH",
"1708 1269 OFFCURVE",
"1682 1339 OFFCURVE",
"1619 1387 CURVE SMOOTH",
"1555 1435 OFFCURVE",
"1456 1462 OFFCURVE",
"1311 1462 CURVE",
"1311 1333 LINE",
"1402 1333 OFFCURVE",
"1461 1317 OFFCURVE",
"1498 1290 CURVE SMOOTH",
"1534 1263 OFFCURVE",
"1548 1225 OFFCURVE",
"1548 1184 CURVE SMOOTH",
"1548 1141 OFFCURVE",
"1531 1105 OFFCURVE",
"1491 1079 CURVE SMOOTH",
"1450 1053 OFFCURVE",
"1384 1036 OFFCURVE",
"1288 1036 CURVE SMOOTH",
"227 1036 LINE",
"227 0 LINE"
);
},
{
closed = 1;
nodes = (
"387 895 LINE",
"678 895 LINE",
"678 141 LINE",
"387 141 LINE"
);
},
{
closed = 1;
nodes = (
"838 895 LINE",
"1128 895 LINE",
"1128 141 LINE",
"838 141 LINE"
);
},
{
closed = 1;
nodes = (
"1605 582 OFFCURVE",
"1645 617 OFFCURVE",
"1645 684 CURVE SMOOTH",
"1645 748 OFFCURVE",
"1602 786 OFFCURVE",
"1542 786 CURVE SMOOTH",
"1482 786 OFFCURVE",
"1440 748 OFFCURVE",
"1440 684 CURVE SMOOTH",
"1440 617 OFFCURVE",
"1477 582 OFFCURVE",
"1542 582 CURVE SMOOTH"
);
},
{
closed = 1;
nodes = (
"1153 1176 OFFCURVE",
"1194 1211 OFFCURVE",
"1194 1278 CURVE SMOOTH",
"1194 1342 OFFCURVE",
"1152 1380 OFFCURVE",
"1092 1380 CURVE SMOOTH",
"1032 1380 OFFCURVE",
"989 1342 OFFCURVE",
"989 1278 CURVE SMOOTH",
"989 1211 OFFCURVE",
"1025 1176 OFFCURVE",
"1092 1176 CURVE SMOOTH"
);
}
);
width = 1798;
}
);
note = uniA561;
unicode = A561;
},
{
glyphname = uniA562;
lastChange = "2016-11-10 14:41:34 +0000";
layers = (
{
layerId = "ADED0D52-FD26-4FEF-A6A9-DB4FC8BB207A";
paths = (
{
closed = 1;
nodes = (
"1058 -16 OFFCURVE",
"1169 28 OFFCURVE",
"1249 105 CURVE SMOOTH",
"1329 181 OFFCURVE",
"1380 291 OFFCURVE",
"1380 422 CURVE SMOOTH",
"1380 494 OFFCURVE",
"1364 557 OFFCURVE",
"1335 614 CURVE",
"1447 622 OFFCURVE",
"1549 670 OFFCURVE",
"1623 746 CURVE SMOOTH",
"1697 822 OFFCURVE",
"1743 926 OFFCURVE",
"1743 1049 CURVE SMOOTH",
"1743 1178 OFFCURVE",
"1692 1288 OFFCURVE",
"1612 1365 CURVE SMOOTH",
"1531 1441 OFFCURVE",
"1420 1485 OFFCURVE",
"1300 1485 CURVE SMOOTH",
"1152 1485 OFFCURVE",
"1021 1420 OFFCURVE",
"938 1309 CURVE",
"858 1420 OFFCURVE",
"725 1485 OFFCURVE",
"580 1485 CURVE SMOOTH",
"460 1485 OFFCURVE",
"348 1441 OFFCURVE",
"268 1365 CURVE SMOOTH",
"187 1288 OFFCURVE",
"135 1178 OFFCURVE",
"135 1049 CURVE SMOOTH",
"135 926 OFFCURVE",
"180 824 OFFCURVE",
"253 749 CURVE SMOOTH",
"325 673 OFFCURVE",
"426 625 OFFCURVE",
"537 616 CURVE",
"508 559 OFFCURVE",
"494 495 OFFCURVE",
"494 422 CURVE SMOOTH",
"494 291 OFFCURVE",
"545 181 OFFCURVE",
"626 105 CURVE SMOOTH",
"707 28 OFFCURVE",
"818 -16 OFFCURVE",
"938 -16 CURVE SMOOTH"
);
},
{
closed = 1;
nodes = (
"859 119 OFFCURVE",
"787 149 OFFCURVE",
"735 202 CURVE SMOOTH",
"682 255 OFFCURVE",
"649 331 OFFCURVE",
"649 422 CURVE SMOOTH",
"649 511 OFFCURVE",
"682 585 OFFCURVE",
"735 637 CURVE SMOOTH",
"787 689 OFFCURVE",
"859 719 OFFCURVE",
"938 719 CURVE SMOOTH",
"1017 719 OFFCURVE",
"1089 689 OFFCURVE",
"1141 637 CURVE SMOOTH",
"1193 585 OFFCURVE",
"1225 511 OFFCURVE",
"1225 422 CURVE SMOOTH",
"1225 331 OFFCURVE",
"1193 255 OFFCURVE",
"1141 202 CURVE SMOOTH",
"1089 149 OFFCURVE",
"1017 119 OFFCURVE",
"938 119 CURVE SMOOTH"
);
},
{
closed = 1;
nodes = (
"501 750 OFFCURVE",
"429 780 OFFCURVE",
"377 832 CURVE SMOOTH",
"324 884 OFFCURVE",
"291 958 OFFCURVE",
"291 1049 CURVE SMOOTH",
"291 1138 OFFCURVE",
"324 1214 OFFCURVE",
"377 1267 CURVE SMOOTH",
"429 1320 OFFCURVE",
"501 1350 OFFCURVE",
"580 1350 CURVE SMOOTH",
"659 1350 OFFCURVE",
"730 1320 OFFCURVE",
"782 1267 CURVE SMOOTH",
"834 1214 OFFCURVE",
"866 1138 OFFCURVE",
"866 1049 CURVE SMOOTH",
"866 958 OFFCURVE",
"834 884 OFFCURVE",
"782 832 CURVE SMOOTH",
"730 780 OFFCURVE",
"659 750 OFFCURVE",
"580 750 CURVE SMOOTH"
);
},
{
closed = 1;
nodes = (
"1221 750 OFFCURVE",
"1149 780 OFFCURVE",
"1097 832 CURVE SMOOTH",
"1045 884 OFFCURVE",
"1012 958 OFFCURVE",
"1012 1049 CURVE SMOOTH",
"1012 1138 OFFCURVE",
"1045 1214 OFFCURVE",
"1097 1267 CURVE SMOOTH",
"1149 1320 OFFCURVE",
"1221 1350 OFFCURVE",
"1300 1350 CURVE SMOOTH",
"1379 1350 OFFCURVE",
"1451 1320 OFFCURVE",
"1503 1267 CURVE SMOOTH",
"1555 1214 OFFCURVE",
"1587 1138 OFFCURVE",
"1587 1049 CURVE SMOOTH",
"1587 958 OFFCURVE",
"1555 884 OFFCURVE",
"1503 832 CURVE SMOOTH",
"1451 780 OFFCURVE",
"1379 750 OFFCURVE",
"1300 750 CURVE SMOOTH"
);
}
);
width = 1878;
}
);
note = uniA562;
unicode = A562;
},
{
glyphname = uniA563;
lastChange = "2016-11-10 14:41:34 +0000";
layers = (
{
layerId = "ADED0D52-FD26-4FEF-A6A9-DB4FC8BB207A";
paths = (
{
closed = 1;
nodes = (
"1058 -16 OFFCURVE",
"1169 28 OFFCURVE",
"1249 105 CURVE SMOOTH",
"1329 181 OFFCURVE",
"1380 291 OFFCURVE",
"1380 422 CURVE SMOOTH",
"1380 494 OFFCURVE",
"1364 557 OFFCURVE",
"1335 614 CURVE",
"1447 622 OFFCURVE",
"1549 670 OFFCURVE",
"1623 746 CURVE SMOOTH",
"1697 822 OFFCURVE",
"1743 926 OFFCURVE",
"1743 1049 CURVE SMOOTH",
"1743 1178 OFFCURVE",
"1692 1288 OFFCURVE",
"1612 1365 CURVE SMOOTH",
"1531 1441 OFFCURVE",
"1420 1485 OFFCURVE",
"1300 1485 CURVE SMOOTH",
"1152 1485 OFFCURVE",
"1021 1420 OFFCURVE",
"938 1309 CURVE",
"858 1420 OFFCURVE",
"725 1485 OFFCURVE",
"580 1485 CURVE SMOOTH",
"460 1485 OFFCURVE",
"348 1441 OFFCURVE",
"268 1365 CURVE SMOOTH",
"187 1288 OFFCURVE",
"135 1178 OFFCURVE",
"135 1049 CURVE SMOOTH",
"135 926 OFFCURVE",
"180 824 OFFCURVE",
"253 749 CURVE SMOOTH",
"325 673 OFFCURVE",
"426 625 OFFCURVE",
"537 616 CURVE",
"508 559 OFFCURVE",
"494 495 OFFCURVE",
"494 422 CURVE SMOOTH",
"494 291 OFFCURVE",
"545 181 OFFCURVE",
"626 105 CURVE SMOOTH",
"707 28 OFFCURVE",
"818 -16 OFFCURVE",
"938 -16 CURVE SMOOTH"
);
},
{
closed = 1;
nodes = (
"327 326 OFFCURVE",
"367 361 OFFCURVE",
"367 428 CURVE SMOOTH",
"367 492 OFFCURVE",
"324 530 OFFCURVE",
"264 530 CURVE SMOOTH",
"204 530 OFFCURVE",
"162 492 OFFCURVE",
"162 428 CURVE SMOOTH",
"162 361 OFFCURVE",
"199 326 OFFCURVE",
"264 326 CURVE SMOOTH"
);
},
{
closed = 1;
nodes = (
"859 119 OFFCURVE",
"787 149 OFFCURVE",
"735 202 CURVE SMOOTH",
"682 255 OFFCURVE",
"649 331 OFFCURVE",
"649 422 CURVE SMOOTH",
"649 511 OFFCURVE",
"682 585 OFFCURVE",
"735 637 CURVE SMOOTH",
"787 689 OFFCURVE",
"859 719 OFFCURVE",
"938 719 CURVE SMOOTH",
"1017 719 OFFCURVE",
"1089 689 OFFCURVE",
"1141 637 CURVE SMOOTH",
"1193 585 OFFCURVE",
"1225 511 OFFCURVE",
"1225 422 CURVE SMOOTH",
"1225 331 OFFCURVE",
"1193 255 OFFCURVE",
"1141 202 CURVE SMOOTH",
"1089 149 OFFCURVE",
"1017 119 OFFCURVE",
"938 119 CURVE SMOOTH"
);
},
{
closed = 1;
nodes = (
"501 750 OFFCURVE",
"429 780 OFFCURVE",
"377 832 CURVE SMOOTH",
"324 884 OFFCURVE",
"291 958 OFFCURVE",
"291 1049 CURVE SMOOTH",
"291 1138 OFFCURVE",
"324 1214 OFFCURVE",
"377 1267 CURVE SMOOTH",
"429 1320 OFFCURVE",
"501 1350 OFFCURVE",
"580 1350 CURVE SMOOTH",
"659 1350 OFFCURVE",
"730 1320 OFFCURVE",
"782 1267 CURVE SMOOTH",
"834 1214 OFFCURVE",
"866 1138 OFFCURVE",
"866 1049 CURVE SMOOTH",
"866 958 OFFCURVE",
"834 884 OFFCURVE",
"782 832 CURVE SMOOTH",
"730 780 OFFCURVE",
"659 750 OFFCURVE",
"580 750 CURVE SMOOTH"
);
},
{
closed = 1;
nodes = (
"1673 326 OFFCURVE",
"1714 361 OFFCURVE",
"1714 428 CURVE SMOOTH",
"1714 492 OFFCURVE",
"1672 530 OFFCURVE",
"1612 530 CURVE SMOOTH",
"1552 530 OFFCURVE",
"1509 492 OFFCURVE",
"1509 428 CURVE SMOOTH",
"1509 361 OFFCURVE",
"1545 326 OFFCURVE",
"1612 326 CURVE SMOOTH"
);
},
{
closed = 1;
nodes = (
"1221 750 OFFCURVE",
"1149 780 OFFCURVE",
"1097 832 CURVE SMOOTH",
"1045 884 OFFCURVE",
"1012 958 OFFCURVE",
"1012 1049 CURVE SMOOTH",
"1012 1138 OFFCURVE",
"1045 1214 OFFCURVE",
"1097 1267 CURVE SMOOTH",
"1149 1320 OFFCURVE",
"1221 1350 OFFCURVE",
"1300 1350 CURVE SMOOTH",
"1379 1350 OFFCURVE",
"1451 1320 OFFCURVE",
"1503 1267 CURVE SMOOTH",
"1555 1214 OFFCURVE",
"1587 1138 OFFCURVE",
"1587 1049 CURVE SMOOTH",
"1587 958 OFFCURVE",
"1555 884 OFFCURVE",
"1503 832 CURVE SMOOTH",
"1451 780 OFFCURVE",
"1379 750 OFFCURVE",
"1300 750 CURVE SMOOTH"
);
}
);
width = 1878;
}
);
note = uniA563;
unicode = A563;
},
{
glyphname = uniA564;
lastChange = "2016-11-10 14:41:34 +0000";
layers = (
{
layerId = "ADED0D52-FD26-4FEF-A6A9-DB4FC8BB207A";
paths = (
{
closed = 1;
nodes = (
"552 -20 OFFCURVE",
"647 21 OFFCURVE",
"725 85 CURVE SMOOTH",
"803 149 OFFCURVE",
"864 237 OFFCURVE",
"893 330 CURVE",
"901 330 LINE",
"930 237 OFFCURVE",
"992 149 OFFCURVE",
"1069 85 CURVE SMOOTH",
"1145 21 OFFCURVE",
"1238 -20 OFFCURVE",
"1333 -20 CURVE SMOOTH",
"1425 -20 OFFCURVE",
"1506 10 OFFCURVE",
"1563 66 CURVE SMOOTH",
"1620 121 OFFCURVE",
"1655 200 OFFCURVE",
"1655 297 CURVE SMOOTH",
"1655 392 OFFCURVE",
"1613 487 OFFCURVE",
"1541 565 CURVE SMOOTH",
"1468 643 OFFCURVE",
"1364 702 OFFCURVE",
"1241 729 CURVE",
"1241 737 LINE",
"1364 769 OFFCURVE",
"1468 831 OFFCURVE",
"1541 907 CURVE SMOOTH",
"1613 983 OFFCURVE",
"1655 1075 OFFCURVE",
"1655 1167 CURVE SMOOTH",
"1655 1260 OFFCURVE",
"1623 1340 OFFCURVE",
"1567 1396 CURVE SMOOTH",
"1510 1452 OFFCURVE",
"1429 1485 OFFCURVE",
"1333 1485 CURVE SMOOTH",
"1238 1485 OFFCURVE",
"1145 1444 OFFCURVE",
"1069 1380 CURVE SMOOTH",
"992 1316 OFFCURVE",
"930 1228 OFFCURVE",
"901 1135 CURVE",
"893 1135 LINE",
"864 1228 OFFCURVE",
"803 1316 OFFCURVE",
"725 1380 CURVE SMOOTH",
"647 1444 OFFCURVE",
"552 1485 OFFCURVE",
"457 1485 CURVE SMOOTH",
"361 1485 OFFCURVE",
"280 1452 OFFCURVE",
"224 1396 CURVE SMOOTH",
"167 1340 OFFCURVE",
"135 1260 OFFCURVE",
"135 1167 CURVE SMOOTH",
"135 1072 OFFCURVE",
"177 978 OFFCURVE",
"250 900 CURVE SMOOTH",
"322 822 OFFCURVE",
"426 762 OFFCURVE",
"549 735 CURVE",
"549 727 LINE",
"426 695 OFFCURVE",
"322 634 OFFCURVE",
"250 558 CURVE SMOOTH",
"177 481 OFFCURVE",
"135 389 OFFCURVE",
"135 297 CURVE SMOOTH",
"135 200 OFFCURVE",
"170 121 OFFCURVE",
"227 66 CURVE SMOOTH",
"284 10 OFFCURVE",
"365 -20 OFFCURVE",
"457 -20 CURVE SMOOTH"
);
},
{
closed = 1;
nodes = (
"410 119 OFFCURVE",
"370 136 OFFCURVE",
"342 167 CURVE SMOOTH",
"313 198 OFFCURVE",
"295 242 OFFCURVE",
"295 297 CURVE SMOOTH",
"295 364 OFFCURVE",
"326 427 OFFCURVE",
"374 483 CURVE SMOOTH",
"422 539 OFFCURVE",
"487 587 OFFCURVE",
"555 621 CURVE SMOOTH",
"623 655 OFFCURVE",
"695 674 OFFCURVE",
"756 674 CURVE SMOOTH",
"825 674 LINE",
"825 573 LINE SMOOTH",
"825 461 OFFCURVE",
"785 349 OFFCURVE",
"718 263 CURVE SMOOTH",
"651 177 OFFCURVE",
"560 119 OFFCURVE",
"457 119 CURVE SMOOTH"
);
},
{
closed = 1;
nodes = (
"1230 119 OFFCURVE",
"1139 180 OFFCURVE",
"1072 268 CURVE SMOOTH",
"1005 356 OFFCURVE",
"965 469 OFFCURVE",
"965 573 CURVE SMOOTH",
"965 674 LINE",
"1034 674 LINE SMOOTH",
"1095 674 OFFCURVE",
"1167 655 OFFCURVE",
"1235 621 CURVE SMOOTH",
"1303 587 OFFCURVE",
"1368 539 OFFCURVE",
"1416 483 CURVE SMOOTH",
"1464 427 OFFCURVE",
"1495 364 OFFCURVE",
"1495 297 CURVE SMOOTH",
"1495 242 OFFCURVE",
"1477 198 OFFCURVE",
"1449 167 CURVE SMOOTH",
"1420 136 OFFCURVE",
"1378 119 OFFCURVE",
"1333 119 CURVE SMOOTH"
);
},
{
closed = 1;
nodes = (
"695 791 OFFCURVE",
"623 810 OFFCURVE",
"555 842 CURVE SMOOTH",
"487 874 OFFCURVE",
"422 921 OFFCURVE",
"374 977 CURVE SMOOTH",
"326 1032 OFFCURVE",
"295 1098 OFFCURVE",
"295 1167 CURVE SMOOTH",
"295 1219 OFFCURVE",
"311 1264 OFFCURVE",
"340 1296 CURVE SMOOTH",
"368 1328 OFFCURVE",
"409 1346 OFFCURVE",
"457 1346 CURVE SMOOTH",
"554 1346 OFFCURVE",
"647 1288 OFFCURVE",
"715 1202 CURVE SMOOTH",
"782 1116 OFFCURVE",
"825 1002 OFFCURVE",
"825 891 CURVE SMOOTH",
"825 791 LINE",
"756 791 LINE SMOOTH"
);
},
{
closed = 1;
nodes = (
"965 891 LINE SMOOTH",
"965 1002 OFFCURVE",
"1008 1116 OFFCURVE",
"1076 1202 CURVE SMOOTH",
"1143 1288 OFFCURVE",
"1234 1346 OFFCURVE",
"1333 1346 CURVE SMOOTH",
"1381 1346 OFFCURVE",
"1422 1328 OFFCURVE",
"1451 1296 CURVE SMOOTH",
"1479 1264 OFFCURVE",
"1495 1219 OFFCURVE",
"1495 1167 CURVE SMOOTH",
"1495 1098 OFFCURVE",
"1464 1032 OFFCURVE",
"1416 977 CURVE SMOOTH",
"1368 921 OFFCURVE",
"1303 874 OFFCURVE",
"1235 842 CURVE SMOOTH",
"1167 810 OFFCURVE",
"1095 791 OFFCURVE",
"1034 791 CURVE SMOOTH",
"965 791 LINE"
);
}
);
width = 1790;
}
);
note = uniA564;
unicode = A564;
},
